/* XPM */
static char *_642232276712[] = {
/* columns rows colors chars-per-pixel */
"50 50 105 2 ",
"   c black",
".  c gray5",
"X  c #161616",
"o  c gray11",
"O  c #252525",
"+  c #2A2A2A",
"@  c #353535",
"#  c gray23",
"$  c gray28",
"%  c gray30",
"&  c #5F5F5F",
"*  c #656565",
"=  c #6D6D6D",
"-  c #737373",
";  c gray50",
":  c #D4A309",
">  c #DEAA0B",
",  c #D4A21A",
"<  c #DAB219",
"1  c #E2AE08",
"2  c #F1AE09",
"3  c #E4B10B",
"4  c #ECB709",
"5  c #ECB809",
"6  c #F2B309",
"7  c #F5BD09",
"8  c #FEBD09",
"9  c #E4AF12",
"0  c #E4AF19",
"q  c #E3B717",
"w  c #EBB71C",
"e  c #E8BB1A",
"r  c #EBB723",
"t  c #EBB72E",
"y  c #EEC00F",
"u  c #FEC30A",
"i  c #FECB09",
"p  c #FEC314",
"a  c #FECB17",
"s  c #FEC31C",
"d  c #FDCD1E",
"f  c #FEC422",
"g  c #FEC822",
"h  c #FECC2C",
"j  c #F5CA31",
"k  c #FEC932",
"l  c #FED035",
"z  c #FECE54",
"x  c #FECD5B",
"c  c #FED351",
"v  c #FED55D",
"b  c #FED560",
"n  c #FED860",
"m  c #FEDB6F",
"M  c #FEDC7D",
"N  c #838383",
"B  c #8C8C8C",
"V  c #92928F",
"C  c #959594",
"Z  c #9A9A97",
"A  c #9C9C9B",
"S  c #A5A5A4",
"D  c #ADADAC",
"F  c #B3B2AF",
"G  c #B4B3B2",
"H  c #BCBCBC",
"J  c #FBDF85",
"K  c #FDE284",
"L  c #FEE18E",
"P  c #FEE696",
"I  c #FEE59E",
"U  c #C1C1BD",
"Y  c #FEE5A2",
"T  c #FEE3AB",
"R  c #FFEAAA",
"E  c #FEE6B4",
"W  c #FFEDB5",
"Q  c #FDEFBD",
"!  c #FEF0BE",
"~  c #CBCBC9",
"^  c #D1D1CE",
"/  c #D6D6D4",
"(  c #DAD9D7",
")  c #DDDCDB",
"_  c #FBE6C1",
"`  c #FDEAC4",
"'  c #F7EDCE",
"]  c #FDEBCB",
"[  c #FFF3C5",
"{  c #FEF3CD",
"}  c #E0E0DD",
"|  c #FFEED1",
" . c #F6EFDB",
".. c #FEF3D2",
"X. c #FBF3DB",
"o. c #FFF8DC",
"O. c #E4E4E4",
"+. c #E9E8E6",
"@. c #EBEBEA",
"#. c #FCF5E2",
"$. c #FFF9E3",
"%. c #FFFCED",
"&. c #F4F4F4",
"*. c #FDFCF4",
"=. c #FFFFFE",
/* pixels */
"                                                                                                    ",
"                                                                                                    ",
"                                                                                                    ",
"                                                                                                    ",
"                                                                                                    ",
"                                                                                                    ",
"                                                                                                    ",
"                                                                                                    ",
"                                                                                                    ",
"                                                                                                    ",
"                                                                                                    ",
"                                                                                                    ",
"                          . .           . .                                                         ",
"                      . .                   X                                                       ",
"                    X     = F / } ) ) ~ C $   O                                                     ",
"                  X     H =.=.=.=.=.=.=.=.@.N   O                                                   ",
"                  .   H =.=.o.R I Y I W =.=.&.-   o                                                 ",
"                X   G =.=.R h u u u u u c %.=.*.V   .                                               ",
"              o   V =.=.! u 8 s s s s p 8 v *.=.@.O O + + + + + + + + O + O O o                     ",
"            X   $ O.=.{ i u p u p p u u s u n *.=.D                             .                   ",
"            O   S =.=.c 8 p u p u 8 u u u f 8 Y =.&./ ( ) ) ) ( ( ) ( ( ) ^ U A     .               ",
"          .   + ) =.Q u p u p u k z u u u p u h *.=.=.=.=.=.=.=.=.=.=.=.=.=.=.=.~ @   .             ",
"          X   & &.=.m u p p u h o.=.P u s u p u E | _ ] ] ] ] ] ] ] ] ] ] ] ..*.=.S   O             ",
"          X   = =.=.x u p s u I =.=.*.l u p u p 8 8 8 8 8 8 8 8 8 8 8 8 8 8 u P =.) #   .           ",
"          X   - =.=.x u p u g { =.=.=.T 8 f u u s f f f f f f f s f f s f f 8 z =.=.-   X           ",
"          X   - =.=.x 8 p u k o.=.=.=.E 8 s u u u u u u u u u u u u u u u p u x =.=.-   X           ",
"          X   - =.=.x 8 p u p [ =.=.*.M u s u u u p u u u u u u u u u u u p 8 c =.=.-   X           ",
"          X   = *.=.v u p s u J =.=.$.i p u u u i i i i i u 7 7 7 7 7 7 7 u d ..=.+.%   .           ",
"          .   % O.=.K u u p u a [ =.L u s u s u ..*.%.*.#.< : : : : : : , : ' =.=.A   X             ",
"          . .   ~ =...u p u u u u a u u u p 8 c *.=.=.=.*.< : : : : : : , :  .=.H   O               ",
"            O   Z =.=.v 8 p u u p u u u u f u W =.@.H =.*.e : > > > > 1 0 > X.=.G   O               ",
"            .   + O.=...u p s u u u u u f 8 m *.=.S ; =.*.w 1 1 9 9 0 1 q 3 X.=.G   O               ",
"              o   C *.=.` u u f f f f s 8 b *.=.@.  C =.*.y r r 5 4 4 w t 4 X.=.G   O               ",
"                X   C =.=.[ c u 8 8 8 u J %.=.&.N   C =.*.j 2 6 K Q I 5 2 y o.=.G   O               ",
"                  .   D =.=.%.` ` ` ` { =.=.&.B     = &.=.X._ ` *.=.=.] _ ] =.=.Z   o               ",
"                  . o   B +.=.=.=.=.=.=.=.( =   X O   H =.=.=.=.=.=.=.=.=.=.=.+.O   .               ",
"                    . .   o D ( ) ) } / B     X         G ) ) ) ) } O.) ) } ~ *   .                 ",
"                        .                   .                                   .                   ",
"                            o O O + O O X               o O + O O O + O O O O .                     ",
"                                                                                                    ",
"                                                                                                    ",
"                                                                                                    ",
"                                                                                                    ",
"                                                                                                    ",
"                                                                                                    ",
"                                                                                                    ",
"                                                                                                    ",
"                                                                                                    ",
"                                                                                                    ",
"                                                                                                    "
};
