/* XPM */
static char *_642232361782[] = {
/* columns rows colors chars-per-pixel */
"50 50 226 2 ",
"   c black",
".  c #0A0100",
"X  c #130300",
"o  c #190400",
"O  c #1D0800",
"+  c #230700",
"@  c #2B0B00",
"#  c #310D00",
"$  c #241000",
"%  c #351300",
"&  c #3C1300",
"*  c #421501",
"=  c #441A02",
"-  c #4C1A01",
";  c #551D01",
":  c #5A1E01",
">  c #701C02",
",  c #5B2101",
"<  c #43320B",
"1  c #622201",
"2  c #6A2601",
"3  c #782702",
"4  c #742A02",
"5  c #792B02",
"6  c #793C02",
"7  c #5E3D3A",
"8  c #673B30",
"9  c #6A4033",
"0  c #4E4E4E",
"q  c #584D4E",
"w  c #6A6A6A",
"e  c #756A68",
"r  c #797675",
"t  c #822C02",
"y  c #8E2E03",
"u  c #833202",
"i  c #8E3403",
"p  c #833B02",
"a  c #943803",
"s  c #9A3B03",
"d  c #A23E03",
"f  c #AC3F04",
"g  c #853E21",
"h  c #874405",
"j  c #9E4104",
"k  c #8B411F",
"l  c #A54104",
"z  c #AC4304",
"x  c #A44D05",
"c  c #B64905",
"v  c #BA5C06",
"b  c #B24E11",
"n  c #A6581A",
"m  c #BC6405",
"M  c #BA7705",
"N  c #A86717",
"B  c #BF6E11",
"V  c #AD781C",
"C  c #9D5A25",
"Z  c #9F4731",
"A  c #A2452C",
"S  c #A35626",
"D  c #B85F2F",
"F  c #A65238",
"G  c #C54D05",
"H  c #CB4E05",
"J  c #CD5206",
"K  c #C85707",
"L  c #CF5806",
"P  c #D25406",
"I  c #DA5506",
"U  c #DD5A07",
"Y  c #D45909",
"T  c #C35417",
"R  c #E25A07",
"E  c #E25D09",
"W  c #E15C12",
"Q  c #C86608",
"!  c #C46E0F",
"~  c #D46708",
"^  c #D97908",
"/  c #DF7D17",
"(  c #E46409",
")  c #E76C09",
"_  c #EA740B",
"`  c #E47A08",
"'  c #EC7C0B",
"]  c #E56915",
"[  c #E77719",
"{  c #D56B2E",
"}  c #DD7C22",
"|  c #E87C24",
" . c #874B45",
".. c #855449",
"X. c #885B54",
"o. c #A85644",
"O. c #89605E",
"+. c #97665E",
"@. c #A46958",
"#. c #966D67",
"$. c #8B7667",
"%. c #90746E",
"&. c #9B746D",
"*. c #857976",
"=. c #BE7560",
"-. c #A57B76",
";. c #D1774B",
":. c #D67A4A",
">. c #C5775E",
",. c #CB775A",
"<. c #B4882B",
"1. c #D88508",
"2. c #DA9217",
"3. c #E3830B",
"4. c #ED830B",
"5. c #E18908",
"6. c #ED8B0B",
"7. c #F0850A",
"8. c #F38A0A",
"9. c #E79B0A",
"0. c #F79B0C",
"q. c #F99B0B",
"w. c #E58417",
"e. c #ED831A",
"r. c #ED961E",
"t. c #F69D11",
"y. c #F89E11",
"u. c #F39718",
"i. c #F59E1A",
"p. c #DAB008",
"a. c #E4A708",
"s. c #ECA20A",
"d. c #EEAB0B",
"f. c #FAA90E",
"g. c #FAA311",
"h. c #FAA511",
"j. c #F6A31B",
"k. c #EDB413",
"l. c #DF8025",
"z. c #C58336",
"x. c #DB8E34",
"c. c #E98927",
"v. c #ED9927",
"b. c #E99A38",
"n. c #F19F30",
"m. c #D5AD2B",
"M. c #EEA126",
"N. c #F4A325",
"B. c #F5AA2B",
"V. c #FBB62B",
"C. c #FABA2A",
"Z. c #E6A539",
"A. c #F2AA33",
"S. c #F7B834",
"D. c #DBC60C",
"F. c #EDCC0D",
"G. c #F4C60A",
"H. c #E1D509",
"J. c #EBD409",
"K. c #F8D70D",
"L. c #F7C717",
"P. c #FAE80B",
"I. c #FCF10E",
"U. c #FAE914",
"Y. c #FFFA17",
"T. c #FCCC23",
"R. c #F8D623",
"E. c #FAC53A",
"W. c #FCCB3D",
"Q. c #FBD635",
"!. c #FCE829",
"~. c #FFF725",
"^. c #FFFA23",
"/. c #FFE938",
"(. c #B88B53",
"). c #84807E",
"_. c #958473",
"`. c #B6897F",
"'. c #C5904A",
"]. c #C7945B",
"[. c #E58D4A",
"{. c #C58879",
"}. c #CB9A76",
"|. c #FECE40",
" X c #FED744",
".X c #FEE241",
"XX c #868787",
"oX c #8E8280",
"OX c gray55",
"+X c #978886",
"@X c #928E8C",
"#X c #9A918B",
"$X c #969696",
"%X c #9D9D9D",
"&X c #BA8E85",
"*X c #A69895",
"=X c #BC9793",
"-X c #BAA79A",
";X c #A4A4A4",
":X c #ABA5A3",
">X c #A8A9A8",
",X c #ABACAC",
"<X c #B3A9A6",
"1X c #B5AEAC",
"2X c #AFB0B0",
"3X c #B4B4B4",
"4X c #BBBBBB",
"5X c #C69C95",
"6X c #C9A59C",
"7X c #C4B1AF",
"8X c #E6B8A5",
"9X c #C4C5C6",
"0X c #CEC5C4",
"qX c #CCCCCC",
"wX c #D6D0CF",
"eX c #CFD1D1",
"rX c #D4D4D3",
"tX c #DCDBDB",
"yX c #E6E0DF",
"uX c #E3E4E4",
"iX c #E8E5E2",
"pX c #EBEBEB",
"aX c #F2EBEA",
"sX c #EFF1F1",
"dX c #F3F3F3",
"fX c #FDFDFD",
/* pixels */
"                                                                                                    ",
"                                                                                                    ",
"                                                                                                    ",
"                                                                                                    ",
"                            . @ & @ .   X $ 6 m ! h % X                                             ",
"                            + 4 s 5 @   & p M p.p.M h =                                             ",
"                            # s J d * $ 6 v 9.K.P.a.Q 6 % O % = % X                                 ",
"                            + s P f , 6 m ^ d.P.I.d.5.m h - 4 d u #                                 ",
"                        . @ 1 z P z p v w.i.L.U.I.L.j.4.m p d J f &                                 ",
"                        X 4 z P I J G ^ i.V.Q.^.Y.Q.S.j.3.K H I z *                                 ",
"                  # , : & i Y ] [ [ _ u.V.W..X~.^..X|.V.i.[ ] [ n =   + ; 1 &                       ",
"                  2 z d 1 i Y c.A.B.i.V.W. X.X~.^./. X|.S.i.B.A.<.<   - s z 3                       ",
"                  2 z z 1 y U v.Q.Q.V.S.E. X/.^.Y./. XE.S.V.W.Q.m.h > i G H u *                     ",
"                  * 2 1 * y ~ k.!./.W.A.v.R.Y.Y.Y.^.R.M.B.E./.~.k.Q c J U P t 2                     ",
"                      * 5 c ^ k.Y.!.S.| Q p.H.H.H.H.p.^ } A.Q.Y.G.7.E R R H u 2                     ",
"                    . 5 c _ g.K.I.L.l.T n N V V V V N b b / L.I.K.g.' ( R J u &                     ",
"                  - 5 z Y e.V.T.F.a.T F +.`.=X=X&X-.#.#.o.T 1.G.T.C.C.a.` J t                       ",
"                  4 c I ( v.S.S.w.K F &.:XwXaXaXiX0X1X*X&.F v w.A.Q.!.K.s.L t .                     ",
"                  5 K ` s.B.B.l.T F &.<XrXsXfXfXfXiXrX4X%X&.o.T | A.!.I.d.L t                       ",
"                  3 G 9.K.K.w.T A &.*XqXdXfXfXfXfXfXpXqX3X*X&.Z b / K.P.d.L t o                     ",
"                  3 G s.P.J.! A X.+X2XeXuXdXfXfXfXfXsXeX3X;XoXX.Z v D.P.d.J t ;                     ",
"                  3 J 9.U.H.N  .*.:X9XqXrXdXfXfXfXfXpXrX4X>X@Xr  .C D.U.k.J t 4                     ",
"                  5 G r.Q.m.S X.@X9XuXpXpXdXfXfXdXiXuXuXtX4X;X@XO.C m.Q.v.P t 5                     ",
"                  4 J c.E.m.S X.*X9XuXsXdXfXfXfXsXtXtXpXtX4X>X%X#.S m.E.v.P t 3                     ",
"                  5 G [ V.2.n #.$X%X%X3XeXpXdXpXuXuXuXqX,XXXXX$X&.S 2.B.w.L t 3                     ",
"                  5 G ' i.1.n -.>XXXq w %XrXpXrXeXuXtX;Xw q ).>X-.S ^ u.4.J t 3                     ",
"                  5 G ' y.1.S 5XrX,Xw 0 w 3XeX4X4XqX4Xr 0 w ;XrX<XF 1.0.' J u 3                     ",
"                  5 G _ y.5.D 5XtXqX;XXXOX2X3X;X%X4X2XOXXX%X9XtX6XD 1.q.' P t 5                     ",
"                  5 G ' 0.6.{ {.7XeXtXuXrXeX3X$XOX3XqXrXuXuXeX4X5X{ ` q.' J t 5                     ",
"                  3 G ' g.q.4.:.&X7XrXuXpXuXqX;X;X9XyXpXuXrX7X&X:.| q.q.' P t 5                     ",
"                  3 G _ 0.h.i.c.{ @.*.>XrXpXpXqX9XpXpXtX1X).+.;.c.i.f.j.' J t 4                     ",
"                  1 d Q 6.q.h.t.' v 9 e ;XuXsX9X9XpXuX,X*.8 x ` q.f.q.6.~ z 2 4                     ",
"                  @ - s ~ 7.y.h.0.! k 8 r qXuX1X,XyXrX*.7 g B 9.f.g.8.~ l , + 5                     ",
"                      u J ) 8.q.h.z...q e 6X8X}.}.8X6Xe q ..D V.h.8._ I i     4                     ",
"                      t H I ( 8.j.'.$.e O.=.[.b.b.[.>.%.w $.'.N.8.( R J i o   4                     ",
"                      , s G U 7.h.Z.(._.*.`.}.].].}.&X*.$.(.Z.j.8.R G d 1 X   ;                     ",
"                      X * i J ' 0.g.n.(._.:X1X#X+X1X1X_.(.Z.g.t.4.Y s - o     X                     ",
"                          : a Q ' 4.w.x.].-X>X$X$X>X-X].x.w.4.4.Q j 1                               ",
"                            * a J U ( 7.b.}.*X*X*X*X{.[.6.) R P j -                                 ",
"                              , i G R _ e.:.,.,.,.,.:.| _ ( G a 1 o                                 ",
"                                * s H I U W W W W W W E U J d -                                     ",
"                                X : i G R R R R R R R R G a , +                                     ",
"                                    * s G J G J H G J G f -                                         ",
"                                    O : 4 5 4 4 5 5 5 4 , @                                         ",
"                                                                                                    ",
"                                                                                                    ",
"                                                                                                    ",
"                                                                                                    ",
"                                                                                                    ",
"                                                                                                    "
};
