/* XPM */
static char *_642232373059[] = {
/* columns rows colors chars-per-pixel */
"50 50 216 2 ",
"   c black",
".  c #0A0100",
"X  c #120300",
"o  c #1A0400",
"O  c #210600",
"+  c #2A0A00",
"@  c #330E00",
"#  c #3A1100",
"$  c #3E3E3E",
"%  c #441401",
"&  c #4B1601",
"*  c #4D1901",
"=  c #501601",
"-  c #531B01",
";  c #5A1D01",
":  c #5E2101",
">  c #582612",
",  c #662401",
"<  c #792C04",
"1  c #7E320A",
"2  c #54332E",
"3  c #713B27",
"4  c #555555",
"5  c #775957",
"6  c #6A6A6A",
"7  c #776765",
"8  c #787877",
"9  c #842C02",
"0  c #8F2E03",
"q  c #853202",
"w  c #8C3402",
"e  c #8A3805",
"r  c #933503",
"t  c #953803",
"y  c #9B3B03",
"u  c #8A3A17",
"i  c #903F19",
"p  c #A83F04",
"a  c #8B4303",
"s  c #AB4204",
"d  c #B44504",
"f  c #BC4705",
"g  c #BB5905",
"h  c #B94C1A",
"j  c #AA5115",
"k  c #BC5216",
"l  c #BA501C",
"z  c #B96509",
"x  c #B36517",
"c  c #974624",
"v  c #9F5928",
"b  c #974938",
"n  c #91513B",
"m  c #A84C25",
"M  c #A55427",
"N  c #BC562A",
"B  c #A55837",
"V  c #AF6730",
"C  c #A76B37",
"Z  c #C54E05",
"A  c #C84B05",
"S  c #CD5206",
"D  c #C35C06",
"F  c #CD5A07",
"G  c #C85508",
"H  c #D45406",
"J  c #DA5A08",
"K  c #E05F07",
"L  c #C76807",
"P  c #DB6508",
"I  c #CA7708",
"U  c #D27E07",
"Y  c #DB6E19",
"T  c #C9771E",
"R  c #DA7518",
"E  c #E4650A",
"W  c #E5740B",
"Q  c #E57C0B",
"!  c #EC7B0B",
"~  c #EA7C15",
"^  c #C96A2B",
"/  c #DB6D2B",
"(  c #E97F2B",
")  c #8B4F45",
"_  c #9D5842",
"`  c #885855",
"'  c #A75945",
"]  c #B15E41",
"[  c #A35D50",
"{  c #85635D",
"}  c #9C6154",
"|  c #AD6146",
" . c #AC7650",
".. c #896A64",
"X. c #946A64",
"o. c #8C7566",
"O. c #96746A",
"+. c #877C7A",
"@. c #9B7A73",
"#. c #A37568",
"$. c #A37E78",
"%. c #C66B4C",
"&. c #C5724A",
"*. c #D87F47",
"=. c #D98608",
"-. c #D49212",
";. c #EA820A",
":. c #E88709",
">. c #F1870E",
",. c #EA9309",
"<. c #ED9B09",
"1. c #F5950A",
"2. c #F79B0F",
"3. c #FA9E0A",
"4. c #EC8212",
"5. c #EE871E",
"6. c #F08C1B",
"7. c #EB9516",
"8. c #F59D10",
"9. c #F89D10",
"0. c #F69D1E",
"q. c #D3B00E",
"w. c #D4BF08",
"e. c #EDA809",
"r. c #FBA80A",
"t. c #EAB80A",
"y. c #F2B50C",
"u. c #EEAC13",
"i. c #F6A313",
"p. c #FBA411",
"a. c #FAA519",
"s. c #F1B715",
"d. c #D49232",
"f. c #EB8624",
"g. c #EC9627",
"h. c #F09A29",
"j. c #D8A92C",
"k. c #DBB72C",
"l. c #EEA32B",
"z. c #F7A521",
"x. c #F8B62D",
"c. c #EDA130",
"v. c #F1AA31",
"b. c #F9B735",
"n. c #FBBC33",
"m. c #F6BC3A",
"M. c #DDC915",
"N. c #ECCB0A",
"B. c #F6D80B",
"V. c #F2C815",
"C. c #FAD315",
"Z. c #F9E30B",
"A. c #FBEC0B",
"S. c #FDF40E",
"D. c #F9E81A",
"F. c #FDF713",
"G. c #FDFC1B",
"H. c #FBC724",
"J. c #FBC637",
"K. c #FCD937",
"L. c #FCE526",
"P. c #FFF726",
"I. c #FFF924",
"U. c #FFE939",
"Y. c #FFF233",
"T. c #96816D",
"R. c #9C807B",
"E. c #A3807B",
"W. c #CA8A45",
"Q. c #D09367",
"!. c #C38471",
"~. c #FECF42",
"^. c #FED346",
"/. c #FEE341",
"(. c #7F8080",
"). c #858484",
"_. c #8D8A89",
"`. c #958A86",
"'. c #939393",
"]. c #9C9695",
"[. c #9B9C9C",
"{. c #B08D85",
"}. c #B3918D",
"|. c #A69C9B",
" X c #BC9C98",
".X c #ADA29D",
"XX c #BAA09B",
"oX c #A2A2A2",
"OX c #A8A6A5",
"+X c #ACACAC",
"@X c #B7AAA6",
"#X c #B5B0AF",
"$X c #AFB0B0",
"%X c #B5B5B5",
"&X c #BAB7B6",
"*X c #BCBCBC",
"=X c #C6978D",
"-X c #C9A19B",
";X c #E6A990",
":X c #C7A9A7",
">X c #CDB0AE",
",X c #BEC0BF",
"<X c #C4C4C4",
"1X c #CAC4C2",
"2X c #CCCDCD",
"3X c #D2CDCA",
"4X c #D3D3D3",
"5X c #D8D4D3",
"6X c #DCDCDC",
"7X c #E5DCD8",
"8X c #E3E3E3",
"9X c #EBEBEB",
"0X c #EEF0F0",
"qX c #F4F4F4",
"wX c #FAF7F6",
"eX c #FEFEFE",
/* pixels */
"                                                                                                    ",
"                                                                                                    ",
"                                                                                                    ",
"                                                                                                    ",
"                                            o % % +                                                 ",
"                                            & 0 r ;                                                 ",
"                                        o % e L L a & O                                             ",
"                                        % r I t.t.U y =                                             ",
"                            X & , * + % q G ,.B.Z.<.F e = O   o * , & X                             ",
"                            + q s w = r D Q y.A.S.y.;.F y &   @ r d q +                             ",
"                    , , #   + p H d t g ! 0.H.D.F.H.a.~ F e = % e d w +                             ",
"                    s s ;   @ y H H F Q a.n.K.P.G.K.J.z.:.F t * - < - o                             ",
"                    s p : % q x f.~ ~ z.m.~./.P.I./.~.n.a.~ D t - .                                 ",
"                    : ; # < g g.m.x.a.b.^.^./.P.I./.^.^.J.a.;.F r %   . o o X                       ",
"                        . 0 J l.U.K.J.b.J.K.Y.G.I.Y.^.J.b.b.h.E A w : # < < -                       ",
"                        # r P u.D.U.J.h.7.V.G.F.F.G.C.7.g.~.v.W P G t , d f 9                       ",
"                      - r D Q N.F.L.v.Y L -.w.M.w.w.q.L Y c.v.t.<.! D s H S q                       ",
"                    @ 9 S W a.C.A.V.R l c B C C C v M c l Y u.Z.C.u.:.P K S q                       ",
"                    w f H f.b.H.s.=.k ' @. X>X>X:X}.E.O.} l =.t.H.J.H.u.;.S 9                       ",
"                    Z P W h.J.v.R l ' @.#X6XwXwX9X3X&XOXR._ l Y c.~.L.A.e.F 9                       ",
"                    S ;.t.V.h./ l ' R.&X6XqXeXeXeX0X6X,X.XR.[ l Y l.C.S.e.F 9                       ",
"                    Z <.A.N.=.h b O.OX4XqXeXeXeXeXeX0X2X%X[.@.b h R N.S.e.S 9                       ",
"                    Z e.A.N.z c { '.%X2X6XqXeXeXeXeX0X2X%XoX_.{ b z M.Z.y.H 9                       ",
"                    Z <.L.M.x ) T.+X2X4X6X0XeXeXeXqX9X6X,X+X'.+.` M w.D.u.F 9                       ",
"                    Z g.J.k.V { '.<X9X0X0XeXeXeXqX8X6X9X6X<X+X'...v j.K.g.G 9                       ",
"                    S f.b.j.v } [.,X6X8X9XwXeXqX9X6X6X8X4X%XoX].X.B d.n.g.F 9                       ",
"                    A ~ z.-.M X.]._.).oX<X9XqX8X6X9X8X<X[.6 (.'.O.c -.z.4.S 9                       ",
"                    Z ! 2.=.M E.#X'.4 4 '.2X8X2X2X6X4X[.6 4 ).%X{.v U 2.! H 9                       ",
"                    Z ! 8.:.B -X6X&X8 4 6 +X<X%X%X<X%X6 4 6 $X6X:XB =.2.! S q                       ",
"                    Z ! 8.:.N -X5X2X%XoXoX%X&X[.[.%X&X|.oX$X2X5X-XN ;.8.;.H 9                       ",
"                    A ! 9.1.Y &.@X2X8X9X8X4X*X'.'.%X4X8X9X8X4X#X!./ ,.9.! H 9                       ",
"                    Z ! 2.3.6.W.!. X,X6X9X8X4X$X+X2X8X9X6X<X@X!.*.5.3.i.! H 9                       ",
"                    Z W 8.p.i.6./ ' 7 [.<X9X0X2X2X9X9X2X|.7 _ / f.i.p.i.! Z <                       ",
"                    t D Q 2.p.2.;.g 3 5 [.6X0X<X,X9X8XOX7 3 d ;.3.p.8.;.L y :                       ",
"                    # e J ! 9.p.9.I i 2 6 1X7X@X.X7X2X8 2 u I 8.p.9.;.J y % X                       ",
"                      9 S E >.2.p.U i 3 7 =X;XQ.Q.;X=X7 4 u I <.9.>.E H r .                         ",
"                    . < f J E >.8.U c 5 ..%.( 0.a.5.&...5 c I 2.>.E J Z q o                         ",
"                      * q d J ! 8.U c 5 o.d.1.r.r.3.d.o.5 c I 2.>.E f w ; X                         ",
"                        + 9 Z Q 6.T n 7 +.W.7.<.1.<.d.@.7 ) T 7.;.G w @                             ",
"                          & q D ~ V ..).`. .x g z z  .`.)...| R D e =                               ",
"                            + w h ] X._.`.@.[ ) n [ @.`.`.O.| l t #                                 ",
"                            . & 1 m ^ #.).|.|.+.+.|.|._.O.%.m q = X                                 ",
"                                + r h ] #.XX$X'.'.+XOX$.] h y #                                     ",
"                                X % < j %.{.oX[.].oX}.%.h 1 & o                                     ",
"                                    # r m X.(.(.(.8 O.B t &                                         ",
"                                    o % > 2 $ $ $ $ 2 > * O                                         ",
"                                                                                                    ",
"                                                                                                    ",
"                                                                                                    ",
"                                                                                                    "
};
