/* XPM */
static char *_642232347204[] = {
/* columns rows colors chars-per-pixel */
"50 50 223 2 ",
"   c #000000",
".  c #0A0100",
"X  c #010B00",
"o  c #120200",
"O  c #1B0500",
"+  c #021700",
"@  c #240700",
"#  c #360E00",
"$  c #361000",
"%  c #3C1100",
"&  c #042001",
"*  c #441501",
"=  c #4B1501",
"-  c #4D1901",
";  c #561A01",
":  c #541C01",
">  c #5E2101",
",  c #642201",
"<  c #6B2601",
"1  c #6F2801",
"2  c #772602",
"3  c #782702",
"4  c #762902",
"5  c #792B02",
"6  c #7C3203",
"7  c #7D3A02",
"8  c #5D3733",
"9  c #66382E",
"0  c #6A3B31",
"q  c #515151",
"w  c #7A5D5B",
"e  c #74635F",
"r  c #6A6A6A",
"t  c #786C6A",
"y  c #7A7777",
"u  c #822C02",
"i  c #8C2D02",
"p  c #853202",
"a  c #8C3302",
"s  c #8D3902",
"d  c #923403",
"f  c #963803",
"g  c #9A3A03",
"h  c #8E3913",
"j  c #A43E03",
"k  c #944008",
"l  c #A74104",
"z  c #AB4204",
"x  c #B74604",
"c  c #BB4A05",
"v  c #A85106",
"b  c #BD5305",
"n  c #B75408",
"m  c #A34A1E",
"M  c #BB4D19",
"N  c #BB5518",
"B  c #BD6B05",
"V  c #A6641B",
"C  c #BD6415",
"Z  c #98472E",
"A  c #9E5925",
"S  c #9A4934",
"D  c #9D533E",
"F  c #A45626",
"G  c #AC5932",
"H  c #A66823",
"J  c #A9702B",
"K  c #BA6034",
"L  c #C54D05",
"P  c #C94F05",
"I  c #C55706",
"U  c #CE5406",
"Y  c #C85A08",
"T  c #D35306",
"R  c #DE5A07",
"E  c #D85908",
"W  c #C04C11",
"Q  c #C15317",
"!  c #E25B08",
"~  c #C56306",
"^  c #CA6607",
"/  c #D96409",
"(  c #C67409",
")  c #D27E07",
"_  c #CF7314",
"`  c #DC7819",
"'  c #E56909",
"]  c #E6770B",
"[  c #E47C09",
"{  c #EC7B0B",
"}  c #E67717",
"|  c #EB7D13",
" . c #D76B2B",
".. c #DD7D23",
"X. c #DB7138",
"o. c #E37C20",
"O. c #E17834",
"+. c #8B554E",
"@. c #A75746",
"#. c #87645A",
"$. c #A7604A",
"%. c #BC6D54",
"&. c #8B6866",
"*. c #976B65",
"=. c #8C716B",
"-. c #99716A",
";. c #837A79",
":. c #9B7A75",
">. c #A37D77",
",. c #D36E48",
"<. c #D57E4C",
"1. c #C16D50",
"2. c #BE833E",
"3. c #D98608",
"4. c #DA8716",
"5. c #DC9412",
"6. c #E78209",
"7. c #EC830B",
"8. c #E88808",
"9. c #F2870B",
"0. c #EC9C0B",
"q. c #F99C09",
"w. c #ED851C",
"e. c #F59D11",
"r. c #F89E11",
"t. c #F59B1C",
"y. c #D4A708",
"u. c #E9A608",
"i. c #EEAC0A",
"p. c #F2AE0E",
"a. c #FAA411",
"s. c #F9A513",
"d. c #F5A01C",
"f. c #F1BC15",
"g. c #D39232",
"h. c #E78B27",
"j. c #EB9324",
"k. c #EC9927",
"l. c #EC9735",
"z. c #D9B02B",
"x. c #EEA327",
"c. c #F3A72A",
"v. c #F4AD2C",
"b. c #F6B925",
"n. c #FDBC2E",
"m. c #F1A832",
"M. c #F3B437",
"N. c #FBBA33",
"B. c #F6BD3B",
"V. c #DAC80A",
"C. c #DECA11",
"Z. c #F4C70B",
"A. c #EED20A",
"S. c #F8C618",
"D. c #F9D518",
"F. c #F9E30A",
"G. c #FAED0B",
"H. c #FDF40F",
"J. c #FAE815",
"K. c #FEFA13",
"L. c #FEFB1D",
"P. c #FBC728",
"I. c #FBDE2C",
"U. c #FAC73C",
"Y. c #FCD634",
"T. c #FDDA3B",
"R. c #FCE927",
"E. c #FFF824",
"W. c #FFE839",
"Q. c #FFF034",
"!. c #BE8B4F",
"~. c #97806A",
"^. c #93837F",
"/. c #A78D6D",
"(. c #A18C75",
"). c #BD8B7B",
"_. c #C68D49",
"`. c #CC964D",
"'. c #D49E57",
"]. c #CB936B",
"[. c #C98D70",
"{. c #D4A071",
"}. c #FECE41",
"|. c #FED648",
" X c #FEE242",
".X c #878483",
"XX c #8D8C8C",
"oX c #908A85",
"OX c #958C8A",
"+X c #949393",
"@X c #9A9999",
"#X c #A88885",
"$X c #B38F8B",
"%X c #A39A99",
"&X c #B69794",
"*X c #BBA790",
"=X c #A4A4A5",
"-X c #ABA6A3",
";X c #ABABAB",
":X c #B6ACA9",
">X c #B5B5B5",
",X c #BBB4B3",
"<X c #BABBBA",
"1X c #C59C92",
"2X c #C9A29C",
"3X c #E7B29C",
"4X c #C4A5A2",
"5X c #BEC0BF",
"6X c #C5C5C6",
"7X c #CCCCCC",
"8X c #D2CECE",
"9X c #D3D3D3",
"0X c #DBD6D6",
"qX c #DCD9D7",
"wX c #DCDCDC",
"eX c #E3DDDB",
"rX c #DFE0E0",
"tX c #E4E4E4",
"yX c #E9E8E7",
"uX c #EBECEB",
"iX c #F2F0F0",
"pX c #F4F4F4",
"aX c #FEFEFE",
/* pixels */
"                                                                                                    ",
"                                                                                                    ",
"                                                                                                    ",
"                                                                                                    ",
"                                                                                                    ",
"                                              * i i ;                                               ",
"                                          O # 7 ~ ~ s % O                                           ",
"                                          % i B i.i.( d =                                           ",
"                                      O % 5 I 8.F.F.0.Y p * @ % : * @ * : % .                       ",
"                                      # a b [ a.F.G.p.[ I s - 5 z u : s z 5 O                       ",
"                              . * , , p b ] t.S.H.H.P.t.{ I s z T j > g c p O   $                   ",
"                              @ u x c I [ t.N.T.E.E.I.N.d.[ Y T E l = , 5 : .   <                   ",
"                          . = 5 N ..} { t.n.U. XE.E. X}.n.d.| } o.C 6 - O       <                   ",
"                      .   O 3 n h.B.v.d.N.}.}. XE.E. X|.}.N.d.v.B.h.Q p @       %                   ",
"                    * 1 1 * i E x.T.T.P.M.U.T.Q.E.E.Q.T.U.N.P.Y.T.v./ f * , 5 -                     ",
"                    4 x z 1 a / p.R.W.U.m.j.D.L.K.K.L.D.j.l.U.W.E.f./ g , l c 5                     ",
"                    5 P U l c ] Z.H.R.M.o.^ y.C.V.V.V.y.^ ` M.I.H.Z.8.b j P U p =                   ",
"                    5 L R T ] e.D.G.Z.} Q m F J J J J F m Q ` f.G.D.a.6./ R U p 1                   ",
"                    5 U ! ! h.n.P.Z.5.N @.*.$X4X4X1X#X-.-.@.M 3.Z.P.P.b.i.[ U u 5                   ",
"                    3 L ! ' k.B.m.} n G :.-X0XiXpXyX8X,X-X~.D N ` m.U.R.F.u.U u 3                   ",
"                    5 L [ i.f.m.4.M @.:.:X0XpXaXaXaXuX9X<X%X:.@.M ..m.R.H.i.T u 3                   ",
"                    2 U 0.F.A.6.W D -.-X9XpXaXaXaXaXaXuX7X>X%X:.S M ` Z.G.i.U u 3                   ",
"                    2 L 0.G.A.( Z #.OX,X8XtXpXaXaXaXaXiX8X>X=X.X#.S ( C.G.i.U u 3                   ",
"                    2 L e.J.C.V +.=.=X6X8X9XiXaXaXaXaXuX9X5X-X+Xy +.A y.J.i.U u 5                   ",
"                    3 P j.Y.z.H #.+X6XyXuXuXpXaXaXpXtXrXtXwX5X=X+X#.F z.I.k.U u 5                   ",
"                    4 P h.B.z.F &.@X5XrXuXiXaXaXaXuXwXwXuX0X<X=X@X*.F g.B.k.U u 5                   ",
"                    2 P | c.5.F *.OX+XXX;X7XuXpXtXwXuXtX6X=Xy .X+X-.F 4.c.w.U u 4                   ",
"                    4 L { q.3.F >.:XXXq r +X9XtX8X7XtX9X=Xr q .X;X#XS ) e.7.U u 5                   ",
"                    4 P { e.3.G &X0X,Xr q r ;X7X<X>X7X>Xr q r ;X0X4XG ) r.{ U p 5                   ",
"                    3 I { q.8.Q 1X0X8X;X+X+X>X<X=X@X>X>X@X+X;X6XqX4XK 3.r.{ U u 4                   ",
"                    2 P ] q.q. .>.:X8XtXtXrX9X<XXXXX>X7XrXtXtX9X,X[. .8.r.7.U u 4                   ",
"                    3 P { r.q.w.<.[.:X7XrXuXtX7X;X;X7XrXuXrX7X,X).<.w.q.r.{ T u ,                   ",
"                    4 L ] e.a.a.j.X.@.=.=X7XyXuX7X7XuXuX9X-Xy $.X.h.e.a.a.{ U u @                   ",
"                +   ; g ~ 7.r.a.q.8.v 0 t =XrXiX6X5XuXtX-Xt 0 v 3.q.a.q.7.~ g ,                     ",
"                & X O = s E { r.a.e.( Z 8 t 5XeX:X-XrX9Xy 8 Z C e.a.a.7.E z - @                     ",
"                +       p T ' 9.q.a.( k 9 w 2X3X{.'.3X2Xt 8 h ( a.a.9.' T s .                       ",
"                X     . 5 P R ' 9.a._ A w =.%.O.j.j.X.1.=.e S _ e.9.' R I u O                       ",
"                        : s x R 7.d.2.#.;.oX@.c B ~ c G ^.;.w g.d.9.R L f , o                       ",
"                          # i P [ t._.-.oXOX*.D Z Z @.*.OXOX:._.k.8.U f %                           ",
"                            ; s Y [ j.`./.oX%X%X=.=.OX%XOX(._.g.} ~ s >                             ",
"                              $ s I { k._.(.-X;X+XXX;X;X(.!.k.7.E g *                               ",
"                                - a I [ h.'.*X=X@X@X=X*X'.h.} ^ s ; o                               ",
"                X X               % d Y [ l.].).$X$X$X[.l.7.Y g *                                   ",
"                + X               o - p I } X.,.,.,.,.X.o.~ s ; O                                   ",
"                & X                   % f c L L c L c L c g -                                       ",
"                                                                                                    ",
"                                                                                                    ",
"                                                                                                    ",
"                                                                                                    ",
"                                                                                                    "
};
