/* XPM */
static char *_642232394812[] = {
/* columns rows colors chars-per-pixel */
"50 50 121 2 ",
"   c #000000",
".  c #070608",
"X  c #080708",
"o  c #06090C",
"O  c #0A090A",
"+  c #0E0D10",
"@  c #110F12",
"#  c #0E1012",
"$  c #131214",
"%  c #1D1517",
"&  c #171519",
"*  c #19161B",
"=  c #1C1A1D",
"-  c #221715",
";  c #2A1E15",
":  c #251C1A",
">  c #3D290F",
",  c #2C2116",
"<  c #2B221A",
"1  c #342415",
"2  c #3B2613",
"3  c #3D2A13",
"4  c #34261C",
"5  c #37291A",
"6  c #3D2B1B",
"7  c #3F301D",
"8  c #1F1D21",
"9  c #211E24",
"0  c #242226",
"q  c #2B2421",
"w  c #262428",
"e  c #29252A",
"r  c #2B292D",
"t  c #302721",
"y  c #372A20",
"u  c #3F2F20",
"i  c #2F2D31",
"p  c #312F32",
"a  c #343235",
"s  c #363539",
"d  c #39363A",
"f  c #3B3A3C",
"g  c #57370E",
"h  c #432E14",
"j  c #412C1F",
"k  c #453216",
"l  c #4C3110",
"z  c #4D3917",
"x  c #44331B",
"c  c #4A351D",
"v  c #563C14",
"b  c #5B3E15",
"n  c #543B1A",
"m  c #5A3F1A",
"M  c #613F10",
"N  c #412D21",
"B  c #453125",
"V  c #493623",
"C  c #493824",
"Z  c #46332B",
"A  c #49352C",
"S  c #45392F",
"D  c #49392E",
"F  c #563F27",
"G  c #4B3B32",
"H  c #403A3C",
"J  c #5F4115",
"K  c #5E4119",
"L  c #65410D",
"P  c #6A450D",
"I  c #6E480E",
"U  c #764B07",
"Y  c #7D4E05",
"T  c #744B0C",
"R  c #7A4E0A",
"E  c #7F5006",
"W  c #7D500A",
"Q  c #654312",
"!  c #6A4513",
"~  c #6E4A12",
"^  c #634319",
"/  c #69441A",
"(  c #6C481A",
")  c #734C11",
"_  c #5F4520",
"`  c #524337",
"'  c #594734",
"]  c #544639",
"[  c #624623",
"{  c #6E4C21",
"}  c #3E3B40",
"|  c #413F42",
" . c #444344",
".. c #474448",
"X. c #49464A",
"o. c #474849",
"O. c #4C4B4D",
"+. c #504944",
"@. c #574F4D",
"#. c #4F4E50",
"$. c #504E51",
"%. c #535254",
"&. c #575658",
"*. c #585759",
"=. c #5C5B5C",
"-. c #5F5F60",
";. c #605F61",
":. c #646464",
">. c #676768",
",. c #6D6C6D",
"<. c #737374",
"1. c #777778",
"2. c #7A7A7A",
"3. c #845206",
"4. c #8A5606",
"5. c #8E5806",
"6. c #845309",
"7. c #7F7F80",
"8. c #807E80",
"9. c #828182",
"0. c #888889",
/* pixels */
"            O                                           &                                           ",
"                                      f } ` | | s                                                   ",
"                                  | O.%.*.-.;.=.$. .                                                ",
"                              ..$.*.=.:.,.,.<.>.=.%.O.X.X. .                                        ",
"                            #.:.,.<.,.,.<.<.<.,.=.=.;.,.,.;...                    * &               ",
"                         .#.=.:.<.,.:.-.:.:.:.=.%.$.:.,.<.,.*.X.0       : Z Z B 4 ; - *             ",
"                       .*.:.:.:.*.$. .f f f f d a f X.*.:.,.,.:.$.H S V n ^ / / n h ; % *           ",
"                    X.*.:.:.=.#.| r = $ @ @ O $ & 9 p | #.=.>.;.@.G F m ! ) 3.R P M l 2 -           ",
"                  X.>.,.:.%.| i q = & $ O o . X + & 0 r a f ..+.' [ ( ) Y 6.4.4.6.U P g 1           ",
"                  %.2.2.:...r $ $ @ @ O O O X X O @ & = 8 0 i S _ ~ R 6.6.4.5.5.4.3.3.M 6           ",
"                  &.8.9.-.f 0 $ O O O O O O X X O O $ $ * 0 i S / R Y Y 3.4.4.5.4.3.Y / D           ",
"                X *.2.2.*.a = $ O O X X X X . X X O O $ & 8 i D ( Y Y 3.3.4.5.5.4.3.Y { G           ",
"                . %.,.,.O.r * O O X X X X . . X O O O O # 8 0 Z ( 3.Y 3.3.4.5.5.4.3.3.M D           ",
"                  #.>.:. .w & O O O . . X X X X o O O + O & 8 u / R Y 3.3.4.5.5.5.3.6./ B           ",
"                X O.>.:.` 8 # o . . . . X X X X O O O O O # = 7 M R Y 3.3.4.5.5.4.3.Y M 6           ",
"            .   . %.<.,. .8 o o .   . . X O   X X X O O O # * 5 b ! U 3.3.4.5.5.4.3.3.M 2           ",
"                O =.9.7.O.& O o . . . . X X X X X X X O O # & , 7 J I E 3.4.5.5.4.3.E L 2           ",
"                o :.0.9.O.& .   . . . . X X X X X X O X O O $ , 7 J I E 3.4.5.5.4.3.E L 2           ",
"                  =.9.9.O.& . . X X X X O O X X   X X X O o $ 5 J Q R E 3.4.5.5.4.3.Y L 2           ",
"                  %.2.1.+.$   . X O O X O O X X X X X X O o # > L T E 3.3.4.5.5.4.3.Y L 6           ",
"                  O.1.<. .# . . O O O O O O X X . . X X X o O > L R E E 6.4.5.5.4.4.Y M j           ",
"                  $.1.1.] $ . . X O O O O O O X . . . X X o # > P W E E 6.4.5.5.4.3.3.! j           ",
"                  %.7.2.O.$ X O O O O O O O O X .   . . X X # > P W E 3.6.4.5.5.4.4.Y Q B           ",
"                  %.9.2.O.& O O O O O O O O O X X . . X X o $ > P E E E 3.4.5.5.4.3.Y Q D           ",
"                  #.<.,. .* O O O O O X O X X X . . . . . o # > P W E E 4.4.4.4.4.6.Y / G           ",
"                  %.<.,. .& O O O O O O X O O O X . . X X o $ 3 P W W E 3.6.4.6.R R T / D           ",
"                  %.1.<.o.* O O X O X X O O O X X . . X X o $ 3 P W E E 6.3.6.W ~ P U M D           ",
"                X *.1.1.o.= # O O O O X X o O X X . .   X o $ 3 P E E 3.3.4.W I Q Q I / D           ",
"                X %.2.1.O.8 # O O O O X X X X X X . .   X o # 3 P W E E 4.W I L L L I ! A           ",
"                O %.2.<.O.< # O O X O X X o X o X X . . X o $ 3 P W E E 6.W I J Q P T / Z           ",
"                O =.<.<.O.0 $ O O O X O X X X X X . . . o o & 6 J T E E 6.E T P P I T Q Z           ",
"                O =.1.1.#.r & # O O O X X X X X X . . X O + * 5 v Q T E 4.6.W T T T U Q Z           ",
"                O =.9.8.=.a 9 @ O O O O O X X X . X . . O @ 8 9 j n ~ 3.3.4.4.6.6.3.Y Q N           ",
"                  =.9.8.=.d 9 $ $ O O O O X X X   X . . o @ 8 9 x n ! Y 3.4.4.5.4.3.Y P N           ",
"                  %.1.<.%.} e : & # O # O O X X . X . X + + = y n ! T 3.3.4.5.5.4.4.Y L 6           ",
"                  $.,.<.%.d r 9 8 * & # @ + O O O + @ @ $ * 8 6 Q T Y 3.3.4.5.5.4.3.Y M 2           ",
"                  O.,.,.%.} i e w w 0 8 8 & & * % 9 = 9 9 9 w V / R E E 3.4.5.5.4.3.3.L 2           ",
"                  X.,.<.*.| } } s f f s s d ` ..| d s s s s a D ( Y E 3.3.4.5.5.4.3.Y M 2           ",
"                  #.<.1.>.*.$.$.#.%.&.&.&.-.,.,.:.=.%.@.#.O.o.] { W E E 3.4.5.5.4.3.Y M 2           ",
"                  O.<.2.,.;.,.,.,.,.,.,.<.<.1.2.<.:.-.*.&.#.o.] { W E 3.3.4.5.5.5.3.Y L 6           ",
"                  O.,.1.,.<.1.9.9.9.9.9.2.2.,.:.:.-.=.&.#.o...] { W E E 6.4.5.5.4.3.3.M N           ",
"                  ..:.>.:.>.<.2.2.2.1.1.1.,.=.#.#.#.%.#. .} f G [ I U E 6.4.5.5.5.3.3.P N           ",
"                    ..O...X.O.$.%.#.$.#.O.O.| f f f f H         C K ! R 6.4.4.5.4.3.3.M j           ",
"                                                                  x K ! T W 4.4.4.3.Y M 6           ",
"                                                                  < u c K ! ) 6.6.6.Y L 2           ",
"                                                                    = t 6 n J ~ ) R T L 2           ",
"                                                                        < < 6 x m ^ ^ v 1           ",
"                                                                              < 6 x z k ,           ",
"                                                                                  ; , ;             ",
"                                                                                                    "
};
