/* XPM */
static char *_642232403203[] = {
/* columns rows colors chars-per-pixel */
"50 50 126 2 ",
"   c #000000",
".  c #080500",
"X  c #0D0900",
"o  c #060408",
"O  c #080708",
"+  c #0A090A",
"@  c #0E0A10",
"#  c #110D15",
"$  c #211604",
"%  c #221A15",
"&  c #2D200F",
"*  c #382405",
"=  c #31200A",
"-  c #3B290E",
";  c #29201D",
":  c #322314",
">  c #3E2B10",
",  c #392A1D",
"<  c #1F1D20",
"1  c #201D21",
"2  c #262326",
"3  c #2D2B2E",
"4  c #322F2E",
"5  c #36312D",
"6  c #3E352C",
"7  c #302E31",
"8  c #353433",
"9  c #393735",
"0  c #3B3A36",
"q  c #373238",
"w  c #3A373C",
"e  c #3C3A3C",
"r  c #472D02",
"t  c #482E06",
"y  c #492F09",
"u  c #4C3106",
"i  c #4D330D",
"p  c #553606",
"a  c #5D3B05",
"s  c #563708",
"d  c #57390B",
"f  c #412C11",
"g  c #4C3313",
"h  c #44301B",
"j  c #573D12",
"k  c #5A3F14",
"l  c #50391D",
"z  c #593F1D",
"x  c #623D05",
"c  c #613E0A",
"v  c #463522",
"b  c #4A3722",
"n  c #4D3A24",
"m  c #413529",
"M  c #453B2D",
"N  c #4C3E2C",
"B  c #523C23",
"V  c #533F2C",
"C  c #433D35",
"Z  c #4C3F30",
"A  c #403E3B",
"S  c #5D4214",
"D  c #5C411B",
"F  c #664006",
"G  c #6D4505",
"H  c #69470F",
"J  c #6E490E",
"K  c #734705",
"L  c #754A05",
"P  c #7C4E04",
"I  c #744C0D",
"U  c #794F0C",
"Y  c #7D510B",
"T  c #634413",
"R  c #6D4719",
"E  c #774D15",
"W  c #7A4F12",
"Q  c #754C18",
"!  c #7E5112",
"~  c #4D412F",
"^  c #5C4121",
"/  c #54412B",
"(  c #4D4134",
")  c #44413D",
"_  c #4A433C",
"`  c #544535",
"'  c #52453A",
"]  c #654421",
"[  c #6A4821",
"{  c #3F3D40",
"}  c #413E42",
"|  c #444244",
" . c #4B4743",
".. c #4D4945",
"X. c #474548",
"o. c #49464A",
"O. c #4C4B4C",
"+. c #504B44",
"@. c #524F4D",
"#. c #55504C",
"$. c #5A524C",
"%. c #4F4E50",
"&. c #514F51",
"*. c #545354",
"=. c #5C5955",
"-. c #575658",
";. c #585759",
":. c #5B5A5B",
">. c #615E5B",
",. c #65625E",
"<. c #5F5F60",
"1. c #646464",
"2. c #666668",
"3. c #686768",
"4. c #6B6B6B",
"5. c #706F6E",
"6. c #6F6E70",
"7. c #747374",
"8. c #7A7A7B",
"9. c #825104",
"0. c #8B5607",
"q. c #8E5807",
"w. c #84540A",
"e. c #885509",
"r. c #905906",
"t. c #818181",
/* pixels */
"      # # # + o                                                                                     ",
"      @                           3 q { | } e w w 7                                                 ",
"                              3 { X.X.%.:.:.*.O.O.X.7                                               ",
"                            X.&.;.-.%.-.1.1.*.*.<.<.*.o.{ 1                                         ",
"                          X.2.7.7.2.*.O.;.;.@.*.4.7.7.5.*.} 2                                       ",
"                      { %.<.6.7.4.<.O.) +.+.) +.,.5.7.7.3.:.X.w                                     ",
"                    { &.4.6.>.&. .C m v n n b M ( +.*.1.7.7.1.%.w                                   ",
"                  { O.<.4.2.O.6 h i d a x x x a s l N @.3.7.4.:.|                                   ",
"                q O.1.2.;.| m g c L P 9.9.9.9.9.9.I k n | ;.4.3.O.7                                 ",
"                { *.3.1.) , p c P 9.0.r.r.0.w.w.0.9.K a f Z 1.4.*.e                                 ",
"              O 8 *.1.:.C g G 9.0.0.r.q.r.e.U U 0.0.e.K p ` >.1.*.}                                 ",
"                3 *.;.#.N x 9.q.r.0.w.e.0.w.W U e.r.r.9.G V $.-.&.|                                 ",
"              o e O.o._ ^ L 0.r.r.e.U U e.q.w.w.0.r.r.0.P [ '  .O.|                                 ",
"              . { o.) ~ R 9.0.r.r.0.W U w.q.e.e.r.r.r.0.0.E V A X.|                                 ",
"            o o | o.0 n E 0.q.r.q.0.w.w.q.e.U U 0.q.q.r.r.W B 0 X.|                                 ",
"                | o.w n ! r.r.r.r.q.0.0.q.w.I I w.q.e.0.q.W B C X.|                                 ",
"                w O.0 / ! r.r.q.r.q.q.q.q.w.I U w.w.Y U e.! D 0 ..X.                                ",
"              O | O.0 l ! q.q.0.q.q.q.q.q.e.I I w.q.Y P e.! ^ C ..X.                                ",
"                | | 8 / ! 0.e.e.0.0.q.q.q.w.I I w.e.w.w.q.! D 0 | e                                 ",
"                { { 8 n ! w.u Y Y w.w.q.q.w.I I w.q.r.r.q.Y D M ) e                                 ",
"              O | } 8 ~ W Y X u T E Y 0.q.e.J J w.q.r.r.q.Y D M ) |                                 ",
"                } } 8 g W p   & j T U e.q.w.J J w.r.r.r.q.w.S ~ ..X.o                               ",
"                | | 8 l E u   * j T I w.q.w.I I e.q.q.r.r.Y T ~ ..o.o                               ",
"                | | 8 n ! * . S S T I w.q.w.I I e.q.e.e.q.w.S ~ +.o.o                               ",
"                } | 5 l ! u $ S S H I Y 0.w.I I w.w.I I 0.Y T N  .|                                 ",
"                | | 8 l Y e.I J J I I Y 0.q.Y Y Y Y H J w.w.T N  .|                                 ",
"                o.X.0 l ! q.w.w.e.Y Y Y w.q.w.w.Y I H I e.Y S Z ..|                                 ",
"              o o.o.9 n ! q.q.q.q.e.I Y 0.q.q.e.Y I J I e.w.D Z ..X.                                ",
"              O o.o.0 B Y r.r.r.r.e.I U e.0.w.Y w.Y I I w.Y D C ..X.                                ",
"              O X.O.0 B ! r.r.r.r.q.Y Y e.e.Y I w.w.U Y e.! z C o.o.                                ",
"              o O.%.e n ! r.r.r.q.q.e.e.q.e.Y I Y e.w.q.q.w.B C O.O.                                ",
"                O.*.| / Q 0.q.r.q.q.q.q.q.0.Y U w.0.q.q.w.E / ) O.X.                                ",
"                O.*.o.' ] L 0.q.q.q.q.e.q.q.e.w.q.q.q.e.L T ' X.%.|                                 ",
"                o.*.@...B x P 0.q.q.e.q.0.q.0.0.0.q.0.P F / ..%.O.}                                 ",
"                | &.*.O.m y x L q.q.q.q.q.r.r.r.q.9.L F t 6 ..*.O.}                                 ",
"                } %.*.@.5 : y a L P P P 9.P 9.P P K a r = 5 O.-.O.}                                 ",
"                e O.:.*.w ; : > u d S F F F a S d i - & % 8 *.:.%.0                                 ",
"                0 %.<.:.X.8 4 5 5 ~ ~ ( ' ` ~ ( M 6 5 3 4 ) :.<.&.e                                 ",
"                w *.3.3.:.O.o.O.@.*.=.,.1.,.>.=.*.#.O.O.%.-.2.1.*.e                                 ",
"                } *.3.4.4.3.3.4.4.5.5.6.7.6.6.5.5.4.4.4.4.4.5.2.*.}                                 ",
"                o.;.1.3.7.8.t.t.t.t.t.8.7.7.8.t.t.t.t.t.8.7.4.1.:.X.                                ",
"                | *.:.:.4.7.8.8.8.8.7.7.3.4.6.8.8.8.8.8.7.4.1.-.*.|                                 ",
"                < { | X.O.O.*.*.*.O.%.O.O.%.*.-.;.:.:.-.-.*.O.X.} 2                                 ",
"                                        O o   . O + O . o   . o                                     ",
"                                                                                                    ",
"                                                                                                    ",
"                                                                                                    ",
"                                                                                                    ",
"                                                                                                    ",
"                                                                                                    "
};
