/* XPM */
static char *_642232440216[] = {
/* columns rows colors chars-per-pixel */
"50 50 124 2 ",
"   c #000000",
".  c #0A0200",
"X  c #140300",
"o  c #1C0400",
"O  c #130C00",
"+  c #1B1200",
"@  c #250600",
"#  c #2B0701",
"$  c #270801",
"%  c #2E0A01",
"&  c #330C01",
"*  c #390F01",
"=  c #3E1101",
"-  c #3E2900",
";  c #441302",
":  c #4C1602",
">  c #551A03",
",  c #5D1D03",
"<  c #631E03",
"1  c #402F01",
"2  c #5E2802",
"3  c #4F3A01",
"4  c #523B01",
"5  c #583E01",
"6  c #642104",
"7  c #6C2304",
"8  c #732605",
"9  c #762805",
"0  c #7B2906",
"q  c #673C02",
"w  c #703F03",
"e  c #574001",
"r  c #5C4401",
"t  c #5F4801",
"y  c #644C01",
"u  c #6D4F01",
"i  c #774004",
"p  c #6B5101",
"a  c #745402",
"s  c #7B5D02",
"d  c #822D06",
"f  c #882E07",
"g  c #8E3207",
"h  c #803A05",
"j  c #8C3108",
"k  c #943408",
"l  c #9A3609",
"z  c #9E380A",
"x  c #A43A0A",
"c  c #AB3D0B",
"v  c #B13F0C",
"b  c #9E5307",
"n  c #AD430B",
"m  c #A84C0A",
"M  c #B3410D",
"N  c #BB440E",
"B  c #B04D0B",
"V  c #8D6B02",
"C  c #906D03",
"Z  c #BA7C07",
"A  c #C2460F",
"S  c #C5490F",
"D  c #C8540F",
"F  c #CB580E",
"G  c #C74910",
"H  c #CC4B10",
"J  c #D34E11",
"K  c #D75012",
"L  c #DE5313",
"P  c #DF5B12",
"I  c #E35513",
"U  c #EA5714",
"Y  c #E35B13",
"T  c #ED5814",
"R  c #F45B15",
"E  c #FC5D16",
"W  c #D16F0C",
"Q  c #E46312",
"!  c #E86313",
"~  c #E56B12",
"^  c #EB6B12",
"/  c #F36014",
"(  c #FC6215",
")  c #F56914",
"_  c #FC6C14",
"`  c #E77411",
"'  c #EF7612",
"]  c #EB7F10",
"[  c #F07213",
"{  c #FC7413",
"}  c #FB7B13",
"|  c #B28604",
" . c #B58A04",
".. c #BA8E05",
"X. c #BD9205",
"o. c #C58507",
"O. c #C48A07",
"+. c #D5860B",
"@. c #D38A0A",
"#. c #DD8C0C",
"$. c #C29405",
"%. c #CD9B06",
"&. c #EB840F",
"*. c #EC8E0E",
"=. c #F28F0F",
"-. c #F1940E",
";. c #FB930F",
":. c #F49E0D",
">. c #FD9B0E",
",. c #ED8210",
"<. c #F28210",
"1. c #FC8212",
"2. c #FD8A11",
"3. c #D6A307",
"4. c #F6A30C",
"5. c #FDA30E",
"6. c #FCAC0D",
"7. c #EDB608",
"8. c #EFB808",
"9. c #F4B40A",
"0. c #FBB30B",
"q. c #F4BC09",
"w. c #FCBE0A",
"e. c #FDC209",
/* pixels */
"                                      . o & , g x M M M M z 8 ; $ # & & # $ X                       ",
"                                    . & 0 c H J K K K K K K H N x z x x x d , & X .                 ",
"                                    , x H J L L I L L I L I I K K K K K J J G v d *                 ",
"                                  8 M J I L L L I L L L L L L I L L L L L L I K H c 7 .             ",
"                                > M K L L I I I I U U U I I L L L I L L I L L L I J N 0             ",
"                              & x J I L L I U R R R E E E R T I I U U U I I L L L I L N 7           ",
"                            . 0 H L L L I U R E E E E E E E E R E R R E R T T I L L L K c >         ",
"                            = M K L L I U E E E E E E E E E E E E E E E E E E T I I L L J l o       ",
"                1 s C a 2 7 j D I L L I R E E E E E E E E E E E E E E E E ( { 1.[ I L I L N , .     ",
"                u %.q.3.W F K K L L I R E E E E E E E E E E E E E E E ( _ 1.5.w.5.^ I L L J k .     ",
"                q o.w.e.0.*.~ I L L U E E E E E E E E E E E E E E E E { ;.w.w.e.;.) I I I K M o     ",
"              % f W 0.e.e.w.:.` I I R E E E E E E E E R E E E E E ( { 5.w.e.e.0.} ( U L L I A ; .   ",
"            X 0 A Y &.w.e.e.w.4.' / E E E E E R U I I I T R R R E } 6.w.e.e.w.2.( E T I L L G < X   ",
"            8 N L L Q :.e.e.e.e.6.1.( E E E T I L S N H L I L Y ] 6.w.e.e.w.>._ E E T I L I H 7 X   ",
"          ; x K L L L ^ 5.w.e.e.e.0.2.( ( R I K G 8 > 6 j c B *.0.e.e.e.e.5.{ ( E E R I L L G 7 .   ",
"          f H L L I I R } 6.e.e.e.e.0.2.( U L K l &     & i O.q.e.e.e.e.6.} ( E E E T L L L G , X   ",
"        % c L L L I R E ( 1.0.e.e.e.e.0.=.Y L G > X     3 ..7.e.e.e.e.6.1.( E E E E T I I L H k X   ",
"        6 N L L I U E E E ( 2.0.e.e.e.e.0.*.D d X     e ..8.e.e.e.e.9.,.T E E E E E R I L L L G 7 X ",
"        0 H L I I T E E E E ( 2.0.e.e.w.e.q.@.e   . y ..q.e.q.e.e.9.#.I R E E E E E E U I L L K c & ",
"        l H L L I R E E E E E R -.0.e.q.q.e.8. .y y ..q.e.q.e.e.9...m I T ( E E E E E R I I L L H 7 ",
"    o 7 N K L L I R E E E E E U P #.q.e.q.w.e.8...X.q.e.q.q.e.8. .4 d K U E E E E E E E R I L I L x ",
"  X 8 N K I I L U E E E E E R I D b X.q.e.q.q.e.e.e.e.q.e.e.q...4   , N I R E E E E E E E U L L K A ",
". : M L L L I I R E E E E E R I H 9 y X.q.e.e.e.e.e.e.q.e.q.X.y     % f J I R E E E E E R T L L L J ",
"% k K L L L I T E E E E E E U I v ,   u $.e.e.8.7.7.8.e.e.X.t .       : x L R E E E E E E R I L L L ",
", G L L L I T E E E E E E U I K k $   + V 3.e.8.7.7.e.e.3.s O         % d L R E E E E E E R L I L L ",
"g K L I I T E E E E E E T I I v 6     y X.e.e.e.7.7.8.e.8. .e         ; z L R E E E E E E R L L L L ",
"M K I L I R E E E E E E U L S 9 @   t X.e.e.e.8.e.e.e.e.e.8. .3     & f J I E E E E E E E T L L L G ",
"D I L L T E E E E E E R L G d &   e ..8.e.e.e.e.e.e.e.8.e.e.8. .3 . 7 G L T E E E E E E R I L L K N ",
"L L I L R E E E E E E R L x ;   3 ..8.e.e.q.e.q.$.$.8.e.e.e.e.7.| 5 z K T E E E E E E E T I L L J k ",
"L L L L R E E E E E E E I c : -  .8.e.q.e.e.8.X.y y X.e.e.8.e.e.7.o.H I R E E E E E E R U L L L G < ",
"L L L L R E E E E E E E U J n Z 7.e.e.w.e.8.X.y O . p X.7.e.e.e.e.9.,.T E E E E E E R T L L I J z $ ",
"J L I L T E E E E E E E E U ] 9.e.q.e.e.7...r         y X.7.e.e.e.e.6.] E E E E E R T L L I K N > X ",
"A K I L U R E E E E E E ( } 6.e.e.e.e.7...4             y ..7.e.e.e.e.0.} ( E E E E I L L K N 0 X   ",
"x K L L I R E E E E E ( { 6.e.e.e.e.0.+.h       $ : < < < w O.9.e.e.e.w.6.{ ( E E T I L L J j .     ",
"9 J L I L T E E E E E _ 5.e.e.e.w.0.*.L c ; = > d x N N N v B +.0.e.e.e.w.5._ E E R I L L G 7 .     ",
"* v K L L L T R E E _ >.w.e.e.e.0.2.R U J x k c K L L L I L I Y ,.0.e.e.e.w.>._ E T I L L G 9 .     ",
"o 7 G L L I L U E ( 2.w.e.e.e.6.1.( E R U K K L I T E R R R T T / 1.6.w.e.e.w.2.( T I L L G 7 .     ",
"  % k J L L L I I [ 0.e.e.w.5.{ ( E E E E E R R R E E E E E E E E ( } >.e.e.e.0.} U L L I N >       ",
"  . ; z J L L L Q =.e.e.0.;._ ( E E E E E E E E E E E E E E E E E E ( { ;.w.w.e.;.! L L L M o       ",
"      ; j G L L ~ :.w.4.] ! E E E E E E E E E E E E E E E E E E E E E E _ 2.6.w.:.~ L L J k         ",
"        * 0 c J P ` ] ~ P L T E E E E E E E E E E E E E E E E E E E E E E ( } <.` Y L L N <         ",
"          X > d z N H L L L I T E E E E E E E E E E E E E E E E E E E E E E T U I L L J k o         ",
"                = 6 k K L L L I T E E E E E E E E E T T T U T R E R R R T T I L L L K c >           ",
"                    : c L L L I I U R E E E E R R U I L L L I I I U U U I L L L L K M 6             ",
"                    o < N L L L L I I U T T T U I L L L L L L L L L L I L I L L K c <               ",
"                      $ 8 N K L L L L L L L L L L I L L L L L L L L L L L L L G x >                 ",
"                        o < v J L L L I I L L L L L L J N N H K K L K K J H v 0 &                   ",
"                          X ; j A J K K K L K L K J N 0 = = 7 k x x x x j , % X                     ",
"                            . $ : d c N G G A N x 0 ; o . . o $ % % % & $ X                         ",
"                                                                                                    "
};
