/* XPM */
static char *_642232448868[] = {
/* columns rows colors chars-per-pixel */
"50 50 52 1 ",
"  c #000000",
". c #0A0200",
"X c #140300",
"o c #1C0500",
"O c #220601",
"+ c #240801",
"@ c #2B0901",
"# c #320D01",
"$ c #3A0F01",
"% c #3D1102",
"& c #441402",
"* c #4B1602",
"= c #4D1903",
"- c #531A03",
"; c #591D04",
": c #601F03",
"> c #5E2005",
", c #622205",
"< c #6C2505",
"1 c #722605",
"2 c #742906",
"3 c #7B2A06",
"4 c #7F2E09",
"5 c #842D07",
"6 c #8D3107",
"7 c #873209",
"8 c #8B3108",
"9 c #943207",
"0 c #953509",
"q c #99370A",
"w c #97380C",
"e c #9D390B",
"r c #A43B0C",
"t c #AC3E0C",
"y c #AE400D",
"u c #B3410D",
"i c #BC440E",
"p c #BA4510",
"a c #C2470F",
"s c #C4480F",
"d c #C9490F",
"f c #C04710",
"g c #C74910",
"h c #CD4C11",
"j c #D24E11",
"k c #D75012",
"l c #DD5213",
"z c #E35514",
"x c #E95714",
"c c #EC5815",
"v c #F45B15",
"b c #FC5D16",
/* pixels */
"                    X&3titt2$X                    ",
"                   X:ulxccxlt;.                   ",
"                  .=uzvbbbbvzt&                   ",
"                  @6lxbbbbbbcl<.                  ",
"                  *izvbbbbbbvzw#                  ",
"                  -hzvbbbbbbbxh-                  ",
"                  -jzvbbbbbbvzk-     O@X          ",
"        O<0wq5+   -slcbbbbbbcza=   @0rte3&        ",
"       o5dxccjw#  #wlzcbbbvczl0@  #rkzllh9#       ",
"       1dvbbvck1X  ;dlzzcxxzli=  @wkzzxlzh5       ",
"      Orcbbbbbzi%  @6jzlzlzzh2X  &jzvvbczlt$      ",
"      &tvbbbbbck&   #2rkllky1@   *kcbbbbcli-      ",
"      &ucbbbbbxk&     %<221*     *kvbbbbvzt-      ",
"      .exbbbbvxw@                &fcbbbbclrX      ",
"       =ucvbvxh;                 X<kvbbvzu=       ",
"        -uklls,X                  X1hllku-.       ",
"        .#*-*%X                    X%===#.        ",
"                                      .           ",
"   .#*=%X                                 #*=&o   ",
" X*10ppr3*                             .=2epft5=X ",
".-tklzzzlu>                            ;pcccccly-.",
"&tzzxvvvczu-                          *ivbbbbvxlt&",
"5kzxvbbbbvz7X                        X8cbbbbbbvxk5",
"ilzvbbbbbbcp-                        -ivbbbbbbbczi",
"jlzbbbbbbbvk<                        <kbbbbbbbbczh",
"jlzbbbbbbbvk<                        1lvbbbbbbbxzh",
"ilzvbbbbbbcg,                        <hcbbbbbbbzli",
"9lzxbbbbbvxe#                        #ezvbbbbbxll9",
"-ilzcvvbvxu;                          <hzcvvcxlla-",
"X<ilzzzzzd2X                          +1ilzlzlla:X",
" X=7hlkjr,#O+o                         X*ejkldr;o ",
"   O*---,esgat;@                         #---=#X  ",
"      #ejklllkku*                                 ",
"     #ellzzlllllp=                   ..           ",
"    X6lkzzxczllzlu@                o=,,>*         ",
"    :alxvbbbvczllk2.              o2hlllp-        ",
"    5lxvbbbbbbczllpo              -jlzxzzt%       ",
"   #qzcbbbbbbbbzzlho             .,lcvvvzh3       ",
"   &rzvbbbbbbbbczlj+    XX       X,lvbbbcj7       ",
"   %rxvbbbbbbbbxllh+ X,wwww1+    .,zbbbbcd2       ",
"   O7zvbbbbbbbbcllpXo2pzzczg2O    =hcbbvzt&       ",
"    <hcbbbbbbbbzlk3.>gzcvvvcg>    @5dzzkt;        ",
"    #9lvbbbbbbxllro+7lxvbbbbxe$    o<605=         ",
"     =rlcvvvvzzlr* *ylcbbbbbxi=                   ",
"     .=qjzzzlljt=  %rlzbbbbbxi=                   ",
"       $<0tuur3*.  X4lzvbbbvzr$                   ",
"         #&**$X     <hzzccczj2X                   ",
"                    @8hllzlk6@                    ",
"                     @1tggt1@                     ",
"                                                  "
};
