/* XPM */
static char *_642232430473[] = {
/* columns rows colors chars-per-pixel */
"50 50 167 2 ",
"   c black",
".  c #0C0500",
"X  c #140300",
"o  c #1D0400",
"O  c #150D00",
"+  c #141200",
"@  c #1B1200",
"#  c #240600",
"$  c #280701",
"%  c #2C0901",
"&  c #330B01",
"*  c #3A0D01",
"=  c #211600",
"-  c #271C00",
";  c #3E1001",
":  c #2E2100",
">  c #322300",
",  c #372800",
"<  c #3C2C00",
"1  c #441301",
"2  c #4C1602",
"3  c #561A02",
"4  c #5A1C03",
"5  c #631E03",
"6  c #433101",
"7  c #483601",
"8  c #4E3901",
"9  c #533D01",
"0  c #6A2203",
"q  c #742504",
"w  c #7B2A05",
"e  c #574001",
"r  c #5A4301",
"t  c #644C01",
"y  c #6D5202",
"u  c #765602",
"i  c #7C5E02",
"p  c #842C06",
"a  c #8A2F06",
"s  c #8E3006",
"d  c #943207",
"f  c #9E3607",
"g  c #963408",
"h  c #9A3408",
"j  c #A63A0A",
"k  c #AC3C0B",
"l  c #805F02",
"z  c #B5400C",
"x  c #BA420C",
"c  c #856402",
"v  c #8D6B03",
"b  c #9A7503",
"n  c #9B7603",
"m  c #A57E04",
"M  c #BF7408",
"N  c #C4460E",
"B  c #C9470E",
"V  c #CF4E0F",
"C  c #D8580F",
"Z  c #CF4A10",
"A  c #D54D10",
"S  c #D94F11",
"D  c #DE5212",
"F  c #E35413",
"G  c #EC5614",
"H  c #E35B13",
"J  c #ED5814",
"K  c #F45A15",
"L  c #FC5D16",
"P  c #DD690F",
"I  c #E27D0C",
"U  c #E36412",
"Y  c #E56B12",
"T  c #F46114",
"R  c #FB6315",
"E  c #FB6C14",
"W  c #E97311",
"Q  c #EB7E10",
"!  c #F67313",
"~  c #FC7313",
"^  c #FC7A12",
"/  c #AD8404",
"(  c #B18704",
")  c #B58A04",
"_  c #B98E04",
"`  c #BD9005",
"'  c #C68207",
"]  c #D98F09",
"[  c #C29505",
"{  c #C69805",
"}  c #CA9B06",
"|  c #DA9608",
" . c #EA840F",
".. c #ED8C0E",
"X. c #EF930F",
"o. c #FD940F",
"O. c #F29E0E",
"+. c #FD9C0E",
"@. c #EB8310",
"#. c #FD8411",
"$. c #FD8D10",
"%. c #D3A206",
"&. c #D9A506",
"*. c #DDAA07",
"=. c #E1AD07",
"-. c #E7AE08",
";. c #F5A50D",
":. c #FDA60D",
">. c #FBAE0C",
",. c #E6B107",
"<. c #EAB307",
"1. c #ECB509",
"2. c #EEB809",
"3. c #FCB40B",
"4. c #F4BB09",
"5. c #FBBE09",
"6. c #ECB712",
"7. c #EDBA13",
"8. c #ECB71B",
"9. c #ECBA1C",
"0. c #F2BC12",
"q. c #EDBC23",
"w. c #EEBC2B",
"e. c #EDBD32",
"r. c #EEBD3B",
"t. c #FDC309",
"y. c #EEC125",
"u. c #EFC22E",
"i. c #FEC827",
"p. c #EEC133",
"a. c #EEC23D",
"s. c #EEBF44",
"d. c #EFC442",
"f. c #F0C753",
"g. c #F1CA5D",
"h. c #FACD5B",
"j. c #F3CD69",
"k. c #FCD065",
"l. c #F2D06E",
"z. c #F3D275",
"x. c #F5D77A",
"c. c #F3D782",
"v. c #FEDE8D",
"b. c #F5DB94",
"n. c #F6DC99",
"m. c #F7E297",
"M. c #F6DFA2",
"N. c #F7E0A6",
"B. c #F7E2AB",
"V. c #FDE9A9",
"C. c #F7E2B4",
"Z. c #F8E6B5",
"A. c #F8E9B4",
"S. c #F7E3BB",
"D. c #F8E7BC",
"F. c #FAEBBB",
"G. c #FAEBC3",
"H. c #FAEECB",
"J. c #FBF0CB",
"K. c #FAEFD6",
"L. c #FBF2D4",
"P. c #FCF5DC",
"I. c #FCF6E1",
"U. c #FCF8E5",
"Y. c #FEF9EB",
"T. c #FEFCF4",
"R. c #FFFFFE",
/* pixels */
"                                            $ h F G k *                                             ",
"                                          X a K L L L k #                                           ",
"                                          2 F L L L L K 4                                           ",
"      . , 6 =                             d L L L L L L N                             @ 6 6 .       ",
"      - ` ,./ t                         X G L L L L L L K 1                         8 n =.%.,       ",
"      O n t.t.*.n @                     0 K L L L L L L L j                       c &.t.t.) -       ",
"        8 &.t.t.4.` 6                   N K L L L L L L L S                   , / 4.t.t.,.y         ",
"          c 2.t.t.t.*.u @               D L L L L L L L L D *               r { t.t.t.4./ .         ",
"            ( t.t.t.t.1.n w d d g a 0 5 F L L L L L L L L J p 3 w p a p q u *.t.t.5.t.} >           ",
"            > { t.4.4.t.4...K K K J F F K L L L L K K R L L G F J J K J W <.t.3.4.t.=.e             ",
"              e &.t.2.1.5.t.+.^ #.#.#.^ E R K H D F F G R E ~ #.#.#.#.#.3.t.2.2.t.1.i               ",
"                i <.t.2.1.5.t.t.t.t.t.t.t.:. .Y F D Y Q +.5.t.t.t.t.t.t.5.4.2.5.4.n @               ",
"                  M 5.5.2.1.4.t.t.t.t.t.t.t.t.3.O.X.3.t.t.t.t.t.t.t.t.t.1.1.5.t.] >                 ",
"                  V #.t.5.1.<.4.t.t.t.5.t.t.t.t.t.t.t.t.t.t.5.5.4.t.4.2.1.4.t.+.D ;                 ",
"                & S R +.t.4.1.r.s.1.<.1.1.2.4.t.i.i.t.4.1.1.1.1.1.r.s.6.4.t.t.E D 3                 ",
"                % S R 3.t.t.0.n.P.l.1.1.2.<.1.a.V.G.j.1.1.1.1.<.j.L.G.w.t.t.t.E D 4                 ",
"                  A R t.t.t.t.g.U.Y.n.<.<.1.1.c.R.R.C.1.1.<.1.c.U.Y.z.6.t.t.t.~ D 1                 ",
"                  x R t.t.t.1.1.c.T.T.B.q.<.<.S.R.R.S.<.1.8.n.T.T.n.1.1.t.t.t.~ A X                 ",
"                  p T 3.t.t.2.1.<.N.T.R.A.d.<.S.R.R.S.1.w.N.R.R.F.1.1.1.t.t.t.! z                   ",
"            & w k Z T +.t.t.4.<.1.6.B.R.R.J.f.S.R.R.S.p.D.R.R.D.9.1.1.1.t.t.3.R D x g 5             ",
"    . $ q N F K K L L #.t.t.t.1.1.<.w.F.R.R.I.I.R.R.L.L.R.R.H.a.1.1.1.2.t.t.o.R L L K J A h * X     ",
"  * s S L L L L L L R ! 3.t.t.<.1.1.1.p.H.R.R.R.R.R.R.R.R.P.g.1.1.1.1.5.t.t.@.L L L L L L L G j 2 . ",
"1 x K L L L L L L L K H ;.t.t.4.1.7.u.a.x.T.R.R.R.R.R.R.R.m.a.u.0.1.1.t.t.>.Y J L L L L L L L L A 5 ",
"k L L L L L L L L L J D  .5.t.k.H.L.P.P.I.R.R.R.R.R.R.R.R.U.P.P.L.K.x.t.t.X.D F L L L L L L L L L B ",
"N L L L L L L L L L J D U >.t.v.R.R.R.R.R.R.R.R.R.R.R.R.R.R.R.R.R.R.v.t.4.W D F L L L L L L L L L F ",
"s K L L L L L L L L K D @.5.t.h.G.L.L.P.P.R.R.R.R.R.R.R.R.P.P.P.L.H.k.t.t.X.F F L L L L L L L L L k ",
"* k J L L L L L L L L H O.t.t.2.<.2.y.p.x.R.R.R.R.R.R.R.T.m.u.y.7.1.1.t.t.3.U J L L L L L L L K k 1 ",
"  % q B K L L L L L L ! 3.t.t.1.1.1.<.d.L.R.R.R.R.R.R.R.R.I.g.<.1.1.<.t.t.t.#.L L L L L L L A p *   ",
"      # 5 k S J K L R #.t.t.t.1.1.<.p.G.R.R.I.I.R.R.J.J.R.R.H.a.1.1.<.2.t.t.o.R L K J D x 0 $ .     ",
"              5 g N K o.t.t.2.1.1.9.Z.R.R.H.f.S.R.R.S.9.D.R.R.G.9.1.1.1.t.t.3.R A j q X             ",
"                  s T 3.t.t.4.1.<.C.R.R.A.d.<.S.R.R.S.1.q.M.T.R.G.1.1.2.t.t.t.R x                   ",
"                  N R t.t.t.2.1.n.T.T.B.q.1.1.S.R.R.S.1.<.8.b.T.T.B.6.2.t.t.t.~ A #                 ",
"                o S E t.t.t.0.l.Y.Y.n.1.1.1.<.z.T.R.C.<.1.1.1.z.U.T.x.6.t.t.t.E D 2                 ",
"                * S R 3.t.t.0.v.L.l.<.1.1.1.<.y.V.F.h.<.1.1.1.<.g.H.N.q.t.t.t.E F 3                 ",
"                * D R >.t.4.1.e.a.1.1.1.1.4.4.t.i.i.t.4.2.1.1.<.1.a.r.1.2.t.5.E D 2                 ",
"                  V o.t.4.1.1.4.t.t.t.t.t.t.t.t.t.t.t.t.t.t.t.t.t.t.4.1.1.4.t.:.C %                 ",
"                + ' 5.5.1.1.4.t.t.t.t.t.t.t.t.>.X.@.;.t.t.t.t.t.t.t.t.5.2.<.4.t.| <                 ",
"              O n 4.t.1.2.t.t.t.t.t.t.t.3.+.Q U D F U Q +.3.t.t.t.t.t.t.t.4.1.4.t./ :               ",
"              y <.t.2.4.t.5.$.~ ^ ^ ^ R R R L G F F H K R E E ^ ^ ^ ~ ~ 3.t.4.2.t.4.v O             ",
"            8 &.t.4.4.t.2.I G G J F S N J L L L L L L L L L A A F F G F P -.t.4.4.t.4.y             ",
"          = [ t.4.t.t.&.l 2 w w w 5 $ o D L L L L L L L L G q   2 0 0 0 * t } t.5.5.t.&.6           ",
"          n 4.t.t.t.` 9                 S L L L L L L L L D %               < / 4.t.t.t.) @         ",
"        r *.t.t.<./ :                   k L L L L L L L L A                   = v <.t.t.1.i .       ",
"      @ m t.t.%.i                       1 K L L L L L L K d                       t { 4.t.[ :       ",
"      : _ *.n 7                         . A L L L L L L K &                         > v %.%.<       ",
"      . , < O                             q L L L L L L k                             . < < .       ",
"                                          * A L L L L K 3                                           ",
"                                            q J L L K f o                                           ",
"                                            X p D D f &                                             ",
"                                                                                                    "
};
