/* XPM */
static char *_642232420877[] = {
/* columns rows colors chars-per-pixel */
"50 50 152 2 ",
"   c black",
".  c #0C0200",
"X  c #150300",
"o  c #1B0400",
"O  c #150D00",
"+  c #1B1200",
"@  c #240601",
"#  c #280701",
"$  c #2D0901",
"%  c #350C01",
"&  c #3B0F01",
"*  c #251A00",
"=  c #3F1001",
"-  c #2E2000",
";  c #352600",
":  c #3B2B00",
">  c #431201",
",  c #4A1402",
"<  c #501702",
"1  c #551A02",
"2  c #5E1D03",
"3  c #621E03",
"4  c #402C01",
"5  c #4C3801",
"6  c #523D01",
"7  c #662003",
"8  c #6B2204",
"9  c #742605",
"0  c #782705",
"q  c #7B2905",
"w  c #594201",
"e  c #644B01",
"r  c #694F01",
"t  c #7C4304",
"y  c #6D5201",
"u  c #7A5C02",
"i  c #832C06",
"p  c #8B2F07",
"a  c #8E3007",
"s  c #923207",
"d  c #933208",
"f  c #9C3609",
"g  c #9F3809",
"h  c #A4390A",
"j  c #AC3C0B",
"k  c #B23F0B",
"l  c #854A04",
"z  c #884805",
"x  c #B5400C",
"c  c #BD430D",
"v  c #BB580A",
"b  c #896802",
"n  c #9D7803",
"m  c #A57D04",
"M  c #C4460E",
"N  c #CC490F",
"B  c #C3560B",
"V  c #C55A0C",
"C  c #CE4A10",
"Z  c #D44C10",
"A  c #D94F11",
"S  c #DF5312",
"D  c #E35413",
"F  c #EC5714",
"G  c #E35A13",
"H  c #EC5914",
"J  c #E15B1B",
"K  c #F45B15",
"L  c #FC5D16",
"P  c #E46807",
"I  c #E3640A",
"U  c #E56808",
"Y  c #E46312",
"T  c #E86612",
"R  c #F66015",
"E  c #EB7411",
"W  c #ED7C10",
"Q  c #FB7413",
"!  c #F57B12",
"~  c #FB7B12",
"^  c #E16025",
"/  c #E46F3F",
"(  c #E5774B",
")  c #E57C53",
"_  c #AD8504",
"`  c #B48605",
"'  c #B48A04",
"]  c #BC8A05",
"[  c #C08F05",
"{  c #EF870F",
"}  c #EF8C0E",
"|  c #F28E0F",
" . c #F2930F",
".. c #F39C0D",
"X. c #F98211",
"o. c #F58811",
"O. c #FB8C10",
"+. c #E7A10A",
"@. c #F5A30D",
"#. c #FDA50E",
"$. c #F7AB0B",
"%. c #FAAE0C",
"&. c #E6B107",
"*. c #EBB509",
"=. c #EFB809",
"-. c #FBB30B",
";. c #F3BB09",
":. c #FBBD0A",
">. c #ECBB1E",
",. c #F3BF1A",
"<. c #EE9235",
"1. c #F19932",
"2. c #ECBC27",
"3. c #EEBE2D",
"4. c #FDC209",
"5. c #FCC512",
"6. c #EB9B7E",
"7. c #FECF44",
"8. c #FECF4B",
"9. c #FACF56",
"0. c #FACF5A",
"q. c #F2CA65",
"w. c #F0C96D",
"e. c #F0CB76",
"r. c #F0CC78",
"t. c #ECA38A",
"y. c #F0B08C",
"u. c #EFB29D",
"i. c #F0B7A1",
"p. c #F2CD82",
"a. c #F2D285",
"s. c #F3D38A",
"d. c #FACC91",
"f. c #FAD096",
"g. c #FEE095",
"h. c #FCE49C",
"j. c #F8D5BB",
"k. c #F8D6BB",
"l. c #F7E3A1",
"z. c #F8E6A7",
"x. c #F8E6A9",
"c. c #FAE9AE",
"v. c #FAECC1",
"b. c #FFF4C7",
"n. c #FDF3CA",
"m. c #FFF7D9",
"M. c #FFF8D9",
"N. c #FEF9E4",
"B. c #FDF3EB",
"V. c #FEFCEC",
"C. c #FFFEF5",
"Z. c white",
/* pixels */
"                                            & h D F h &                                             ",
"                                          # f K L L K s o                                           ",
"                                        . 3 D L L L L D 2                                           ",
"                                        o j L L L L L L h o                                         ",
"                                        > D L L L L L L D %                                         ",
"                                        a K L L L L L L K q                                         ",
"                                        M L L L L L L L L x                                         ",
"                O - .                 @ D L L L L L L L L Z                   . * .                 ",
"                6 n u ; > 3 q 0 q 9 3 p H L L L L L L L L H 7 3 0 q q 9 7 > : u n 5                 ",
"                y *.*.` B D L K K H A S L L L L K K L L L K A D H K K H A v ] ;.&.r                 ",
"                : ' 4.:.#.Q L L L L L L L L H D D D D H L L L L L L L L ~ #.:.4.` ;                 ",
"                  l @.4.4.-.! H L L L L L H D S D S D D H L L L L K H o.-.4.4.+.t                   ",
"                # h ~ -.;.:.-.{ D H L L H D S S ^ S S S D K L K H G } :.:.:.-.~ d                   ",
"                < N L O.:.;.;.:. .T W X.E Y S J u.u.G S Y E ~ W E ..:.=.;.:.X.L c =                 ",
"                2 A L K ..:.=.=.:.:.:.4.:.:...<.k.k.<...:.4.4.:.:.:.*.;.:.| K R C 1                 ",
"                3 S L L H @.4.=.=.:.4.4.4.4.4.8.n.b.7.4.4.4.4.4.4.*.;.:...H L L Z 1                 ",
"                1 Z L L K U -.4.=.=.;.=.*.=.4.0.M.M.9.=.=.=.=.;.=.=.:.%.G K L L M ,                 ",
"                > c L L L G $.4.;.*.*.*.*.*.*.q.N.N.q.*.*.*.*.*.*.;.4.@.G L L L k %                 ",
"                  g L L L R :.4.;.*.*.*.*.*.*.w.V.V.w.*.*.*.*.*.*.4.4.:.R L L K d                   ",
"          . o 7 h Z L L L R -.4.;.*.*.*.*.*.*.r.C.C.e.*.*.*.*.*.*.;.4.-.R L L L Z j 3 o .           ",
"    X % 0 x S K K L L L H G @.4.4.*.*.*.*.*.&.a.Z.Z.r.*.*.*.*.*.*.4.4.$.G H L L L K K S k 8 $ X     ",
". & i Z K L L L L L L H D D } 4.4.*.*.*.*.*.&.a.Z.Z.p.&.*.*.*.*.*.4.4.} D D H L L L L L L K C q % . ",
", k K L L L L L L L K D S A P :.4.5.2.>.>.2.>.s.Z.Z.a.>.>.>.>.>.5.4.:.P A D G K L L L L L L L K k > ",
"h L L L L L L L L L H S S ) t.d.f.h.l.l.l.l.h.c.Z.Z.b.l.l.l.l.l.h.f.d.6.( S A H L L L L L L L L K f ",
"M L L L L L L L L L H S S y.B.Z.Z.Z.Z.Z.Z.Z.Z.Z.Z.Z.Z.Z.Z.Z.Z.Z.Z.Z.Z.B.6.S S H L L L L L L L L L M ",
"f L L L L L L L L L H S S ( t.f.h.h.z.c.c.c.c.n.Z.Z.n.c.c.c.c.z.l.h.f.t./ S S H L L L L L L L L L d ",
", c L L L L L L L L K D S S I :.5.,.2.3.3.3.3.s.Z.Z.s.3.3.3.3.2.,.5.:.I S S G K L L L L L L L L k & ",
". & s A K L L L L L L H D S W 4.4.*.*.*.*.&.*.p.Z.Z.p.*.*.*.*.&.=.4.4.W S S K L L L L L L K Z p & . ",
"    o = i M H K K L L L H G ..4.;.*.*.*.*.*.*.p.Z.Z.r.*.*.*.*.*.*.4.4...G H L L L L H F c q & X     ",
"          . & i x S L L L L -.4.;.=.*.*.*.*.*.e.C.C.r.*.*.*.*.*.*.:.4.-.L L L L D k q % .           ",
"                  f L L L R :.4.;.*.*.*.*.*.*.w.V.V.w.*.*.*.*.*.=.;.4.:.R L L K a                   ",
"                = c L L L H -.4.;.*.*.*.*.*.*.w.N.N.w.*.*.*.*.*.*.:.4.-.G L L L j #                 ",
"                < N L L K Y -.;.*.*.;.=.=.;.4.0.M.M.9.;.;.=.=.=.*.=.4.%.G K R L M ,                 ",
"                2 S L L H ..4.=.;.;.4.4.4.4.4.9.n.b.7.4.4.4.4.4.;.=.;.;.} H L L Z 1                 ",
"                2 A L K | :.;.=.:.4.4.4.:.4.$.<.k.k.1.$.4.4.4.:.:.:.=.;.:.{ L L C 1                 ",
"                < N L X.-.;.;.:...W o.O.W Y S Y i.u.G G Y ! O.o.W @.:.;.;.-.~ L c ,                 ",
"                $ j Q -.4.4.;.} G H L L K D S S ^ ^ S S D K L K F G  .:.:.4.%.Q f o                 ",
"                  z @.4.4.$.! H L L L L L H D S S S S S H R L L R K H o.-.4.4.+.t                   ",
"                ; _ 4.:.#.Q L L L L L L L L K D G D D K L L L L L L L L ~ #.4.;.m -                 ",
"                y *.=.[ V H L L L K Z A K L L L K K L L L K Z S K L L L H B ] ;.&.e                 ",
"                w ` b : , 9 i i i q 3 q K L L L L L L L L H 8 3 0 i i i 9 , 4 b _ 6                 ",
"                O ; O                 o D L L L L L L L L Z .                 + ; O                 ",
"                                        c L L L L L L L L j                                         ",
"                                        a K L L L L L L K 0                                         ",
"                                        > F L L L L L L S $                                         ",
"                                        o k L L L L L L h o                                         ",
"                                        . 3 H L L L L F 2                                           ",
"                                          $ h L L L K f #                                           ",
"                                            > k L K k >                                             ",
"                                                                                                    "
};
