/* XPM */
static char *_642232411867[] = {
/* columns rows colors chars-per-pixel */
"50 50 57 1 ",
"  c black",
". c #0C0C0C",
"X c #131313",
"o c gray8",
"O c #1B1B1B",
"+ c gray12",
"@ c #202020",
"# c gray15",
"$ c gray17",
"% c #323232",
"& c #3C3C3C",
"* c #3E3E3E",
"= c #414141",
"- c gray29",
"; c #4E4E4E",
": c #505050",
"> c gray35",
", c #5F5F5F",
"< c #606060",
"1 c #676767",
"2 c DimGray",
"3 c #6D6D6D",
"4 c gray45",
"5 c #767676",
"6 c #7B7B7B",
"7 c #7C7C7C",
"8 c gray52",
"9 c gray53",
"0 c gray55",
"q c #929292",
"w c gray58",
"e c #989898",
"r c gray62",
"t c #A2A2A2",
"y c #A5A5A5",
"u c #A9A9A9",
"i c gray68",
"p c gray69",
"a c #B7B7B7",
"s c gray72",
"d c gray",
"f c #C1C1C1",
"g c #C5C5C5",
"h c gray79",
"j c #CECECE",
"k c LightGray",
"l c #D7D7D7",
"z c gray85",
"x c #DFDFDF",
"c c #E1E1E1",
"v c gray90",
"b c gray91",
"n c gray93",
"m c #F3F3F3",
"M c #F6F6F6",
"N c #FBFBFB",
"B c white",
/* pixels */
"                       .uuo                       ",
"                       <mm1                       ",
"                       rMMy                       ",
"                       dNBg                       ",
"                       kBBl                       ",
"                      %xBBx*                      ",
"                      >cBBv,                      ",
"                      3bBBb3                      ",
"                      7nBBn6                      ",
"                      8nBBn8                      ",
"                      0nBBn0                      ",
"                      wmBBmw                      ",
"            2e,       eMBBMe       <e2            ",
"            rncr      yMBBNt      rcnr            ",
"            1vBMd=    tMBBMt    =dMBv2            ",
"             yMBBh>.  yNBBNu  .>hNBMy             ",
"             @fNBBk4  pNBBNi  5lBBNf@             ",
"              =hBBBc0 aBBBBs 0cBBBg=              ",
"               ,lBBBnknBBBBnknBBBl<               ",
"               .6vBBBBBBBBBBBBBBc5.               ",
"                 0bBBBBBBBBBBBBb8                 ",
"                  jBBBBBBBBBBBBk.                 ",
"     #:<48qweytytinBBBBBBBBBBBBnitttteqq85<:#     ",
"O5yglxvvbnmmmNMMMNBBBBBBBBBBBBBBNMNMNMmmnbvvxlgy5O",
"kmMNBBBBBBBBBBBBBBBBBBBBBBBBBBBBBBBBBBBBBBBBBBNNmk",
"smNBBBBBBBBBBBBBBBBBBBBBBBBBBBBBBBBBBBBBBBBBBBBMms",
"+4yhzcvbnnMMMNBBBBBBBBBBBBBBBBBBBNNBMMMmnnbvxzhu4O",
"     -1680weyyipdgmBBBBBBBBBBBBmdpiiyyrq8861-     ",
"                 +lBBBBBBBBBBBBkO                 ",
"                 0nBBBBBBBBBBBBn0                 ",
"               o6cBBBBBBBBBBBBBBc6o               ",
"               <zBBBnlmBBBBmznBBBz1               ",
"              -jBBBc0@dBBBNd#8cBBBj-              ",
"             @fBBBl4  iBBBBi  4lBBBg$             ",
"             yMBNg<.  uMBBNy  .1kNBMu             ",
"            1vBmd*    tNBBMt    ;gMBv3            ",
"            tmvto     tMBBNt     @ybMt            ",
"            3y3       eMBBMe       3y3            ",
"                      qMBBmq                      ",
"                      0MBBm0                      ",
"                      8nBBn8                      ",
"                      7bBBn7                      ",
"                      2bBBb3                      ",
"                      >cBBv>                      ",
"                      $xBBx*                      ",
"                       kBBl                       ",
"                       dNNg                       ",
"                       rMNy                       ",
"                       1mm3                       ",
"                       XssO                       "
};
