/* XPM */
static char *_642232575380[] = {
/* columns rows colors chars-per-pixel */
"50 50 175 2 ",
"   c #000000",
".  c #0C0603",
"X  c #010D03",
"o  c #0C0C0C",
"O  c #021C08",
"+  c #1E120B",
"@  c #0A1111",
"#  c #151615",
"$  c #1C1C1C",
"%  c #3A0504",
"&  c #22160E",
"*  c #2C1D14",
"=  c #03230B",
"-  c #052E11",
";  c #063414",
":  c #063B17",
">  c #083E1A",
",  c #342419",
"<  c #36281B",
"1  c #30371F",
"2  c #252525",
"3  c #2E2726",
"4  c #322726",
"5  c #372827",
"6  c #3D3524",
"7  c #562A28",
"8  c #4C3828",
"9  c #503527",
"0  c #543A2B",
"q  c #583E2E",
"w  c #6B2C29",
"e  c #762B29",
"r  c #09431C",
"t  c #0D5223",
"y  c #0F5D28",
"u  c #105827",
"i  c #105E2A",
"p  c #385C32",
"a  c #14662E",
"s  c #156B31",
"d  c #167736",
"f  c #1A7B3A",
"g  c #52432F",
"h  c #5B402F",
"j  c #5D4230",
"k  c #564D36",
"l  c #4F5033",
"z  c #4D5D37",
"x  c #654A36",
"c  c #694D3A",
"v  c #60513A",
"b  c #6E533D",
"n  c #71553F",
"m  c #6C5A40",
"M  c #7D6047",
"N  c #8F1F1B",
"B  c #901F1A",
"V  c #8C231F",
"C  c #9B221D",
"Z  c #A1241F",
"A  c #8B2925",
"S  c #872C2A",
"D  c #8A2D2A",
"F  c #902F2B",
"G  c #9C3B26",
"H  c #CE332D",
"J  c #D5342D",
"K  c #DE352E",
"L  c #DE3730",
"P  c #D53E31",
"I  c #DA3B31",
"U  c #E1352E",
"Y  c #BE5939",
"T  c #C84834",
"R  c #D54533",
"E  c #C35337",
"W  c #D05136",
"Q  c #E1483B",
"!  c #896C4F",
"~  c #897354",
"^  c #977A5A",
"/  c #BD6445",
"(  c #A67C44",
")  c #B47F50",
"_  c #E45947",
"`  c #E7654F",
"'  c #E76750",
"]  c #EA7C5F",
"[  c #1C853D",
"{  c #1F8D42",
"}  c #199444",
"|  c #229446",
" . c #209A47",
".. c #239D4A",
"X. c #3A9D4E",
"o. c #3A9C54",
"O. c #26A54F",
"+. c #24A94F",
"@. c #26A750",
"#. c #27A951",
"$. c #2BAA54",
"%. c #34A753",
"&. c #27B154",
"*. c #2AB356",
"=. c #2EB658",
"-. c #2ABC59",
";. c #35B758",
":. c #69954D",
">. c #71904D",
",. c #46AC55",
"<. c #51AB55",
"1. c #5FB35C",
"2. c #58B975",
"3. c #27C65E",
"4. c #2CC55E",
"5. c #33C35E",
"6. c #35C661",
"7. c #46C766",
"8. c #44C865",
"9. c #56CA6A",
"0. c #59C86A",
"q. c #63C86B",
"w. c #73C96E",
"e. c #6DCA71",
"r. c #888D4A",
"t. c #9C8561",
"y. c #8F9C67",
"u. c #A68765",
"i. c #A88966",
"p. c #AC936C",
"a. c #BA9B73",
"s. c #A9AD6F",
"d. c #B9A16B",
"f. c #ED8163",
"g. c #EE8968",
"h. c #F19772",
"j. c #C2A278",
"k. c #CAA87E",
"l. c #EAA67C",
"z. c #84CE79",
"x. c #95C476",
"c. c #66C084",
"v. c #D4B486",
"b. c #D8B687",
"n. c #EEBB8A",
"m. c #ABCF82",
"M. c #B5D288",
"N. c #8ECDA2",
"B. c #97D5AC",
"V. c #C8CA89",
"C. c #C2D48F",
"Z. c #C6D590",
"A. c #C9D591",
"S. c #DAD797",
"D. c #E3C08F",
"F. c #F9C08F",
"G. c #EAC693",
"H. c #EAC794",
"J. c #EFCD98",
"K. c #F2CE9A",
"L. c #E1D89A",
"P. c #F5D19B",
"I. c #F9D59E",
"U. c #F2D99E",
"Y. c #FBD7A0",
"T. c #FED9A2",
"R. c #B4E8C5",
"E. c #B8EDCA",
"W. c #D2D9D3",
"Q. c #C1E5CD",
"!. c #D8F0E0",
"~. c #E2E2E2",
"^. c #F3F3F3",
"/. c #F3FAF5",
"(. c #FEFEFE",
/* pixels */
"                                                                                                    ",
"                                                                                                    ",
"                                                                                                    ",
"                                                                                                    ",
"                                                                                                    ",
"                                  = r u u u u u u u u u u u u r ;                                   ",
"                          X ; a { | | ..........................| { r                               ",
"                      O t f ..O.O.O.@.@.O.O.O.O.O.O.O.O.O.O.O.O.@.@.| :                             ",
"                    ; f ..O.O.O.O.O.O.O.O.O.O.O.O.O.O.O.O.O.O.O.O.O.O.a                             ",
"                  r { O.O.O.O.O.O.O.O.O.O.O.O.O.O.O.O.O.O.O.$.O.O.O.;.o.X                           ",
"                ; { O.O.O.O.O.O.O.@.O.O.O.O.O.O.O.O.O.O.@.@.O.%.c.Q./.W.o                           ",
"              X s O.O.O.O.O.O.O.O.O.O.O.@.O.@.O.O.O.O.O.@.@.$.B.(.(.(.~.o                           ",
"              - { O.O.O.O.O.O.O.O.O.O.O.O.O.O.O.O.O.@.@.@.@.N.^.(.(.(.^.o                           ",
"              > O.O.O.O.O.O.O.O.O.O.O.O.O.O.O.O.O.@.@.@.O.2.!.(.(.(.(./.#                           ",
"              i O.O.O.O.O.O.O.O.O.@.O.O.@.O.@.@.@.@.#.#.$.2.E.E.E.E.E.R.f s t : =                   ",
"            X a O.O.O.O.O.O.O.O.+.#.#.$.&.*.=.-.-.-.4.4.4.4.-.3.3.4.4.3.4.4.3.&.{ y O               ",
"              t O.O.O.O.+.#.&.-.-.4.-.4.4.4.4.4.4.4.4.4.4.4.4.4.4.4.4.4.4.4.4.4.4.=.r               ",
"              : O.#.*.-.4.4.4.4.4.4.4.4.4.4.4.4.4.4.4.4.4.4.4.4.4.6.4.4.4.4.4.3.4.-.r               ",
"              r $.4.4.4.4.4.4.4.4.4.4.4.4.4.4.4.6.6.6.7.7.7.9.0.0.q.w.;.@..... .[ i X               ",
"              ; | =.=.=.=.=.%.%.%.X.X.,.x.m.m.m.M.M.M.Z.A.A.S.L.L.U.T.k                             ",
"                1 z z z z z l l g g g m G.T.T.T.T.T.T.T.T.T.T.T.T.T.T.v                             ",
"                , 0 0 0 0 0 h c b b k i.I.T.T.T.T.k.c u.I.T.T.T.T.T.T.v                             ",
"                , 0 0 0 0 0 u.G.T.T.b.D.T.T.T.T.I.n 0 q K.T.T.T.T.T.T.v                             ",
"                , q 0 0 0 ^ J.T.T.T.T.T.T.T.T.T.T.q 0 0 K.T.T.T.T.T.T.k                             ",
"                * 9 0 q 9 b.T.T.T.T.T.T.T.T.T.T.T.M g c P.T.T.T.I.T.T.v.p.6                         ",
"                * 9 0 0 9 b.T.T.T.T.T.T.T.T.T.T.T.n.M a.Y.I.J.J.J.G.P.T.P.t.                        ",
"                & 9 q 0 9 ! P.T.T.T.Y.T.T.T.T.T.T.T.T.T.H.i.M c x j ^ I.I.p.                        ",
"                + 8 0 0 b i.P.T.T.T.T.T.T.T.T.T.T.T.T.H.! 9 0 0 0 q q ~ ~ g                         ",
"                , ~ i.v.K.Y.T.T.T.T.T.T.T.T.T.T.T.T.T.i.q 0 0 0 0 0 0 <                             ",
"                4 v.T.T.T.T.T.T.T.T.T.T.T.T.T.T.T.T.T.p.m q 0 0 9 0 0 <                             ",
"                  ~ K.T.T.T.T.T.T.T.T.T.T.T.T.T.T.T.T.Y.n.k.j.j.j.y.p .                             ",
"                    / ] ] s.z.z.z.z.z.z.d.] f.] f.s.z.z.z.z.z.z.z.0.O.-                             ",
"                  % J K T 1.q.q.q.8.4.4.,.R L L L E <.5.4.4.4.4.4.4.4.t                             ",
"                  N J K ) m.T.T.Y.C.e.3.4.R K K K U R r.,.3.4.4.4.4.4.d                             ",
"                  C J _ n.Y.T.T.T.T.S.9.;.R U K K K U J Y ( :.,.4.3.3.}                             ",
"                  Z L g.T.T.T.T.T.T.T.M.>.I L L K K K U K K P R W W W G .                           ",
"                . A L h.T.T.T.T.T.T.T.V./ K K U K K K K K K K U L L K Z .                           ",
"                @ A I h.T.T.T.T.T.T.T.l.R K K K K K K K K K K K K L K A # o                         ",
"              # 2 w J ` F.T.T.T.T.T.F.` U K K K K K K K K K K K K K K w 2 2                         ",
"              $ 2 4 H L Q ` ] f.f.' Q U K K K K U K K K K K K K K K K 7 2 2 #                       ",
"              $ 2 2 D J L L L L U K K K K K K K U K K U K K U U U J F 4 2 2 o                       ",
"              o $ 2 3 e D S S S V B B B B B B B B B B V N A S S S e 5 2 2 #                         ",
"                o * 2 2 2 2 2 2 @                         $ 2 2 2 2 2 2 #                           ",
"                    # 2 2 2 2 2 o                         # 2 2 2 2 2 o                             ",
"                      o # $ $ o                             $ $ $ o                                 ",
"                                                                                                    ",
"                                                                                                    ",
"                                                                                                    ",
"                                                                                                    ",
"                                                                                                    "
};
