/* XPM */
static char *_642232487763[] = {
/* columns rows colors chars-per-pixel */
"50 50 156 2 ",
"   c #000000",
".  c #0C0603",
"X  c #0F0804",
"o  c #130B06",
"O  c #1A0F09",
"+  c #1D120B",
"@  c #21150E",
"#  c #271910",
"$  c #2C1D14",
"%  c #322217",
"&  c #352419",
"*  c #39261B",
"=  c #3D2A1E",
"-  c #262626",
";  c #282726",
":  c #2C2927",
">  c #362D27",
",  c #3F3129",
"<  c #402B1F",
"1  c #442F22",
"2  c #482F23",
"3  c #542827",
"4  c #4C3326",
"5  c #423229",
"6  c #4C3629",
"7  c #4E382B",
"8  c #523427",
"9  c #523629",
"0  c #543A2B",
"q  c #593E2E",
"w  c #792A27",
"e  c #77372B",
"r  c #4F452F",
"t  c #53452E",
"y  c #5B402F",
"u  c #54482F",
"i  c #4E4E32",
"p  c #5E4331",
"a  c #4A5433",
"s  c #455C36",
"d  c #4A5B36",
"f  c #654B37",
"g  c #684D39",
"h  c #6B503B",
"j  c #4A6339",
"k  c #436A3A",
"l  c #397B41",
"z  c #715740",
"x  c #745A42",
"c  c #7C6248",
"v  c #7D6851",
"b  c #6E7D50",
"n  c #862C29",
"m  c #962E28",
"M  c #81362A",
"N  c #AE2D29",
"B  c #BE2E29",
"V  c #C12E29",
"C  c #C53029",
"Z  c #CB302A",
"A  c #D2322C",
"S  c #DD352E",
"D  c #D53D31",
"F  c #E1352E",
"G  c #E03B32",
"H  c #8C493C",
"J  c #B8653C",
"K  c #D64132",
"L  c #E14B3D",
"P  c #81634A",
"I  c #856B4F",
"U  c #8D7254",
"Y  c #917557",
"T  c #9A7D5C",
"R  c #A27542",
"E  c #B37642",
"W  c #DF5845",
"Q  c #E35A47",
"!  c #E86650",
"~  c #E67D5F",
"^  c #EB7B5F",
"/  c #348443",
"(  c #318B46",
")  c #2F9349",
"_  c #2B9B4C",
"`  c #3D9C4E",
"'  c #26A54F",
"]  c #28A14E",
"[  c #26A750",
"{  c #27A851",
"}  c #32AC55",
"|  c #29B456",
" . c #22B955",
".. c #2ABA59",
"X. c #34B859",
"o. c #3FAD60",
"O. c #418445",
"+. c #41944B",
"@. c #5B9E55",
"#. c #778856",
"$. c #6EA150",
"%. c #45B167",
"&. c #62B97B",
"*. c #25C65F",
"=. c #2CC55E",
"-. c #38C460",
";. c #57C96B",
":. c #818449",
">. c #998145",
",. c #96955A",
"<. c #A48764",
"1. c #AF906B",
"2. c #B2946E",
"3. c #BA9F6C",
"4. c #B59770",
"5. c #BC9C74",
"6. c #92BF74",
"7. c #BFA176",
"8. c #DE8762",
"9. c #EE916D",
"0. c #C2A479",
"q. c #C3A479",
"w. c #CAAC7F",
"e. c #86CF7A",
"r. c #9BCA7C",
"t. c #A3CC7F",
"y. c #67BE82",
"u. c #77C48F",
"i. c #CEAB80",
"p. c #CDB081",
"a. c #D4B385",
"s. c #D8B887",
"d. c #D9B988",
"f. c #E2BF8E",
"g. c #F6B789",
"h. c #F7B88A",
"j. c #83CE9D",
"k. c #A9CF81",
"l. c #A6D184",
"z. c #C9D390",
"x. c #DCD597",
"c. c #E6C491",
"v. c #EAC693",
"b. c #EECA97",
"n. c #EFCB98",
"m. c #F2CD99",
"M. c #F3D19B",
"N. c #F9D59E",
"B. c #FDD7A1",
"V. c #FED9A2",
"C. c #B4E1C4",
"Z. c #C6E8D2",
"A. c #DAF1E2",
"S. c #E5F4EA",
"D. c #EFF8F0",
"F. c #FFFFFF",
/* pixels */
"                                                                                                    ",
"                                                                                                    ",
"                                                                                                    ",
"                                . . . o X X X X X X X X X X X X . . .                               ",
"                        X + # & = 1 1 4 4 4 4 4 4 4 4 4 4 4 4 2 < < * # + X                         ",
"                      # 1 4 9 t a a s k k k k k k k k k k k k d s a t 8 4 < $                       ",
"                    $ 4 t s l ( _ _ _ ] _ _ [ _ [ _ ] _ ] _ ] _ _ _ ) l j r 7 $                     ",
"                  + 9 i ( _ ' ' ' ' ' ' [ [ [ ] [ [ ' [ [ ' ' [ ' ' ' ' _ ( i 9 O                   ",
"                  * 0 / [ ' ' [ [ [ [ [ [ [ [ [ ' ' [ [ [ [ [ [ [ ' ] ' ' [ / 0 *                   ",
"                  < r ' [ ' ' ' ] [ ] ] ] [ [ [ ' ' [ [ [ [ [ _ ' ' [ [ [ ' ] t 1                   ",
"                  1 t ' ' ' ' ' [ [ [ [ { %.u.C.C.C.C.u.o.[ ' ' ' ' ' ' ' ' ] u 1                   ",
"                  1 u ' ' ' [ ' [ _ [ [ u.S.F.F.F.F.F.F.A.y.[ ' ' [ ' ' ' ' [ u 1                   ",
"                  1 u ] ' ' ' ' [ ' [ y.S.F.F.F.F.F.F.F.F.A.&.[ ' ' ' [ ' ' ] t 1                   ",
"                  1 u ] ' ' ' ' [ ' %.Z.F.F.F.F.F.F.F.F.F.F.C.o.' ' ' ' ' [ ] t 1                   ",
"                  1 u ] ' [ ' ' [ [ &.S.D.D.D.D.D.D.D.D.D.D.D.y.' [ [ [ { ' ' u 1                   ",
"                  1 u | | | | ........|  . . . . . . . . . . .........| | | | t 1                   ",
"                  1 u =.=.=.=.=.=.=.=.=.=.=.=.=.=.=.=.=.=.=.=.=.=.=.=.=.=.=.-.t 1                   ",
"                  1 u =.=.=.=.=.=.=.=.=.=.=.=.=.=.=.=.=.=.=.=.=.=.=.=.=.=.=.=.u 1                   ",
"                  1 u } =.=.=.=.*.=.=.=.*.=.=.=.=.=.=.*.*.=.=.=.=.*.=.=.=.=.} u 1                   ",
"                  * 9 j +.+.r.k.k.k.k.l.k.k.k.k.k.k.k.k.k.k.k.k.k.k.k.t.@.+.j 0 *                   ",
"                @ 4 q 9 9 P m.V.B.V.V.V.V.V.V.V.V.V.V.V.B.V.V.V.B.V.V.B.5.4 9 0 4 #                 ",
"              + 4 h <.<.f d.V.V.c.Y T v.V.V.V.V.V.V.V.V.B.V.v.T Y f.V.V.v.c <.<.z 4 O               ",
"              = f 2.w.7.0.N.V.V.2.q q 5.V.V.V.V.V.V.V.V.V.V.5.q t 2.V.V.V.a.0.p.2.f =               ",
"            . 0 I w.w.d.V.V.V.V.<.0 0 4.V.V.V.V.V.V.V.V.V.V.2.0 9 1.V.V.V.N.d.p.p.I 9 .             ",
"              0 U p.p.d.V.V.V.V.2.q q 0.V.N.N.m.f.f.n.V.V.V.5.t y 2.V.V.V.V.d.w.a.Y 0               ",
"              4 x 7.p.d.V.V.V.V.v.U <.b.V.N.m.d.p.p.a.v.B.V.n.T U c.V.V.V.N.d.p.0.x 4               ",
"              & q U 7.s.N.V.V.V.V.V.V.V.M.3.T 0.p.p.i.<.1.n.V.V.V.V.V.V.V.N.s.7.U 0 %               ",
"              . = 9 z Y d.V.V.V.V.V.N.b.<.0 y c I I x p 0 T v.V.V.V.V.V.V.f.Y z 0 * .               ",
"                . % 4 p w.V.V.V.V.V.V.w.p q q q 0 y 0 8 0 q i.B.V.V.V.V.V.a.g 4 # .                 ",
"                    $ q 5.V.V.V.V.V.B.a.h p 8 8 8 8 0 8 p x p.B.V.V.V.V.B.5.0 *                     ",
"                . % 4 i #.c.V.V.V.V.V.B.f.w.0.0.0.0.0.0.i.f.B.V.V.V.V.V.v.#.a 8 *                   ",
"                $ 9 d X...,.~ ~ ~ ^ 8.6.e.e.e.e.e.e.e.e.j.e.6.8.^ ^ ^ 8.,.X.X.d 9 $                 ",
"              o 1 r } =.-.-.:.K S S D >.-.=.=.-.=.=.=.=.=.X.>.D G S K :.-.=.=.} t 1 o               ",
"              + 8 O.=.;.r.l.l.3.W S F S R $.=.*.*.*.*.X.$.R S S S Q 3.l.l.l.;.=./ 8 +               ",
"              + 9 ` ;.x.V.B.V.V.g.L S F F D J J E E E J K S S S L g.N.V.V.V.x.;.` 0 @               ",
"              O 9 ` z.V.V.V.V.V.V.Q S S S S S S S S S S S F S S Q V.V.V.V.V.V.z.+.0 O               ",
"              O 4 b M.V.V.V.B.V.N.Q G S S S A C C C C A S S S S Q B.V.V.V.V.V.M.b 4 O               ",
"              o 1 P M.V.V.V.V.V.g.L F S S Z B B B V B B C S S S L h.V.V.V.V.V.m.P 1 o               ",
"              . = f n.V.V.V.V.B.9.G S S Z B B B B B B B B Z S S S 9.V.V.V.V.V.m.f < .               ",
"                * 0 a.B.B.V.B.g.L S S A B B B B B B B B B V A S S L g.V.V.V.B.a.9 *                 ",
"                @ 4 h d.m.n.g.! S F S Z N m M e e e e M m N Z S F F ! h.m.b.s.z 4 @                 ",
"                  $ 9 h I v H n n n n w 3 : 7 6 = = 6 9 : 3 w n n n n H v v h 9 %                   ",
"                    # 0 5 - - - - - ; ; ; ; 7 < o o < 7 : - - - - - - - - 5 0 @                     ",
"                    X 9 6 > ; - - - ; ; ; , 0 *   . = 0 > : ; - - - - ; > 6 4 X                     ",
"                      $ 6 0 4 5 , , , 5 6 0 < +     + 1 0 4 5 5 5 5 5 6 9 4 $                       ",
"                        @ * 4 0 0 q 0 9 1 $ o         o $ 1 6 0 0 0 0 4 = @                         ",
"                          . . o o o o o .                 . X o o o o X                             ",
"                                                                                                    ",
"                                                                                                    ",
"                                                                                                    "
};
