/* XPM */
static char *_642232467186[] = {
/* columns rows colors chars-per-pixel */
"50 50 148 2 ",
"   c #000000",
".  c #000802",
"X  c #0B0B0B",
"o  c #021E09",
"O  c #15110A",
"+  c #131313",
"@  c #1A1A1A",
"#  c #261A11",
"$  c #04260D",
"%  c #04290E",
"&  c #052F11",
"*  c #063916",
"=  c #063B18",
"-  c #262117",
";  c #252626",
":  c #2A2626",
">  c #2A2A29",
",  c #5F2A28",
"<  c #423027",
"1  c #503527",
"2  c #523629",
"3  c #553B2B",
"4  c #593E2D",
"5  c #6D2A27",
"6  c #6B2C29",
"7  c #7E2D29",
"8  c #0A451D",
"9  c #0D4F22",
"0  c #1E4F25",
"q  c #085423",
"w  c #105827",
"e  c #115D29",
"r  c #12632C",
"t  c #156C31",
"y  c #3E753D",
"u  c #4F422E",
"i  c #4E482F",
"p  c #54412D",
"a  c #5B412F",
"s  c #5B4D37",
"d  c #475634",
"f  c #4A5233",
"g  c #624734",
"h  c #654B37",
"j  c #6B4F3B",
"k  c #63553D",
"l  c #69593E",
"z  c #70543E",
"x  c #416539",
"c  c #685A42",
"v  c #715741",
"b  c #726246",
"n  c #7F654A",
"m  c #7F6C4E",
"M  c #7D6A52",
"N  c #851C17",
"B  c #94201B",
"V  c #872C2A",
"C  c #882C2A",
"Z  c #932D28",
"A  c #AE2E29",
"S  c #BF2E29",
"D  c #C32E29",
"F  c #CC312B",
"G  c #D4332D",
"H  c #DD352E",
"J  c #D9382F",
"K  c #D13F31",
"L  c #D93A31",
"P  c #E1352E",
"I  c #8C493C",
"U  c #B8653C",
"Y  c #C54739",
"T  c #D74436",
"R  c #E14C3E",
"E  c #85694F",
"W  c #8B6E52",
"Q  c #877354",
"!  c #8A7756",
"~  c #957C5B",
"^  c #A27542",
"/  c #B37642",
"(  c #BB794B",
")  c #CE5644",
"_  c #E25A47",
"`  c #E65E4A",
"'  c #CF6A4C",
"]  c #E5644E",
"[  c #E96B53",
"{  c #E67D5F",
"}  c #EB7B5F",
"|  c #1C833D",
" . c #1E8C41",
".. c #1F9E49",
"X. c #2F8F47",
"o. c #308F47",
"O. c #219446",
"+. c #239949",
"@. c #26A44F",
"#. c #28B555",
"$. c #2ABB59",
"%. c #37BC5B",
"&. c #648D56",
"*. c #729659",
"=. c #4EA150",
"-. c #6EA150",
";. c #25C65F",
":. c #2DC55F",
">. c #38C460",
",. c #55C164",
"<. c #57C96B",
"1. c #818449",
"2. c #998145",
"3. c #89914B",
"4. c #95955A",
"5. c #A68E68",
"6. c #B69A6D",
"7. c #B69B71",
"8. c #B99E73",
"9. c #92BF74",
"0. c #BEA379",
"q. c #DE8762",
"w. c #DF8E6B",
"e. c #CF9F79",
"r. c #EA8767",
"t. c #C2A67A",
"y. c #84CE79",
"u. c #9DCE7F",
"i. c #A1CC7F",
"p. c #CDAE80",
"a. c #CDB081",
"s. c #D6B687",
"d. c #DCBC8B",
"f. c #E0BE8E",
"g. c #F4B789",
"h. c #F6B789",
"j. c #A6D184",
"k. c #DCC38C",
"l. c #CAD490",
"z. c #DCD597",
"x. c #E5C491",
"c. c #EDCA95",
"v. c #ECC996",
"b. c #FAC896",
"n. c #F6CE99",
"m. c #F5D29C",
"M. c #FCD29C",
"N. c #FED9A2",
/* pixels */
"                                                                                                    ",
"                                                                                                    ",
"                                                                                                    ",
"                                                                                                    ",
"                                                                                                    ",
"                              & 9 w w t t t t t t t t t t t t e w w *                               ",
"                        % e  .O.+.+.@.@.@.@.+.@.@.@.@.+.@.@.@.+.+.+.O.| r $                         ",
"                    . 8  .@.@.@.@.@.@.@.@.@.@.@.@.@.@.@.@.@.@.@.@.@.@.@.@.O.8                       ",
"                    o  .@.@.@.@.@.@.@.@.@.@.@.@.@.@.@.@.@.@.@.@.@.@.@.@.@.@.O.o                     ",
"                    $ @.@.@.@.@.#.@.@.@.@.@.@.@.@.@.@.@.@.@.@.@.@.@.@.@.@.@.@.$                     ",
"                    $ @.@.@.@.@.@.@.@.@.@.@.@.@.@.@.@.@.@.@.@.@.@.@.@.@.@.@.@.$                     ",
"                    $ @.@.@.@.@.@.@.@.@.@.@.@.@.@.@.@.@.@.@.@.@.@.@.@.@.#.@.@.$                     ",
"                    $ @.@.@.@.@.@.@.@.@.@.@.@.@.@.@.@.@.#.@.@.@.@.@.@.@.@.@.@.$                     ",
"                    $ @.@.@.@.@.@.@.@.@.@.@.@.@.@.@.@.@.@.@.@.@.@.@.@.@.@.@.@.$                     ",
"                    $ @.@.@.@.@.@.@.@.@.@.@.o.x d d x o.@.@.@.@.@.@.@.@.@.@.@.$                     ",
"                    $ @.@.+.@.@.@.@.@.@.@.X.i 3 4 4 3 i o.@.@.@.@.@.@.@.+.@.@.$                     ",
"                    $ +.+.+.+.+.+.+.+.+.+.f 3 3 3 3 3 3 f +.+.+.+.+.+.+.+.+.O.$                     ",
"                    $ +.O.+.+.+.+.+.+.+.+.f p p p p p 3 f +.+.+.+.+.+.+.+.+.+.$                     ",
"                    $ | +.+.+.+.+.@.+.+.+.+.+.+...+.+.+.+.+.+...+.+.+.@.+.+.| $                     ",
"                    . 0 y y y y y y y x y y y y y y y y y y y y y y y x y y 0 .                     ",
"                      # 3 3 1 3 3 3 3 3 3 3 3 3 3 3 3 3 2 2 3 2 3 3 3 2 3 2 #                       ",
"                  l 5.5.3 3 3 3 3 3 3 3 3 3 3 3 3 3 3 3 3 3 3 4 3 3 3 3 3 1 5.5.l                   ",
"                p 7.t.7.3 3 3 3 3 3 3 3 3 3 3 3 3 3 3 3 3 3 3 3 3 3 3 3 3 1 7.a.7.u                 ",
"                E p.a.7.1 3 3 3 3 3 3 3 3 3 3 3 3 3 3 3 3 3 3 3 3 3 4 3 3 2 7.a.t.Q                 ",
"                Q t.s.0.a 3 4 4 3 3 3 3 3 3 3 3 3 3 3 3 3 3 3 4 3 3 3 3 3 4 8.a.a.Q                 ",
"                c t.a.t.n z h p 2 3 3 3 3 3 3 3 3 3 3 3 3 3 3 3 3 3 4 h z E 0.a.t.c                 ",
"                # ! t.s.v.x.t.0.~ W v g 4 2 1 1 1 2 1 1 1 4 g j E ~ 7.a.x.v.s.0.! #                 ",
"                . O k ! x.M.N.N.M.n.f.d.d.s.s.s.s.s.s.s.s.s.d.f.v.m.N.N.N.v.~ k O                   ",
"                      < a.N.N.N.N.N.N.N.N.N.N.N.N.N.N.N.N.N.N.N.N.N.N.N.N.k.s                       ",
"                      - t.N.N.N.N.N.N.N.N.N.N.N.N.N.N.N.N.N.N.N.N.N.N.N.N.0.O                       ",
"                    . q *.v.N.N.N.M.N.N.N.N.N.N.N.N.N.N.N.N.N.N.N.N.N.N.v.*.q .                     ",
"                    r $.=.' } } { } q.u.y.y.y.y.y.y.y.y.y.y.9.q.} } } } 4.$.$.r                     ",
"                  = #.;.3.J H H H P L 2.%.>.:.:.:.:.:.>.:.%.^ L J H T 1.>.:.:.#.*                   ",
"                   .;.,.( P H P H H H L ^ -.%.;.;.;.;.%.-.^ L H J _ 6.i.j.u.<.;. .                  ",
"                  @.<.k.] H H H H H P H H K U / / / / U K P H H R h.M.N.N.N.z.<.@.                  ",
"                  ..l.b.] P H H H H H H J H H H H H H H H H H H _ N.N.N.N.N.N.l...                  ",
"                  &.m.b.` H H F D D D D H H P H H H H H P H D D ) M.N.N.N.N.N.m.&.                  ",
"                  ! m.b.` H P F D S D D G H H H H H H H H G S S Y b.N.N.N.N.N.m.!                   ",
"                  c m.b.[ P F 7 5 5 5 Z G H H H H H H H H H D S S w.N.M.N.N.N.m.k                   ",
"                    d.M.r.A < : > : : : 6 G H G G H G H H H H F F T g.N.N.N.N.d.                    ",
"                    b k.e.2 ; ; > ; ; ; ; 6 B N N N N B A D P P P P [ h.v.m.f.b                     ",
"                      k c ; ; ; ; ; ; ; ; ; .           ; 6 C V V V C I M M k                       ",
"                        @ ; ; ; ; ; ; ; ; ; X         X ; ; ; > ; ; ; ; ; @                         ",
"                        X ; ; ; ; ; ; ; ; @             @ ; ; ; ; ; ; ; @ X                         ",
"                          . + + @ @ @ @ X                 X + @ @ @ @ + .                           ",
"                                                                                                    ",
"                                                                                                    ",
"                                                                                                    ",
"                                                                                                    ",
"                                                                                                    "
};
