/* XPM */
static char *_642232528332[] = {
/* columns rows colors chars-per-pixel */
"50 50 170 2 ",
"   c #000000",
".  c #0C0603",
"X  c #0F0804",
"o  c #130B06",
"O  c #1A0F09",
"+  c #1D120B",
"@  c #21150E",
"#  c #271910",
"$  c #2C1D14",
"%  c #322217",
"&  c #352419",
"*  c #39261B",
"=  c #3D2A1E",
"-  c #262626",
";  c #2A2726",
":  c #2C2927",
">  c #2A2A29",
",  c #362D27",
"<  c #3F3129",
"1  c #402B1F",
"2  c #442F22",
"3  c #452B25",
"4  c #542827",
"5  c #4C3326",
"6  c #423229",
"7  c #4C3629",
"8  c #4E382B",
"9  c #523427",
"0  c #523629",
"q  c #543A2B",
"w  c #593E2E",
"e  c #622B27",
"r  c #792A27",
"t  c #77372B",
"y  c #4F452F",
"u  c #53452E",
"i  c #54482F",
"p  c #4E4E32",
"a  c #5E4331",
"s  c #4A5433",
"d  c #455C36",
"f  c #4A5B36",
"g  c #654B37",
"h  c #684D39",
"j  c #6C503B",
"k  c #4A6339",
"l  c #436A3A",
"z  c #397B41",
"x  c #675542",
"c  c #715740",
"v  c #745A42",
"b  c #7C6248",
"n  c #7D6851",
"m  c #6E7D50",
"M  c #862C29",
"N  c #962E28",
"B  c #82362A",
"V  c #B42E29",
"C  c #BE2E29",
"Z  c #AB302B",
"A  c #C12E29",
"S  c #C82F2A",
"D  c #C43029",
"F  c #CB312B",
"G  c #D1322C",
"H  c #DE352E",
"J  c #D9382F",
"K  c #D53D31",
"L  c #E1352E",
"P  c #E03B32",
"I  c #8C493C",
"U  c #B8653C",
"Y  c #D64132",
"T  c #E14B3D",
"R  c #81634A",
"E  c #856B4F",
"W  c #8D7254",
"Q  c #917557",
"!  c #947858",
"~  c #9A7D5C",
"^  c #A27542",
"/  c #B37642",
"(  c #BB794B",
")  c #DF5845",
"_  c #E35A47",
"`  c #E65E4A",
"'  c #CF694C",
"]  c #E5644E",
"[  c #E96B53",
"{  c #EB7B5F",
"}  c #348443",
"|  c #318B46",
" . c #2F9349",
".. c #2B9B4C",
"X. c #3D9C4E",
"o. c #26A54F",
"O. c #28A14E",
"+. c #26A750",
"@. c #27A851",
"#. c #32AC55",
"$. c #29B456",
"%. c #22B955",
"&. c #2ABA58",
"*. c #35B759",
"=. c #33BB5B",
"-. c #3FAD60",
";. c #418445",
":. c #41944B",
">. c #569F53",
",. c #768956",
"<. c #6EA150",
"1. c #44AF65",
"2. c #62B97B",
"3. c #25C65F",
"4. c #2CC55E",
"5. c #38C460",
"6. c #55C164",
"7. c #57C96B",
"8. c #8B8E4F",
"9. c #998145",
"0. c #A48764",
"q. c #AF906B",
"w. c #B2946E",
"e. c #BA9F6C",
"r. c #B59770",
"t. c #BC9C74",
"y. c #92BF74",
"u. c #BFA176",
"i. c #DE8762",
"p. c #CB9B75",
"a. c #EC8C6A",
"s. c #C2A479",
"d. c #C3A479",
"f. c #CAAC7F",
"g. c #86CF7A",
"h. c #9BC87B",
"j. c #A4CD7F",
"k. c #67BE82",
"l. c #77C48F",
"z. c #CEAB80",
"x. c #CDB081",
"c. c #D4B385",
"v. c #D8B787",
"b. c #D7B887",
"n. c #D9B988",
"m. c #E2BF8E",
"M. c #F6B789",
"N. c #F7B88A",
"B. c #83CE9D",
"V. c #A9CF81",
"C. c #A6D184",
"Z. c #DBCE91",
"A. c #C9D390",
"S. c #E0C08E",
"D. c #EAC693",
"F. c #EBC895",
"G. c #EECA96",
"H. c #FAC896",
"J. c #F2CD99",
"K. c #FBCD99",
"L. c #F3D19B",
"P. c #F9D49D",
"I. c #FDD7A1",
"U. c #FED9A2",
"Y. c #B4E1C4",
"T. c #C6E8D2",
"R. c #DAF1E2",
"E. c #E5F4EA",
"W. c #EFF8F0",
"Q. c #FFFFFF",
/* pixels */
"                                                                                                    ",
"                                                                                                    ",
"                                                                                                    ",
"                                . . . o X X X X X X X X X . o . . . .                               ",
"                        X + # & = 2 2 5 5 5 5 5 5 5 5 5 5 5 5 2 2 = * # + .                         ",
"                      # 2 5 0 u s s d l l l l l l l l l l l l f s s y 0 5 2 #                       ",
"                    $ 5 u d z | ......O.....+...+.....O.O...O....... .z k u 0 $                     ",
"                  + 0 p | ..o.o.o.o.o.o.+.+.+.O.+.+.o.+.+.o.+.+.o.o.o.o.O.| p 0 O                   ",
"                  * q } +.o.o.o.o.o.o.+.o.o.o.o.O.+.+.+.+.+.+.+.o.o.o.o.o.+.} q *                   ",
"                  1 u o.o.+.o.+.o.o.o.O.o.o.o.o.o.o.+.+.+.+.+...o.+.+.o.+.o.O.u 2                   ",
"                  2 u o.o.o.+.o.+.o.+.+.+.1.B.Y.Y.Y.Y.l.-.+.+.o.o.o.+.o.o.o.o.i 2                   ",
"                  2 i o.o.o.o.o.o.o.+.+.l.E.Q.Q.Q.Q.Q.Q.R.k.+.o.o.o.o.o.o.o.@.i 2                   ",
"                  2 u O.+.o.o.o.o.o.+.l.E.Q.Q.Q.Q.Q.Q.Q.Q.R.2.+.o.o.o.o.o.o.O.u 2                   ",
"                  2 i O.o.o.o.o.o.o.1.T.Q.Q.Q.Q.Q.Q.Q.Q.Q.Q.T.-.o.o.o.o.o.o.o.u 2                   ",
"                  2 i O.o.o.+.o.+.o.2.E.W.W.W.W.W.W.W.W.W.W.E.2.o.@.+.+.@.o.o.i 2                   ",
"                  2 i $.$.$.$.&.&.&.&.%.%.%.%.%.%.%.%.%.%.%.%.%.&.&.&.$.$.$.$.u 2                   ",
"                  2 i 4.4.4.4.4.4.4.4.4.4.4.4.4.4.4.4.4.4.4.4.4.4.4.4.4.4.4.4.i 5                   ",
"                  9 i 4.4.4.4.4.4.4.4.4.4.4.4.4.4.4.4.4.4.4.4.4.4.4.4.4.4.4.4.i 1                   ",
"                  2 u #.4.4.4.4.4.4.4.3.3.4.4.4.4.4.4.3.4.4.4.4.4.4.4.4.4.4.#.i 2                   ",
"                  * q k :.| h.V.V.V.V.j.V.V.V.V.V.V.V.V.j.V.V.j.V.V.j.j.>.:.k w *                   ",
"                @ 5 q q q R J.U.U.U.U.U.U.U.U.U.U.U.U.U.U.U.U.U.U.U.U.U.t.5 q 0 5 #                 ",
"              + 5 j 0.0.g b.U.U.D.Q ~ F.U.U.U.U.U.U.U.U.U.U.D.~ Q S.U.U.D.b 0.0.v 5 +               ",
"              = g w.f.u.d.P.U.U.w.w w t.U.U.U.U.U.U.U.U.U.U.t.w a w.U.U.U.c.d.x.w.g =               ",
"            . 0 E f.x.b.U.U.U.U.0.q q w.U.U.U.U.U.U.U.U.U.U.w.q q 0.U.U.U.P.b.x.z.E q               ",
"              q W x.x.b.U.U.U.U.w.w a t.U.U.U.J.m.m.G.U.U.U.t.a w q.U.U.U.U.b.x.c.Q q               ",
"              5 v d.x.b.U.U.U.U.G.! ~ J.U.P.J.n.x.x.c.G.P.U.G.~ W D.U.U.U.P.v.x.d.v 5               ",
"              & w W d.v.P.U.U.U.U.U.U.U.J.r.~ f.x.x.f.~ q.G.U.U.U.U.U.U.U.P.v.u.W q %               ",
"              . = q j Q n.U.U.U.U.U.U.J.~ q w v E E v g q ~ F.U.U.U.U.U.U.m.Q c q * .               ",
"                . & 5 a f.U.U.U.U.U.U.d.w w w q q q q q q w d.U.U.U.U.U.U.c.h 5 # .                 ",
"                    # w t.U.U.U.U.U.U.c.v w 0 q q 0 q 0 a v c.U.U.U.U.U.U.t.w *                     ",
"                . % 9 s ,.S.U.U.U.U.U.U.m.z.d.d.d.d.d.d.z.m.U.U.U.U.U.U.D.,.s 5 *                   ",
"                $ 0 f &.>.' { { { { i.y.g.g.g.g.g.g.g.g.g.g.y.i.{ { { a.8.=.*.f 0 $                 ",
"              o 2 y #.3.8.J H H H H K 9.=.5.4.4.4.4.4.5.4.=.9.J H H Y 8.5.3.4.#.i 3 o               ",
"              + 9 ;.4.6.( H H H H L L J ^ <.*.3.3.3.3.=.<.^ H H P _ e.h.C.C.7.4.;.q +               ",
"              + q X.7.S.] H H L H H H H H Y U / / / / U K H L H T M.I.I.U.U.Z.7.X.q @               ",
"              O 9 X.A.H.` H H H H H H H H H H J H H H H H H H H _ U.U.U.U.U.U.A.X.9 O               ",
"              + 5 m L.H.` H H H H H H H H J G S D D S G J H H H ) U.U.U.U.U.U.J.m 5 O               ",
"              o 1 R L.H.` H H L L P L L H F C C C A A C S H H H ) M.U.U.U.I.U.J.R 2 o               ",
"              . 1 h J.K.[ H F M r r r Z A C C D A C C C C S H H L a.U.U.U.U.I.G.g 1 .               ",
"                & q c.P.a.V 3 : ; ; ; : e V C V C C C V C A G L H T M.U.U.U.U.c.0 *                 ",
"                @ 5 j n.p.q - - - - - - - e B t t t t B N Z F J L L ] N.J.G.v.c 5 @                 ",
"                . $ 0 j x > - - - - - - - > 8 5 1 = 5 0 : 4 r M M M M I n n j 5 %                   ",
"                    @ q 6 - - - - - - - - ; 7 2 o o 1 5 : - - - - - - - - < q #                     ",
"                    o 0 7 , > - - - - ; : < q *   . 1 q , : ; - - - - ; , 8 5 X                     ",
"                      % 0 0 7 6 6 < < 6 7 q 1 +     + 2 q 7 6 6 6 6 6 7 0 5 $                       ",
"                        + = 5 q q q q q 2 $ o         o $ 2 9 q q q q 5 = @                         ",
"                            . o o o o o .                 . . o o o o .                             ",
"                                                                                                    ",
"                                                                                                    ",
"                                                                                                    "
};
