/* XPM */
static char *_642232495925[] = {
/* columns rows colors chars-per-pixel */
"50 50 170 2 ",
"   c #000000",
".  c #0C0603",
"X  c #0F0804",
"o  c #130B06",
"O  c #1A0F09",
"+  c #1D120B",
"@  c #21150E",
"#  c #271910",
"$  c #2C1D14",
"%  c #322217",
"&  c #352419",
"*  c #39261B",
"=  c #3D2A1E",
"-  c #262626",
";  c #2A2726",
":  c #2C2927",
">  c #2A2A29",
",  c #362D27",
"<  c #3F3129",
"1  c #402B1F",
"2  c #442F22",
"3  c #452B25",
"4  c #542827",
"5  c #4C3326",
"6  c #423229",
"7  c #4C3629",
"8  c #4E382B",
"9  c #523427",
"0  c #523629",
"q  c #543A2B",
"w  c #593E2E",
"e  c #622B27",
"r  c #792A27",
"t  c #7C2D2A",
"y  c #77372B",
"u  c #4F452F",
"i  c #53452E",
"p  c #5B402F",
"a  c #54482F",
"s  c #4E4D31",
"d  c #5E4331",
"f  c #4A5433",
"g  c #455C36",
"h  c #4A5B36",
"j  c #654B37",
"k  c #684D39",
"l  c #6C503B",
"z  c #4A6339",
"x  c #436A3A",
"c  c #397B41",
"v  c #675542",
"b  c #715740",
"n  c #745A42",
"m  c #7C6248",
"M  c #7D6851",
"N  c #6E7D50",
"B  c #862C29",
"V  c #962E28",
"C  c #82362A",
"Z  c #A82F2B",
"A  c #B42E29",
"S  c #BE2E29",
"D  c #B0302B",
"F  c #C12E29",
"G  c #C82F2A",
"H  c #C4312A",
"J  c #CB302A",
"K  c #D1322C",
"L  c #DE352E",
"P  c #D53D31",
"I  c #E1352E",
"U  c #E03B32",
"Y  c #8C493C",
"T  c #B8653C",
"R  c #D64132",
"E  c #E24639",
"W  c #E14B3D",
"Q  c #81634A",
"!  c #856B4F",
"~  c #9F7E45",
"^  c #8D7254",
"/  c #917557",
"(  c #947858",
")  c #9A7D5C",
"_  c #A27542",
"`  c #B37642",
"'  c #DF5845",
"]  c #E35A47",
"[  c #D3674B",
"{  c #E86650",
"}  c #E67D5F",
"|  c #EB7B5F",
" . c #338845",
".. c #2F9349",
"X. c #2B9B4C",
"o. c #3D9C4E",
"O. c #26A54F",
"+. c #28A14E",
"@. c #26A750",
"#. c #2AA752",
"$. c #26A850",
"%. c #32AC55",
"&. c #29B456",
"*. c #22B955",
"=. c #2ABA59",
"-. c #35B859",
";. c #3FAD60",
":. c #418445",
">. c #41944B",
",. c #5B9E55",
"<. c #629A4F",
"1. c #788756",
"2. c #6EA150",
"3. c #44AF65",
"4. c #4FB664",
"5. c #62B97B",
"6. c #25C65F",
"7. c #2CC55E",
"8. c #38C460",
"9. c #57C96B",
"0. c #998145",
"q. c #8B8C51",
"w. c #A48764",
"e. c #AF906B",
"r. c #B2946E",
"t. c #B59770",
"y. c #BC9C74",
"u. c #92BF74",
"i. c #BFA176",
"p. c #DE8762",
"a. c #CB9A74",
"s. c #EB8B6A",
"d. c #EE916D",
"f. c #C2A479",
"g. c #C3A479",
"h. c #CAAC7F",
"j. c #86CF7A",
"k. c #9BC87B",
"l. c #A4CD7F",
"z. c #67BE82",
"x. c #77C48F",
"c. c #CDB081",
"v. c #D4B385",
"b. c #D8B787",
"n. c #D7B887",
"m. c #D9B988",
"M. c #E2BF8E",
"N. c #F6B789",
"B. c #F7B88A",
"V. c #83CE9D",
"C. c #A9CF81",
"Z. c #A6D184",
"A. c #DACB8E",
"S. c #C9D390",
"D. c #E0C08E",
"F. c #EAC693",
"G. c #EBC895",
"H. c #EECA96",
"J. c #F9C392",
"K. c #F2CD99",
"L. c #F3D19B",
"P. c #F9D59D",
"I. c #FDD7A1",
"U. c #FED9A2",
"Y. c #B4E1C4",
"T. c #C6E8D2",
"R. c #DAF1E2",
"E. c #E5F4EA",
"W. c #EFF8F0",
"Q. c #FFFFFF",
/* pixels */
"                                                                                                    ",
"                                                                                                    ",
"                                                                                                    ",
"                                . . . o X X X X X X X X X . o . . .                                 ",
"                        X + # * = 2 2 5 5 5 5 5 5 5 5 5 5 5 5 2 2 = = # + X                         ",
"                      # 1 5 0 q f f g x x x x x x x x x x x x h f f u 8 5 2 #                       ",
"                    $ 9 w g c ..X.X.X.+.X.X.@.X.@.X.X.+.+.X.+.X.X.X...c g i 0 %                     ",
"                  + 9 s  .+.O.O.O.O.O.O.@.@.@.+.@.@.O.@.@.O.@.@.O.O.@.O.+. .s 0 O                   ",
"                  * q  .$.O.O.O.O.O.O.@.O.O.O.O.+.@.@.@.@.@.@.@.O.@.O.O.O.$. .q *                   ",
"                  1 i +.O.O.O.$.O.O.O.+.O.O.O.O.O.O.@.@.@.@.@.X.O.O.O.O.@.O.O.i 2                   ",
"                  2 i O.O.O.O.$.@.O.@.@.@.3.V.Y.Y.Y.Y.x.;.@.@.O.O.O.O.O.O.O.O.i 2                   ",
"                  2 i O.O.O.O.O.O.O.@.@.x.E.Q.Q.Q.Q.Q.Q.R.z.@.O.O.O.$.O.O.O.O.i 2                   ",
"                  2 i O.O.O.O.O.O.O.@.x.E.Q.Q.Q.Q.Q.Q.Q.Q.R.5.@.O.O.O.O.O.O.O.i 2                   ",
"                  2 i O.O.O.O.$.O.O.3.T.Q.Q.Q.Q.Q.Q.Q.Q.Q.Q.T.;.$.$.O.O.O.#.O.i 2                   ",
"                  2 i O.O.#.O.$.O.O.5.E.W.W.W.W.W.W.W.W.W.W.E.5.$.$.$.$.O.O.+.i 2                   ",
"                  2 a &.&.&.&.&.*.=.=.*.*.*.*.*.*.*.*.*.*.*.*.*.=.&.&.&.&.&.&.a 2                   ",
"                  2 i 7.7.7.7.7.7.7.7.7.7.7.7.7.7.7.7.7.7.7.7.7.7.7.7.7.7.7.7.i 5                   ",
"                  5 a 7.7.7.7.7.7.7.7.7.7.7.7.7.7.7.7.7.7.7.7.7.7.7.7.7.7.7.7.a =                   ",
"                  2 i %.7.7.7.7.7.7.7.7.7.6.7.6.7.7.7.7.7.7.7.7.7.7.7.7.7.7.%.i 2                   ",
"                  & 0 z >.>.k.C.C.C.C.C.C.C.C.Z.C.C.l.C.l.C.C.C.C.l.l.l.,.>.z w *                   ",
"                @ 5 q w q Q K.U.U.U.U.U.U.U.U.U.U.U.U.U.U.U.U.U.U.U.U.U.t.5 0 q 5 #                 ",
"              + 5 l w.) j n.U.U.F./ ) G.U.U.U.U.U.U.U.U.U.U.F.) ^ M.U.U.H.m w.w.b 5 +               ",
"              < j r.c.i.g.P.U.U.e.p p y.U.U.U.U.U.U.U.U.U.U.y.w i r.U.U.U.v.g.c.r.j 2               ",
"              0 ! h.c.m.U.U.U.U.w.q q r.U.U.U.U.U.U.U.U.U.U.r.q q e.U.U.U.P.n.c.c.! 0               ",
"              q ^ c.c.n.U.U.U.U.r.w p i.U.P.P.K.M.M.H.U.U.U.y.p w r.U.U.U.U.n.c.v./ q               ",
"              5 n i.c.m.U.U.U.U.G.( ) K.U.P.K.b.c.c.v.H.I.I.H.) ^ F.U.U.U.P.n.c.g.n 7               ",
"              & w ^ g.b.P.U.U.U.U.U.U.U.K.t.) h.c.c.h.) e.H.U.U.U.U.U.U.U.P.m.i.^ q %               ",
"              X = 0 b / m.U.U.U.U.U.P.K.w.q d n ! ! m d q ) G.U.U.U.U.U.U.m.( b q * .               ",
"                X % 5 d h.U.U.U.U.P.U.h.d w w w q w q w q p g.U.U.U.U.U.I.n.k 5 # .                 ",
"                    # w y.U.U.U.U.U.U.v.l d 9 q 9 9 q q d n v.U.U.U.U.U.U.t.w *                     ",
"                . % 0 s 1.D.U.U.U.U.U.U.M.h.g.g.g.g.g.g.h.F.U.U.U.U.U.U.F.1.f 5 *                   ",
"                $ q h -.7.q.} | | | p.u.j.j.j.j.j.j.j.j.j.5.k.p.| | | | [ <.-.h 0 $                 ",
"              o 2 u -.7.7.8.q.P L L P 0.-.8.7.7.8.7.7.7.7.-.0.P U L U L L ~ =.-.i 1 o               ",
"              + 9 :.7.9.Z.Z.k.r.' L I P _ 2.7.6.6.6.6.-.2._ L L L L L L L T 4.8.:.0 +               ",
"              + q o.9.A.U.U.U.P.N.W I L L R T T ` ` ` T P L L L L L L L L E D.9.o.q @               ",
"              + 9 o.S.U.U.U.U.U.U.] L L L L L L L L L L L I L L L L L I L E J.S.o.0 O               ",
"              o 5 N L.U.U.U.U.U.U.] L L L L K J H H G K L L L L L L L L L E J.L.N 5 o               ",
"              o 1 Q K.U.U.U.U.U.B.W L L K J S S H S S F H L L I I I I L L E J.K.Q 2 o               ",
"              X 1 k K.U.U.U.U.U.d.U L L J H S S S S H S S F Z t t t B H L ] J.K.k 1 X               ",
"                * q v.U.U.U.P.N.W L L J H S S S S A A S A e : ; ; ; : 3 D s.U.v.0 *                 ",
"                @ 5 l m.H.H.N.{ L I L J Z V C y y y y C e - - - - - - - 0 a.b.b 5 @                 ",
"                  $ 8 l ! M Y B B B B r 4 : 8 5 1 = 5 8 : - - - - - - - > v l 5 %                   ",
"                  . @ q 6 - - - - - - - ; ; 8 1 o o 1 8 : - - - - - - - - 6 q #                     ",
"                    X 9 7 , : - - - - : : < 0 * .   = q , : ; - - - - - , 8 5 X                     ",
"                    . $ 7 q 5 6 6 < < 6 7 q 1 +     + 2 q 5 6 6 6 6 6 7 0 5 $                       ",
"                        @ * 5 q 0 w q q 2 $ o         o $ 2 7 q q q q 5 = @                         ",
"                          . . o o o o o .                 X . o o o o .                             ",
"                                                                                                    ",
"                                                                                                    ",
"                                                                                                    "
};
