/* XPM */
static char *_642232563611[] = {
/* columns rows colors chars-per-pixel */
"50 50 177 2 ",
"   c #000000",
".  c #090000",
"X  c #010D03",
"o  c #0A0907",
"O  c #0C0C0C",
"+  c #021C08",
"@  c #1E120B",
"#  c #131413",
"$  c #1A1A1A",
"%  c #350504",
"&  c #22160E",
"*  c #2C1D14",
"=  c #03230B",
"-  c #052E11",
";  c #063414",
":  c #063B17",
">  c #083E1A",
",  c #342419",
"<  c #36281B",
"1  c #30371F",
"2  c #361D21",
"3  c #1E2023",
"4  c #252526",
"5  c #2A2626",
"6  c #3B2827",
"7  c #393329",
"8  c #440806",
"9  c #510D0A",
"0  c #6C1411",
"q  c #462827",
"w  c #4C3828",
"e  c #503527",
"r  c #543A2B",
"t  c #583E2E",
"y  c #602423",
"u  c #7C312C",
"i  c #09431C",
"p  c #0B4C20",
"a  c #0D5223",
"s  c #0F5D28",
"d  c #105827",
"f  c #105E2A",
"g  c #385C32",
"h  c #14662E",
"j  c #156B31",
"k  c #167736",
"l  c #1A7B3A",
"z  c #52432F",
"x  c #4F4F32",
"c  c #5D4230",
"v  c #554C38",
"b  c #4D5D37",
"n  c #654A36",
"m  c #694D3A",
"M  c #60513A",
"N  c #6E533D",
"B  c #71553F",
"V  c #6C5A40",
"C  c #7D6047",
"Z  c #891B18",
"A  c #901A17",
"S  c #901F1A",
"D  c #9D231E",
"F  c #A1241F",
"G  c #903428",
"H  c #A72520",
"J  c #A92621",
"K  c #AB312C",
"L  c #BB322D",
"P  c #C1332D",
"I  c #D2322B",
"U  c #DE352E",
"Y  c #DE3730",
"T  c #DC3A31",
"R  c #E1322E",
"E  c #A85F3B",
"W  c #BE5939",
"Q  c #CC4432",
"!  c #D05136",
"~  c #81654B",
"^  c #896C4F",
"/  c #8B7844",
"(  c #897354",
")  c #977A5A",
"_  c #BC6149",
"`  c #A67C44",
"'  c #E76650",
"]  c #E97559",
"[  c #EB7C5F",
"{  c #1C853D",
"}  c #1F8D42",
"|  c #199444",
" . c #229446",
".. c #209A47",
"X. c #239D4A",
"o. c #3A9D4E",
"O. c #3A9C54",
"+. c #26A54F",
"@. c #24A94F",
"#. c #26A750",
"$. c #27A951",
"%. c #2BAA54",
"&. c #34A753",
"*. c #27B154",
"=. c #2AB356",
"-. c #2EB658",
";. c #2ABC59",
":. c #35B557",
">. c #65964E",
",. c #4BAF56",
"<. c #5CA353",
"1. c #43B95B",
"2. c #58B975",
"3. c #27C65E",
"4. c #2CC55E",
"5. c #33C35E",
"6. c #2FC760",
"7. c #33C661",
"8. c #38C662",
"9. c #46C766",
"0. c #43C865",
"q. c #55C968",
"w. c #59C86A",
"e. c #65C96D",
"r. c #73C96E",
"t. c #7BCB74",
"y. c #8B8748",
"u. c #9C8665",
"i. c #8F9C67",
"p. c #979D61",
"a. c #A68967",
"s. c #A88966",
"d. c #AC936C",
"f. c #B99D69",
"g. c #BA9B73",
"h. c #A5AE6F",
"j. c #C98E61",
"k. c #E68C67",
"l. c #F29A73",
"z. c #C2A278",
"x. c #CAA87E",
"c. c #F4A57D",
"v. c #85CE79",
"b. c #97C97A",
"n. c #66C084",
"m. c #D2AD82",
"M. c #D4B486",
"N. c #DCBA8A",
"B. c #F3AD81",
"V. c #96D080",
"C. c #ABCF82",
"Z. c #B1CD86",
"A. c #A5D183",
"S. c #B6D289",
"D. c #8ECDA2",
"F. c #97D5AC",
"G. c #C6D590",
"H. c #C9D591",
"J. c #DAD798",
"K. c #EAC693",
"L. c #EAC794",
"P. c #EFCD98",
"I. c #F2CE9A",
"U. c #E1D89A",
"Y. c #E9D89B",
"T. c #F4D19B",
"R. c #FAD59E",
"E. c #F2D99E",
"W. c #FBD7A0",
"Q. c #FED9A2",
"!. c #B4E8C5",
"~. c #B8EDCA",
"^. c #D2D9D3",
"/. c #D8F0E0",
"(. c #E2E2E2",
"). c #F3F3F3",
"_. c #FEFEFE",
/* pixels */
"                                                                                                    ",
"                                                                                                    ",
"                                                                                                    ",
"                                                                                                    ",
"                                                      .                                             ",
"                                  = i d d d d d d d d d d d d i ;                                   ",
"                          X ; h }  .X.X.X.X.X.X.X.X.X.X.X.X.X.X. .} p                               ",
"                      + p l +.+.+.+.+.+.+.+.+.+.#.#.+.+.+.+.+.+.#.#.} :                             ",
"                    ; l X.+.+.+.+.+.+.+.+.+.+.+.#.#.+.+.+.+.+.+.+.+.+.j                             ",
"                  i } #.+.+.+.+.+.+.+.+.+.+.+.+.#.#.+.#.+.+.+.+.+.+.&.O.X                           ",
"                - } +.+.+.+.+.+.+.+.+.+.+.+.+.+.+.+.+.+.+.+.+.&.n.~.).^.O                           ",
"              X j +.+.+.+.+.+.+.+.+.+.+.+.+.#.+.+.+.+.+.+.+.%.F._._._.(.O                           ",
"              - } +.+.+.+.+.+.+.+.+.+.+.+.+.+.+.+.+.+.+.+.#.D.)._._._.).O                           ",
"              > +.+.+.+.+.+.+.+.+.+.+.+.+.@.+.+.+.+.+.+.+.2./._._._._._.#                           ",
"              f +.+.+.+.+.+.+.+.@.@.+.+.#.@.#.#.%.#.+.+.%.2.~.~.!.~.!.!.l k a : =                   ",
"            X h +.+.+.+.+.+.+.+.+.$.%.%.*.=.=.;.;.4.4.4.4.4.3.3.3.3.4.4.4.4.4.*.} s +               ",
"              a +.+.+.+.+.$.*.;.;.;.4.4.4.4.4.4.6.4.4.4.6.4.4.4.4.4.4.4.4.4.4.4.4.;.i               ",
"              : +.$.*.;.4.4.4.4.4.4.4.4.4.;.4.4.4.4.4.4.4.4.4.4.4.4.4.4.4.4.4.4.4.;.i               ",
"              i %.4.4.4.4.4.4.6.4.5.4.4.3.3.4.6.7.7.8.0.9.9.q.w.w.e.r.:.@.X.....{ h X               ",
"              ;  .-.-.-.-.-.&.&.&.o.o.o.b.C.C.C.S.S.S.G.G.H.J.U.U.E.Q.v                             ",
"                1 b b b b b x x x z z V K.Q.Q.Q.Q.Q.Q.Q.Q.Q.Q.Q.Q.Q.Q.M                             ",
"                , r r r r r t m N B n s.T.Q.Q.Q.Q.x.n a.R.Q.Q.Q.Q.Q.Q.M                             ",
"                , r r r r r a.K.Q.Q.N.N.Q.Q.Q.Q.R.B r t I.Q.Q.Q.Q.Q.Q.M                             ",
"                , r r t r ) I.Q.Q.Q.Q.Q.Q.Q.Q.Q.W.c r r I.Q.Q.Q.Q.Q.Q.M                             ",
"                * r r r r M.Q.Q.Q.Q.Q.Q.Q.Q.Q.Q.Q.C r m T.Q.Q.Q.R.Q.Q.M.d.7                         ",
"                * r r r e N.Q.Q.Q.Q.Q.Q.Q.Q.Q.Q.Q.N.~ z.W.R.P.L.P.K.T.Q.R.u.                        ",
"                & w r r r ^ I.Q.Q.Q.Q.Q.Q.Q.Q.Q.Q.Q.Q.Q.K.s.C m n c ) R.R.s.                        ",
"                @ w r r n s.I.Q.Q.Q.Q.Q.Q.Q.Q.Q.Q.Q.Q.L.^ r r r r t t ( ( z                         ",
"                , ( s.M.I.R.Q.Q.Q.Q.Q.R.Q.Q.Q.Q.Q.Q.Q.a.r t r r r r r <                             ",
"                < M.Q.Q.Q.Q.Q.Q.Q.Q.Q.Q.Q.Q.Q.Q.Q.Q.Q.g.V t e r r e r ,                             ",
"                  ( I.Q.Q.Q.W.W.Q.Q.Q.Q.Q.Q.Q.Q.Q.Q.Q.Q.N.x.z.z.z.i.g o                             ",
"                    _ [ [ [ k.v.v.v.v.v.v.f.[ ] k.h.v.v.v.v.v.v.v.w.+.-                             ",
"                  % I U U Y / 4.7.7.7.7.6.,.T Y Y W <.;.4.4.5.6.4.4.4.p                             ",
"                  Z I U U Y >.6.2.V.A.A.t.1.E U Y R Q y.1.3.4.4.4.4.4.k                             ",
"                  D U U U T <.V.Y.Q.Q.Q.E.Z.y.R U Y Y T W ` >.,.3.3.6.| X                           ",
"                  F U U U T p.W.Q.Q.Q.Q.Q.W.j.R U R Y Y U U T Q ! ! ! G .                           ",
"                  F U U U U k.Q.Q.Q.Q.Q.Q.Q.k.I U U U U U U U U R Y U F . .                         ",
"                  D I U U U c.Q.Q.Q.Q.Q.Q.Q.' T U U U U U U U R Y Y R F .                           ",
"                  S U U Y Y l.Q.Q.Q.Q.Q.Q.) u G P U U U U U Y U U U U S                             ",
"                  9 I U U Y ' R.Q.Q.W.T.a.7 5 5 6 K U U U U U U U U U 0                             ",
"                    H I U U T ] B.m.a.v 4 4 5 4 4 q L U U U U U U I J %                             ",
"                    % Z D Z S A Z 2 3 4 4 4 5 4 4 5 y S S S S S D Z 8                               ",
"                                o 4 4 4 4 4 4 4 5 4 $                                               ",
"                                  $ 4 4 4 4 4 4 4 4 O                                               ",
"                                    O # $ $ $ $ O o                                                 ",
"                                                                                                    ",
"                                                                                                    ",
"                                                                                                    ",
"                                                                                                    ",
"                                                                                                    "
};
