/* XPM */
static char *_642232476971[] = {
/* columns rows colors chars-per-pixel */
"50 50 148 2 ",
"   c #000000",
".  c #000802",
"X  c #0B0B0B",
"o  c #021E09",
"O  c #15110A",
"+  c #131313",
"@  c #1A1A1A",
"#  c #261A11",
"$  c #04260D",
"%  c #04290E",
"&  c #052F11",
"*  c #063916",
"=  c #063B18",
"-  c #262117",
";  c #252626",
":  c #2A2626",
">  c #2A2A29",
",  c #5F2A28",
"<  c #423027",
"1  c #503527",
"2  c #523629",
"3  c #553B2B",
"4  c #593E2D",
"5  c #6D2A27",
"6  c #6B2C29",
"7  c #0A451D",
"8  c #0D4F22",
"9  c #1E4F25",
"0  c #085423",
"q  c #105827",
"w  c #115D29",
"e  c #12632C",
"r  c #156C31",
"t  c #3E753D",
"y  c #4E482F",
"u  c #54412D",
"i  c #5B412F",
"p  c #5B4D37",
"a  c #475634",
"s  c #4A5233",
"d  c #624734",
"f  c #654B37",
"g  c #6B4F3B",
"h  c #63553D",
"j  c #69593E",
"k  c #70543E",
"l  c #416539",
"z  c #685A42",
"x  c #715741",
"c  c #726246",
"v  c #7F654A",
"b  c #7F6C4E",
"n  c #7D6A52",
"m  c #851C17",
"M  c #94201B",
"N  c #872C2A",
"B  c #882C2A",
"V  c #932D28",
"C  c #BF2E29",
"Z  c #B0302B",
"A  c #C32E29",
"S  c #C4312A",
"D  c #CB312B",
"F  c #D4332D",
"G  c #DD352E",
"H  c #D13F31",
"J  c #D93A31",
"K  c #E1352E",
"L  c #8C493C",
"P  c #B8653C",
"I  c #C54739",
"U  c #D74436",
"Y  c #E24639",
"T  c #E14C3E",
"R  c #85694F",
"E  c #9F7E45",
"W  c #877354",
"Q  c #8A7756",
"!  c #957C5B",
"~  c #A27542",
"^  c #B37642",
"/  c #CE5644",
"(  c #DF5845",
")  c #E45B47",
"_  c #D3674C",
"`  c #E86650",
"'  c #E67D5F",
"]  c #EB7B5F",
"[  c #1C833D",
"{  c #1E8C41",
"}  c #1F9E49",
"|  c #2F8F47",
" . c #308F47",
".. c #219446",
"X. c #239949",
"o. c #26A44F",
"O. c #28B555",
"+. c #25BE5B",
"@. c #29B958",
"#. c #37BC5B",
"$. c #609C4F",
"%. c #648D56",
"&. c #6D9356",
"*. c #78955A",
"=. c #59BA61",
"-. c #25C65F",
";. c #2DC45E",
":. c #38C460",
">. c #57C96B",
",. c #818449",
"<. c #998145",
"1. c #959559",
"2. c #9F8561",
"3. c #A68E68",
"4. c #B69A6D",
"5. c #B69B71",
"6. c #B99E73",
"7. c #BEA379",
"8. c #DE8762",
"9. c #DF8E6B",
"0. c #CF9C77",
"q. c #EB8B6A",
"w. c #C0A377",
"e. c #C2A67A",
"r. c #84CE79",
"t. c #9DCE7F",
"y. c #A1CC7F",
"u. c #CDAE80",
"i. c #CDB081",
"p. c #D6B687",
"a. c #DCBC8B",
"s. c #E0BE8E",
"d. c #F4B789",
"f. c #F6B789",
"g. c #A6D184",
"h. c #DBC08A",
"j. c #CAD490",
"k. c #DCD597",
"l. c #E3C08F",
"z. c #E5C491",
"x. c #EAC793",
"c. c #EECA96",
"v. c #EFCB98",
"b. c #F9C392",
"n. c #F5D29C",
"m. c #FCD49D",
"M. c #FDD7A1",
"N. c #FED9A2",
/* pixels */
"                                                                                                    ",
"                                                                                                    ",
"                                                                                                    ",
"                                                                                                    ",
"                                                                                                    ",
"                              & 8 q q r r r r r r r r r r r r w q q *                               ",
"                        % w { ..X.X.o.o.o.o.X.o.o.o.o.X.o.o.o.X.X.X...[ e $                         ",
"                    . 7 { o.o.o.o.o.o.o.o.o.o.o.o.o.o.o.o.o.o.o.o.o.o.o.o...7                       ",
"                    o { o.o.o.o.o.o.o.o.o.o.o.o.o.o.o.o.o.o.o.o.o.o.o.o.o.o...o                     ",
"                    $ o.o.o.o.o.O.o.o.o.o.o.o.o.o.o.o.o.o.o.o.o.o.o.o.o.o.o.o.$                     ",
"                    $ o.o.o.o.o.o.o.o.o.o.o.o.o.o.o.o.o.o.o.o.o.o.o.o.o.O.o.o.$                     ",
"                    $ o.o.o.o.o.o.o.o.o.o.o.o.o.o.o.o.o.o.o.o.o.o.o.o.o.o.o.o.$                     ",
"                    $ o.o.o.o.o.o.o.o.o.o.o.o.o.o.o.o.o.O.o.o.o.o.o.o.o.o.o.o.$                     ",
"                    $ o.o.o.o.o.o.o.o.o.o.o.o.o.o.o.o.o.o.o.o.o.o.o.o.o.o.o.o.$                     ",
"                    $ o.o.o.o.o.o.o.o.o.o.o. .l a a l  .o.o.o.o.o.o.o.o.o.o.o.$                     ",
"                    $ o.o.X.o.o.o.o.o.o.o.| y 3 4 4 3 y  .o.o.o.o.o.o.X.o.o.o.$                     ",
"                    $ X.X.X.X.X.X.X.X.X.X.s 3 3 3 3 3 3 s X.X.X.X.X.X.X.X.X.X.$                     ",
"                    $ X.X.X.X.X.X.X.X.X.X.s u u u u u 3 s X.X.X.X.X.X.X.X.X.X.$                     ",
"                    o { X.X.X.X.X.o.X.X.X.X.X.X.} X.X.X.X.X.X.} X.X.X.X.X.X.[ o                     ",
"                    . 9 t t t t t t t l t t t t t t t t t t t t t t t t t t 9 .                     ",
"                      # 3 3 3 3 3 3 3 3 3 3 3 3 3 3 3 3 2 2 3 3 3 3 3 3 2 2 #                       ",
"                  j 3.3.1 4 3 3 3 3 3 3 3 3 3 3 3 3 3 3 3 3 3 3 3 3 3 3 3 1 3.3.j                   ",
"                u 5.e.5.1 u 3 3 3 3 3 3 3 3 3 3 3 3 3 3 3 3 3 3 3 3 3 3 3 2 5.i.5.u                 ",
"                b u.i.5.1 3 3 3 3 3 3 3 3 3 3 3 3 3 3 3 3 3 3 3 3 3 3 4 3 2 5.i.e.W                 ",
"                W e.p.7.u 3 4 3 3 3 3 3 3 3 3 3 3 3 3 3 3 3 4 3 3 3 3 3 3 4 6.i.i.W                 ",
"                j e.i.w.R k f i 3 3 3 3 3 3 3 3 3 3 3 3 3 3 3 3 3 3 4 f x v 7.i.e.z                 ",
"                - Q e.p.x.z.e.6.2.R k d i 2 < 2 1 1 1 2 2 4 d g R ! 4.u.z.v.p.7.Q #                 ",
"                  O j Q z.N.N.N.n.v.z.a.a.p.p.p.p.p.p.p.p.p.a.s.c.n.N.N.N.x.! h O                   ",
"                      < i.N.N.N.N.N.N.N.N.N.N.N.N.N.M.N.N.N.N.N.N.N.N.N.N.l.p                       ",
"                      - e.N.N.N.N.N.N.N.N.N.M.N.N.N.N.N.N.N.M.N.N.N.N.N.N.7.O                       ",
"                    . 0 &.c.M.N.M.m.N.N.M.M.N.N.N.N.M.N.M.M.N.N.N.N.N.N.c.*.0 .                     ",
"                    e @.+.1.' ] ] ' 8.t.g.>.g.r.r.r.r.r.r.>.t.8.] ' ' ] _ $.@.e                     ",
"                  = O.-.;.:.,.U G G J E #.;.;.;.;.;.;.;.;.:.<.J G K G G K E @.O.=                   ",
"                  { ;.>.t.g.y.4.) G G G ~ $.#.-.-.-.-.#.&.~ G G G G G G K P =.;.{                   ",
"                  o.>.k.N.N.m.m.f.( G G K H P ^ ^ ^ ^ P H K G G G G K G G T h.>.o.                  ",
"                  } j.N.N.N.N.N.N.) G G K G G G K G G G G G G G G G G G G Y b.j.}                   ",
"                . %.n.m.N.N.N.N.M./ S A G G G G G G G G G F A A S S D G G Y b.n.%.                  ",
"                  Q n.N.N.N.N.N.f.I C C F G K G G G G G K F A A S S D G K Y b.n.Q                   ",
"                  h n.N.N.N.N.N.9.S A A G G G G K G G G K F V 5 5 5 N S G ) b.n.h                   ",
"                    a.N.N.N.m.f.U D D F G G G F J G F G F 6 : : ; ; ; < Z q.m.a.                    ",
"                    c a.n.v.f.` G K K K D Z M m m m m M 5 ; > ; ; ; ; ; 2 0.z.c                     ",
"                      h n n L N B B B B , ; .           ; ; ; ; ; ; > ; > h h                       ",
"                        @ ; ; ; ; ; ; ; ; ; X         X ; ; ; ; ; ; ; ; ; @                         ",
"                        X # ; ; ; ; ; ; ; @             @ ; ; ; ; ; ; ; @ X                         ",
"                          X X @ @ @ @ @ X                 X + @ @ @ @ + .                           ",
"                                                                                                    ",
"                                                                                                    ",
"                                                                                                    ",
"                                                                                                    ",
"                                                                                                    "
};
