/* XPM */
static char *_642232550011[] = {
/* columns rows colors chars-per-pixel */
"50 50 176 2 ",
"   c #000000",
".  c #0C0603",
"X  c #010D03",
"o  c #0C0C0C",
"O  c #021C08",
"+  c #091111",
"@  c #151615",
"#  c #1B1B1B",
"$  c #3A0504",
"%  c #24170F",
"&  c #2C1D14",
"*  c #03230B",
"=  c #052E11",
"-  c #063414",
";  c #063B17",
":  c #083E1A",
">  c #342419",
",  c #392B1E",
"<  c #30371F",
"1  c #252525",
"2  c #2E2726",
"3  c #352827",
"4  c #7E1916",
"5  c #4E2A28",
"6  c #503527",
"7  c #543A2B",
"8  c #583E2E",
"9  c #6C2C29",
"0  c #762B29",
"q  c #09431C",
"w  c #0B4C20",
"e  c #0D5223",
"r  c #0F5D28",
"t  c #105827",
"y  c #105E2A",
"u  c #385C32",
"i  c #14662E",
"p  c #156B31",
"a  c #167736",
"s  c #1A7B3A",
"d  c #52432F",
"f  c #5B402F",
"g  c #5D4230",
"h  c #564D36",
"j  c #4F5033",
"k  c #4D5D37",
"l  c #654A36",
"z  c #694D3A",
"x  c #60513A",
"c  c #6E533D",
"v  c #71553F",
"b  c #6C5A40",
"n  c #7E664B",
"m  c #8F1F1B",
"M  c #901F1A",
"N  c #8C231F",
"B  c #9B221D",
"V  c #A1241F",
"C  c #8C2926",
"Z  c #872C2A",
"A  c #8A2D2A",
"S  c #912C28",
"D  c #9C3B26",
"F  c #A42621",
"G  c #CF342D",
"H  c #D5342D",
"J  c #DE352E",
"K  c #DE3730",
"L  c #D53E31",
"P  c #DA3B31",
"I  c #E1352E",
"U  c #BE5939",
"Y  c #C84834",
"T  c #D54533",
"R  c #C35337",
"E  c #D05136",
"W  c #E1483B",
"Q  c #81654B",
"!  c #896C4F",
"~  c #897455",
"^  c #967A5A",
"/  c #BD6445",
"(  c #A67C44",
")  c #B47F50",
"_  c #E45947",
"`  c #E7654F",
"'  c #EA7C5F",
"]  c #1C853D",
"[  c #1F8D42",
"{  c #199444",
"}  c #229446",
"|  c #209A47",
" . c #239D4A",
".. c #3A9D4E",
"X. c #3A9C54",
"o. c #26A54F",
"O. c #24A94F",
"+. c #26A750",
"@. c #27A951",
"#. c #2BAA54",
"$. c #34A753",
"%. c #27B154",
"&. c #2AB356",
"*. c #2EB658",
"=. c #2ABC59",
"-. c #35B758",
";. c #37AE60",
":. c #69954D",
">. c #71904D",
",. c #46AC55",
"<. c #5CA452",
"1. c #45B257",
"2. c #5FB35C",
"3. c #58B975",
"4. c #27C65E",
"5. c #2CC55E",
"6. c #33C35E",
"7. c #35C661",
"8. c #46C766",
"9. c #44C865",
"0. c #56CA6A",
"q. c #59C86A",
"w. c #63C86B",
"e. c #73C96E",
"r. c #6DCA71",
"t. c #888D4A",
"y. c #8F9C67",
"u. c #A58865",
"i. c #A88966",
"p. c #A9AD6F",
"a. c #B9A16B",
"s. c #ED8163",
"d. c #EE8968",
"f. c #F19772",
"g. c #C2A278",
"h. c #CAA87E",
"j. c #EAA67C",
"k. c #84CE79",
"l. c #95C476",
"z. c #66C084",
"x. c #CCAF81",
"c. c #D5B486",
"v. c #DCBA8A",
"b. c #EEBB8A",
"n. c #ABCF82",
"m. c #B0CD86",
"M. c #B5D288",
"N. c #8ECDA2",
"B. c #97D5AC",
"V. c #C8CA89",
"C. c #C2D48F",
"Z. c #C6D590",
"A. c #C9D591",
"S. c #DAD797",
"D. c #E3C08F",
"F. c #F9C08F",
"G. c #EAC693",
"H. c #EAC794",
"J. c #EFCD98",
"K. c #F9C392",
"L. c #F2CE9A",
"P. c #E1D89A",
"I. c #F5D19B",
"U. c #F9D59D",
"Y. c #F2D99E",
"T. c #FBD7A0",
"R. c #FED9A2",
"E. c #B4E8C5",
"W. c #B8EDCA",
"Q. c #D2D9D3",
"!. c #C1E5CD",
"~. c #D8F0E0",
"^. c #E2E2E2",
"/. c #F3F3F3",
"(. c #F3FAF5",
"). c #FEFEFE",
/* pixels */
"                                                                                                    ",
"                                                                                                    ",
"                                                                                                    ",
"                                                                                                    ",
"                                                                                                    ",
"                                  ; q t t t t t t t t t t t t q *                                   ",
"                              q ] }  . . . . . . . . . . . . . .} ] i - X                           ",
"                            - [ +.+.+.o.+.o.+.o.o.o.o.o.+.o.o.o.o.o.o.o.s w O                       ",
"                          X i +.o.o.o.o.o.o.o.o.o.o.o.o.o.o.o.o.o.o.o.o.o. .s -                     ",
"                          X X.;.o.o.o.o.o.o.o.o.o.o.o.o.o.o.o.o.o.o.o.o.o.+.o.[ q                   ",
"                          o Q./.!.z.#.o.o.o.o.o.o.o.o.o.o.o.o.o.o.o.o.o.o.o.o.o.[ -                 ",
"                          o ^.).).).B.#.o.o.o.o.o.o.o.o.o.o.o.o.o.o.o.o.o.o.o.o.o.p X               ",
"                          o /.).).).(.N.+.o.o.o.o.o.o.o.o.o.o.o.o.o.o.o.o.o.o.o.o.[ =               ",
"                          @ (.).).).).~.3.+.o.o.o.o.o.o.o.o.o.o.o.o.o.o.o.o.o.o.o.o.:               ",
"                  * ; e a a E.W.W.W.W.W.3.#.@.o.@.O.o.o.o.o.o.o.o.o.o.o.o.o.o.o.o.o.y X             ",
"              O r [ %.5.5.5.5.4.4.5.4.5.5.5.5.5.5.=.=.=.&.&.&.#.@.#.o.o.o.o.o.o.o.o.i               ",
"            X q =.5.5.5.5.5.5.5.5.5.5.5.5.5.5.5.5.5.5.5.5.5.5.5.5.=.&.&.@.O.o.o.o.o.w               ",
"              q =.5.5.5.5.5.5.5.5.5.5.5.5.5.5.5.5.5.5.5.5.5.5.5.5.5.5.5.5.5.=.&.@.o.:               ",
"              X r ]  .|  .@.-.e.w.q.q.0.8.8.8.7.7.7.5.5.5.5.5.5.5.5.5.5.5.5.5.5.5.#.:               ",
"                            h R.Y.P.P.S.A.Z.A.M.M.M.n.n.n.l.......$.$.$.&.-.*.*.*.} -               ",
"                            x R.R.R.U.R.R.R.R.R.R.R.R.R.R.D.b d d j j j k k k k k <                 ",
"                            x R.R.R.R.R.R.U.u.z h.R.R.R.R.U.i.l c v z f 7 7 7 7 7 >                 ",
"                            x R.R.R.R.R.R.L.f 7 b R.R.R.R.R.v.v.U.R.G.u.8 7 7 7 7 >                 ",
"                            h R.R.R.R.R.R.L.7 7 8 T.R.R.R.R.R.R.R.R.R.I.^ 7 8 7 7 >                 ",
"                        > ~ x.R.R.R.R.U.U.I.l d Q R.R.R.R.R.R.R.R.R.R.R.v.5 7 7 7 >                 ",
"                        ~ L.R.I.G.H.J.J.U.U.g.! b.R.R.R.R.R.R.R.R.R.R.R.c.6 7 7 7 &                 ",
"                        u.J.Y.^ f l z n i.H.U.R.T.R.R.R.R.R.R.R.R.R.R.L.! 7 7 7 7 &                 ",
"                        d n ~ 7 7 7 7 7 7 ! J.U.R.R.T.R.R.R.R.R.R.R.R.L.i.c 7 7 6 %                 ",
"                            , 7 7 7 7 7 f f u.U.R.R.R.R.R.R.R.R.R.R.R.R.T.L.c.i.~ >                 ",
"                            > 7 7 7 7 7 g c a.U.R.R.R.R.R.R.R.R.R.R.R.R.R.R.R.R.c.,                 ",
"                            . u y.g.g.g.g.v.R.R.R.R.R.R.R.R.R.R.R.R.R.R.R.R.R.J.~                   ",
"                            = o.q.k.k.k.k.k.N.e.p.s.' ' ' a.k.k.k.k.k.k.p.' ' /                     ",
"                            w 5.5.5.5.5.5.7.6.<.R K J J T ,.5.6.9.q.w.w.2.Y K H $                   ",
"                            a 5.5.5.5.5.4.1.t.Y I I J J T 5.4.r.C.R.R.R.m.) J H 4                   ",
"                          X { 4.4.4.,.:.( U H J J J J J T -.0.S.R.R.R.R.R.b._ H B                   ",
"                          . D E E E T L K K K J J J J J P >.M.R.R.R.R.R.R.U.d.P V                   ",
"                            F I J J J J J J J J J J J J J / V.R.R.R.R.R.R.R.f.P V                   ",
"                        o @ C I J I J J J J J J J J J J I T j.R.R.R.R.R.R.R.f.K S +                 ",
"                      . 1 1 9 I J J J J J J J J J J J J I J ` K.R.R.R.R.R.F.` H 9 1 @               ",
"                      o 1 2 5 J J J J J J J J J J J J I J J J W ` s.s.s.` W J G 5 1 #               ",
"                      o 1 1 3 A H K K K I J K K J J J J J J J J J J J J I K P S 1 1 #               ",
"                        @ 1 2 3 0 Z A A C M M M M M M M M M M M m N Z Z Z Z 0 2 1 1 o               ",
"                          @ 1 1 1 1 1 1 #                         o 1 1 1 1 1 1 1 o                 ",
"                            o 1 1 1 2 1 @                         o 1 2 1 1 1 #                     ",
"                                @ @ # @                             o # # @                         ",
"                                                                                                    ",
"                                                                                                    ",
"                                                                                                    ",
"                                                                                                    ",
"                                                                                                    "
};
