/* XPM */
static char *_642232510716[] = {
/* columns rows colors chars-per-pixel */
"50 50 175 2 ",
"   c #000000",
".  c #0C0603",
"X  c #010D03",
"o  c #0C0C0C",
"O  c #021C08",
"+  c #091111",
"@  c #151615",
"#  c #1B1B1B",
"$  c #3A0504",
"%  c #24170F",
"&  c #2C1D14",
"*  c #03230B",
"=  c #052E11",
"-  c #063414",
";  c #063B17",
":  c #083E1A",
">  c #2A2619",
",  c #342419",
"<  c #392B1E",
"1  c #30371F",
"2  c #252525",
"3  c #2E2726",
"4  c #352827",
"5  c #7E1916",
"6  c #4E2A28",
"7  c #4D3A2A",
"8  c #503527",
"9  c #543A2B",
"0  c #583E2E",
"q  c #6C2C29",
"w  c #762B29",
"e  c #09431C",
"r  c #0B4C20",
"t  c #0D5223",
"y  c #0F5D28",
"u  c #105827",
"i  c #105E2A",
"p  c #385C32",
"a  c #14662E",
"s  c #156B31",
"d  c #167736",
"f  c #1A7B3A",
"g  c #52432F",
"h  c #5B402F",
"j  c #4F4F32",
"k  c #5D4230",
"l  c #564D36",
"z  c #4D5D37",
"x  c #654A36",
"c  c #694D3A",
"v  c #60513A",
"b  c #6E533D",
"n  c #71553F",
"m  c #6C5A40",
"M  c #7E664B",
"N  c #8F1B18",
"B  c #901E1A",
"V  c #8C231F",
"C  c #9B221D",
"Z  c #A1241F",
"A  c #8C2926",
"S  c #872C2A",
"D  c #8A2D2A",
"F  c #912C28",
"G  c #9C3B26",
"H  c #A42621",
"J  c #CF342D",
"K  c #D5342D",
"L  c #DE352E",
"P  c #DA3B31",
"I  c #DE3830",
"U  c #E1352E",
"Y  c #E03D33",
"T  c #BC5B3A",
"R  c #B7643C",
"E  c #CA4633",
"W  c #D24733",
"Q  c #C95339",
"!  c #D05136",
"~  c #81654B",
"^  c #896C4F",
"/  c #897455",
"(  c #967A5A",
")  c #BC6149",
"_  c #A67C44",
"`  c #E35242",
"'  c #E6624D",
"]  c #E97156",
"[  c #EA7B5E",
"{  c #1C853D",
"}  c #1F8D42",
"|  c #199444",
" . c #229446",
".. c #209A47",
"X. c #239D4A",
"o. c #3A9D4E",
"O. c #3A9C54",
"+. c #26A54F",
"@. c #24A94F",
"#. c #26A750",
"$. c #27A951",
"%. c #2BAA54",
"&. c #34A753",
"*. c #27B154",
"=. c #2AB356",
"-. c #2EB658",
";. c #2ABC59",
":. c #37B658",
">. c #37AE60",
",. c #69954D",
"<. c #45AF56",
"1. c #5BA753",
"2. c #67A251",
"3. c #58B975",
"4. c #7AB167",
"5. c #27C65E",
"6. c #2CC55E",
"7. c #32C45F",
"8. c #33C661",
"9. c #38C662",
"0. c #45C765",
"q. c #55C968",
"w. c #59C86A",
"e. c #63CA6D",
"r. c #73C96E",
"t. c #79CE78",
"y. c #888D4A",
"u. c #8F9C67",
"i. c #A58865",
"p. c #A88966",
"a. c #BA9B73",
"s. c #A5AE6F",
"d. c #BAA76D",
"f. c #D19065",
"g. c #E88C69",
"h. c #F19D76",
"j. c #C2A278",
"k. c #CAA87E",
"l. c #85CE79",
"z. c #93C377",
"x. c #66C084",
"c. c #CCAF81",
"v. c #D5B486",
"b. c #DCBA8A",
"n. c #F5AD82",
"m. c #95D182",
"M. c #ABCF82",
"N. c #B6D289",
"B. c #8ECDA2",
"V. c #97D5AC",
"C. c #C6D590",
"Z. c #C9D591",
"A. c #DAD798",
"S. c #EAC693",
"D. c #EAC794",
"F. c #EFCD98",
"G. c #F2CE9A",
"H. c #FBCC98",
"J. c #E2D89A",
"K. c #EBD89C",
"L. c #F5D19B",
"P. c #FAD49D",
"I. c #F2D99E",
"U. c #FBD7A0",
"Y. c #F4DBA1",
"T. c #FED9A2",
"R. c #B4E8C5",
"E. c #B8EDCA",
"W. c #D2D9D3",
"Q. c #C1E5CD",
"!. c #D8F0E0",
"~. c #E2E2E2",
"^. c #F3F3F3",
"/. c #F3FAF5",
"(. c #FEFEFE",
/* pixels */
"                                                                                                    ",
"                                                                                                    ",
"                                                                                                    ",
"                                                                                                    ",
"                                                                                                    ",
"                                  ; e u u u u u u u u u u u u e *                                   ",
"                              e {  .X.X.X.X.X.X.X.X.X.X.X.X.X.X. .{ a - X                           ",
"                            - } #.#.#.+.#.+.#.+.+.+.+.+.#.+.+.+.+.+.+.+.f r O                       ",
"                          X a #.+.+.+.+.+.+.+.+.+.+.+.+.+.+.+.+.+.+.+.+.+.X.f -                     ",
"                          X O.>.+.+.+.+.+.+.+.+.+.+.+.+.+.+.+.+.+.+.+.+.+.+.+.} e                   ",
"                          o W.^.Q.x.%.+.+.+.+.+.+.+.+.+.+.+.+.+.+.+.+.+.+.+.+.+.} -                 ",
"                          o ~.(.(.(.V.%.+.+.+.+.+.+.+.+.+.+.+.+.+.+.+.+.+.+.+.+.+.s X               ",
"                          o ^.(.(.(./.B.#.+.+.+.+.+.+.+.+.+.+.+.+.+.+.+.+.+.+.+.+.} =               ",
"                          @ /.(.(.(.(.!.3.#.+.+.+.+.+.+.+.+.+.+.+.+.+.+.+.+.+.+.+.+.:               ",
"                  * ; t d d R.E.E.E.E.E.3.%.$.+.$.@.+.+.+.+.+.+.+.+.+.+.+.+.+.+.+.+.i X             ",
"              O y } *.6.6.6.6.5.5.6.5.6.6.6.6.6.6.;.;.;.=.=.=.%.%.%.+.+.+.+.+.+.+.+.a               ",
"            X e ;.6.6.6.6.6.6.6.6.6.6.6.6.6.6.6.6.6.6.6.6.6.6.6.6.;.=.*.$.@.+.+.+.+.r               ",
"              e ;.6.6.6.6.6.6.6.6.6.6.6.6.6.6.6.6.6.6.6.6.6.6.6.6.6.6.6.6.6.;.=.%.+.:               ",
"              X y { ..X.X.$.:.r.e.w.w.q.0.0.0.9.9.8.6.6.6.7.6.6.6.6.6.6.6.6.6.6.6.$.e               ",
"                            l T.I.J.J.A.Z.C.C.N.N.N.M.M.z.z.&.o.o.&.&.&.=.-.-.-.-. .-               ",
"                            v T.P.T.T.T.T.T.T.T.T.T.T.T.T.S.m g g j j j z z z z z 1                 ",
"                            v T.T.T.T.T.T.P.i.c k.T.T.T.T.U.i.x n b b h 9 9 9 9 9 ,                 ",
"                            v T.T.T.T.T.T.L.h 9 m U.T.T.T.T.b.b.T.T.S.i.0 9 9 0 9 ,                 ",
"                            l T.T.T.T.T.T.G.8 9 0 U.T.T.T.T.T.T.T.T.P.L.( 9 9 9 9 ,                 ",
"                        > ( c.T.T.T.T.T.T.L.c 9 ~ U.T.T.T.T.T.T.T.T.T.T.b.8 9 9 9 ,                 ",
"                        / F.P.G.D.D.D.D.P.T.a.M b.T.T.T.T.T.T.T.T.T.T.T.v.8 0 9 9 &                 ",
"                        i.F.I.i.k c c M p.D.T.T.T.T.T.T.T.T.T.T.T.T.T.D.^ 8 9 9 9 &                 ",
"                        7 M / 9 9 9 9 9 9 ^ D.T.T.T.T.T.T.T.T.T.T.T.T.L.p.b 9 9 8 %                 ",
"                            < 9 9 9 9 9 9 0 p.T.T.T.T.T.U.T.T.T.T.T.T.T.P.L.v.p./ ,                 ",
"                            , 9 9 9 9 8 k b a.T.T.U.T.T.T.T.T.T.T.T.T.T.T.T.T.T.v.<                 ",
"                            . p u.j.j.j.c.b.P.T.T.T.T.U.T.T.T.T.T.T.T.T.T.T.T.F./                   ",
"                            = +.w.l.l.l.l.l.l.l.s.[ j.l.l.l.l.l.l.d.g.[ [ [ [ )                     ",
"                            r 6.6.6.6.8.6.6.8.1.Q Q 4.t.m.m.e.8.7.1.Q P L L L K $                   ",
"                            d 6.6.6.6.5.5.<.y.E L g.Y.T.T.T.J.l.7.:.R L L L L K 5                   ",
"                          X | 5.5.5.<.,._ T P U Y H.T.T.T.T.T.K.0.:.T L L L L L C                   ",
"                          . G ! ! ! W P I L L L Y U.T.T.T.T.T.T.t.2.E L L L L L Z                   ",
"                            H U L L L U L L L L U h.T.T.T.T.T.T.z._ L L L L U K F                   ",
"                        o @ A U L L L L L L U L I ' H.T.T.T.T.U.f.K L L L L U K F +                 ",
"                      . 2 2 q U L L L L L L L L L Y h.T.T.U.T.H.` L L L L U L K w 2 @               ",
"                      o 2 3 6 L L L U L L L L L L L ` n.U.U.H.[ L L L L L L L J 6 2 &               ",
"                      o 2 2 4 D P L U U L L U L L L U Y ] g.' I L L L U U U P D 2 2 #               ",
"                        @ 2 3 4 w S S S A B B V B B B B N N B B B V S S S S w 3 2 # o               ",
"                          @ 2 2 2 2 2 2 #                         o 2 2 2 2 2 2 2 o                 ",
"                            o 2 2 2 3 2 @                         o 2 2 2 2 2 #                     ",
"                                o # # @ .                           + # # @ .                       ",
"                                                                                                    ",
"                                                                                                    ",
"                                                                                                    ",
"                                                                                                    ",
"                                                                                                    "
};
