/* XPM */
static char *_642232539652[] = {
/* columns rows colors chars-per-pixel */
"50 50 175 2 ",
"   c #000000",
".  c #090000",
"X  c #010D03",
"o  c #0A0907",
"O  c #0C0C0C",
"+  c #1E0101",
"@  c #021C08",
"#  c #141514",
"$  c #1A1A1A",
"%  c #350504",
"&  c #24170F",
"*  c #2C1D14",
"=  c #03230B",
"-  c #052E11",
";  c #063414",
":  c #063B17",
">  c #083E1A",
",  c #2A2619",
"<  c #342419",
"1  c #392B1E",
"2  c #30371F",
"3  c #361D21",
"4  c #1E2023",
"5  c #252525",
"6  c #2A2626",
"7  c #3B2827",
"8  c #35312D",
"9  c #440806",
"0  c #66120F",
"q  c #6C1411",
"w  c #7E1916",
"e  c #462827",
"r  c #4D3A2A",
"t  c #503527",
"y  c #543A2B",
"u  c #583E2E",
"i  c #602423",
"p  c #7C312C",
"a  c #09431C",
"s  c #0B4C20",
"d  c #0D5223",
"f  c #0F5D28",
"g  c #105827",
"h  c #105E2A",
"j  c #385C32",
"k  c #14662E",
"l  c #156B31",
"z  c #167736",
"x  c #1A7B3A",
"c  c #52432F",
"v  c #5D4230",
"b  c #554C38",
"n  c #4F5033",
"m  c #4D5D37",
"M  c #654A36",
"N  c #694D3A",
"B  c #60513A",
"V  c #6E533D",
"C  c #71553F",
"Z  c #6C5A40",
"A  c #7E664B",
"S  c #8A1B18",
"D  c #901A17",
"F  c #901F1A",
"G  c #9B221D",
"H  c #A1241F",
"J  c #903428",
"K  c #A72520",
"L  c #A92621",
"P  c #AB312C",
"I  c #BB322D",
"U  c #C1332D",
"Y  c #D3322B",
"T  c #DE352E",
"R  c #DE3730",
"E  c #D53E31",
"W  c #DC3A31",
"Q  c #E1322E",
"!  c #A85F3B",
"~  c #CC4432",
"^  c #CB4D35",
"/  c #D05136",
"(  c #81654B",
")  c #896C4F",
"_  c #8B7844",
"`  c #897455",
"'  c #967A5A",
"]  c #BC6149",
"[  c #E76650",
"{  c #E97559",
"}  c #EB7C5F",
"|  c #1C853D",
" . c #1F8D42",
".. c #199444",
"X. c #229446",
"o. c #209A47",
"O. c #239D4A",
"+. c #3A9D4E",
"@. c #3A9C54",
"#. c #26A54F",
"$. c #24A94F",
"%. c #26A750",
"&. c #27A951",
"*. c #2BAA54",
"=. c #34A753",
"-. c #27B154",
";. c #2AB356",
":. c #2EB658",
">. c #2ABC59",
",. c #35B557",
"<. c #37AE60",
"1. c #65964E",
"2. c #4BAF56",
"3. c #5CA353",
"4. c #58B975",
"5. c #27C65E",
"6. c #2CC55E",
"7. c #33C35E",
"8. c #2EC760",
"9. c #33C661",
"0. c #38C662",
"q. c #46C766",
"w. c #43C865",
"e. c #55C968",
"r. c #59C86A",
"t. c #66C96C",
"y. c #73C96E",
"u. c #7DCB74",
"i. c #8B8748",
"p. c #9B8669",
"a. c #8F9C67",
"s. c #A58967",
"d. c #A88966",
"f. c #B99D69",
"g. c #BA9B73",
"h. c #A5AE6F",
"j. c #C98E61",
"k. c #E68C67",
"l. c #F29A73",
"z. c #C2A278",
"x. c #CAA87E",
"c. c #F4A57D",
"v. c #85CE79",
"b. c #95C476",
"n. c #66C084",
"m. c #CCAF81",
"M. c #D2AD82",
"N. c #D5B486",
"B. c #DCBA8A",
"V. c #95D080",
"C. c #ABCF82",
"Z. c #A5D183",
"A. c #B6D289",
"S. c #8ECDA2",
"D. c #97D5AC",
"F. c #C9D591",
"G. c #DAD798",
"H. c #E3C08F",
"J. c #EAC693",
"K. c #EFCD98",
"L. c #F2CE9A",
"P. c #E1D89A",
"I. c #F4D19B",
"U. c #FAD59D",
"Y. c #F2D99E",
"T. c #FBD7A0",
"R. c #FED9A2",
"E. c #B4E8C5",
"W. c #B8EDCA",
"Q. c #D2D9D3",
"!. c #D8F0E0",
"~. c #E2E2E2",
"^. c #F3F3F3",
"/. c #F3FAF5",
"(. c #FEFEFE",
/* pixels */
"                                                                                                    ",
"                                                                                                    ",
"                                                                                                    ",
"                                                                                                    ",
"                                                                                                    ",
"                                  ; a g g g g g g g g g g g g a =                                   ",
"                              a  .X.o.O.O.O.O.O.O.O.O.O.O.O.O.O.X.| k ; X                           ",
"                            ; X.#.#.%.%.%.#.#.#.#.#.#.#.#.#.#.#.#.#.#.#.x s @                       ",
"                            l %.#.#.#.%.#.#.#.#.#.#.#.#.#.#.#.#.#.#.#.#.#.O.x ;                     ",
"                          X @.<.#.#.#.%.#.#.#.#.#.#.#.#.#.#.#.#.#.#.#.#.#.%.#. .a                   ",
"                          O Q.^.W.n.=.%.#.#.#.#.#.#.#.#.#.#.#.#.#.#.#.#.#.#.#.#. .;                 ",
"                          O ~.(.(.(.D.*.#.#.#.#.#.#.#.#.#.#.*.#.#.#.#.#.#.#.#.#.#.l X               ",
"                          O ^.(.(.(./.S.#.#.#.#.#.#.#.#.#.#.#.#.#.#.#.#.#.#.#.#.#. .-               ",
"                          # /.(.(.(.(.!.4.#.#.#.#.#.#.#.#.#.#.#.#.#.#.#.#.#.#.#.#.#.>               ",
"                  = : d z z E.W.W.W.W.W.4.*.&.#.&.&.#.#.$.#.#.#.#.#.#.#.#.#.#.#.#.#.h               ",
"              @ f  .-.6.6.6.6.5.5.>.5.6.6.6.6.6.5.>.>.>.;.;.*.*.&.*.#.#.#.#.#.#.#.#.k X             ",
"              a >.6.6.6.6.6.6.6.6.6.6.6.6.6.6.6.6.6.6.6.6.6.6.6.>.>.>.-.&.&.#.#.#.#.d               ",
"              a >.6.6.6.6.6.6.6.6.6.6.6.6.6.6.6.6.6.6.6.6.6.6.6.6.6.6.6.5.6.>.-.*.#.>               ",
"              X h | o.o.#.$.,.y.t.r.r.e.q.w.q.0.9.9.8.6.6.6.6.6.6.6.6.6.6.6.6.6.6.&.>               ",
"                            b R.Y.P.P.G.F.F.F.A.A.A.C.C.C.b.+.+.+.=.=.=.,.;.:.:.:.X.;               ",
"                            B R.R.R.R.R.R.R.U.R.R.R.R.R.R.H.Z c c n n n m m m m m 2                 ",
"                            B R.R.R.R.R.R.U.s.N x.R.R.R.R.U.s.M C V V u y y u y y <                 ",
"                            B R.R.R.R.R.R.L.u y Z R.R.R.R.R.B.B.R.R.J.s.u y u y y < .               ",
"                          . b R.R.R.R.R.R.L.y y u U.R.R.R.R.R.R.R.U.U.L.' y y y y <                 ",
"                        , ' m.R.R.R.R.R.R.L.N y ( R.R.R.R.R.R.R.R.R.R.R.N.t y y y <                 ",
"                        ` K.U.U.J.J.J.K.U.R.g.( B.R.R.R.R.R.R.R.R.R.R.R.N.t u y y *                 ",
"                        p.K.Y.' v N N A d.J.R.R.R.R.R.R.R.R.R.R.R.R.R.L.) y y y y *                 ",
"                        r A ` u y y y y y ) J.R.R.R.R.R.R.R.R.R.R.R.R.L.d.N y y t &                 ",
"                            1 y y y y y y u d.R.R.R.R.R.R.R.R.R.R.R.R.R.U.I.N.d.` ,                 ",
"                          . < y y y y t u Z g.R.R.R.R.R.R.R.R.R.R.R.R.R.R.R.R.R.N.1                 ",
"                            o j a.z.z.z.m.B.T.R.R.R.R.R.R.R.T.R.R.R.R.T.R.R.R.K.`                   ",
"                            - O.r.v.v.v.v.v.v.v.h.} } } f.v.v.v.v.v.v.k.} } } ]                     ",
"                            s 6.6.6.6.6.9.6.7.3.^ R R W 2.9.9.9.9.8.8._ R R R Y %                   ",
"                            x 6.6.6.6.6.8.2.i.~ W W T ! ,.u.Z.Z.Z.v.8.1.T T T T w                   ",
"                        . X ..5.6.6.2.1.i./ E T T T T i.C.T.R.R.R.Y.V.3.T T T Y G                   ",
"                          . J / / / ~ ~ Q Q T T T T Q j.U.R.R.R.R.R.Y.a.R T T T H                   ",
"                          . K T R T T T T T T Q T T Q k.U.R.R.R.R.R.R.k.W Q T T H                   ",
"                          . L T Q T T T T T T T T Q T [ U.U.R.R.R.R.R.c.R R T T H                   ",
"                            F T T T T T T T T T T U J p d.R.R.R.R.R.R.l.R T T T F                   ",
"                            q T R T T T R Q T T P 7 5 5 8 p.L.U.R.R.U.[ T T T Y 0                   ",
"                            % L Y R R R T T T I e 5 5 5 5 5 b s.M.c.{ W T T T K +                   ",
"                              9 S F F F F F F i 6 5 6 5 5 5 5 4 3 D S G F S S %                     ",
"                                              $ 5 5 5 5 5 5 5 5 5 X                                 ",
"                                              O 4 5 5 6 6 5 5 5 $                                   ",
"                                                O # $ $ $ $ # O                                     ",
"                                                                                                    ",
"                                                                                                    ",
"                                                                                                    ",
"                                                                                                    ",
"                                                                                                    "
};
