/* XPM */
static char *_642232586084[] = {
/* columns rows colors chars-per-pixel */
"50 50 172 2 ",
"   c #000000",
".  c #0C0603",
"X  c #010D03",
"o  c #0C0C0C",
"O  c #021C08",
"+  c #1E120B",
"@  c #0A1111",
"#  c #151615",
"$  c #1C1C1C",
"%  c #3A0504",
"&  c #22160E",
"*  c #2C1D14",
"=  c #03230B",
"-  c #052E11",
";  c #063414",
":  c #063B17",
">  c #083E1A",
",  c #342419",
"<  c #36281B",
"1  c #30371F",
"2  c #252525",
"3  c #2E2726",
"4  c #322726",
"5  c #372827",
"6  c #3D3524",
"7  c #7E1916",
"8  c #562A28",
"9  c #4C3828",
"0  c #503527",
"q  c #543A2B",
"w  c #583E2E",
"e  c #6B2C29",
"r  c #762B29",
"t  c #09431C",
"y  c #0D5223",
"u  c #0F5D28",
"i  c #105827",
"p  c #105E2A",
"a  c #385C32",
"s  c #14662E",
"d  c #156B31",
"f  c #167736",
"g  c #1A7B3A",
"h  c #52432F",
"j  c #5B402F",
"k  c #4F4F32",
"l  c #5D4230",
"z  c #564D36",
"x  c #4F5033",
"c  c #4D5D37",
"v  c #654A36",
"b  c #694D3A",
"n  c #60513A",
"m  c #6E533D",
"M  c #6C5A40",
"N  c #7D6047",
"B  c #901E1A",
"V  c #8C231F",
"C  c #9B221D",
"Z  c #A1241F",
"A  c #8B2925",
"S  c #872C2A",
"D  c #8A2D2A",
"F  c #902F2B",
"G  c #9C3B26",
"H  c #CE332D",
"J  c #D5342D",
"K  c #DE352E",
"L  c #DA3B31",
"P  c #DE3830",
"I  c #E1352E",
"U  c #E03D33",
"Y  c #BC5B3A",
"T  c #B7643C",
"R  c #A4713F",
"E  c #CA4633",
"W  c #D24733",
"Q  c #C95339",
"!  c #D05136",
"~  c #81654B",
"^  c #896C4F",
"/  c #897354",
"(  c #977A5A",
")  c #B16F47",
"_  c #E35242",
"`  c #E6624D",
"'  c #E97156",
"]  c #EA7B5E",
"[  c #1C853D",
"{  c #1F8D42",
"}  c #199444",
"|  c #229446",
" . c #209A47",
".. c #239D4A",
"X. c #3A9D4E",
"o. c #3A9C54",
"O. c #26A54F",
"+. c #26A750",
"@. c #27A951",
"#. c #2BAA54",
"$. c #34A753",
"%. c #27B154",
"&. c #2AB356",
"*. c #2EB658",
"=. c #2ABC59",
"-. c #37B658",
";. c #69954D",
":. c #45AF56",
">. c #5BA753",
",. c #67A251",
"<. c #58B975",
"1. c #7AB167",
"2. c #27C65E",
"3. c #2CC55E",
"4. c #32C45F",
"5. c #33C661",
"6. c #38C662",
"7. c #45C765",
"8. c #43C865",
"9. c #55C968",
"0. c #59C86A",
"q. c #63CA6D",
"w. c #73C96E",
"e. c #79CE78",
"r. c #888D4A",
"t. c #9C8561",
"y. c #8F9C67",
"u. c #A68765",
"i. c #A88966",
"p. c #AC936C",
"a. c #BA9B73",
"s. c #A5AE6F",
"d. c #BAA76D",
"f. c #D19065",
"g. c #E88C69",
"h. c #F19D76",
"j. c #C2A278",
"k. c #CAA87E",
"l. c #85CE79",
"z. c #93C377",
"x. c #66C084",
"c. c #D4B486",
"v. c #D8B687",
"b. c #DCBA8A",
"n. c #F5AD82",
"m. c #95D182",
"M. c #ABCF82",
"N. c #B6D289",
"B. c #8ECDA2",
"V. c #97D5AC",
"C. c #C6D590",
"Z. c #C9D591",
"A. c #DAD798",
"S. c #EAC693",
"D. c #EAC794",
"F. c #EFCD98",
"G. c #F2CE9A",
"H. c #FBCC98",
"J. c #E2D89A",
"K. c #EBD89C",
"L. c #F5D19B",
"P. c #FAD49D",
"I. c #FBD7A0",
"U. c #F4DBA1",
"Y. c #FED9A2",
"T. c #B4E8C5",
"R. c #B8EDCA",
"E. c #D2D9D3",
"W. c #D8F0E0",
"Q. c #E2E2E2",
"!. c #F3F3F3",
"~. c #FEFEFE",
/* pixels */
"                                                                                                    ",
"                                                                                                    ",
"                                                                                                    ",
"                                                                                                    ",
"                                                                                                    ",
"                                  = t i i i i i i i i i i i i t ;                                   ",
"                          X ; s { | | ..........................| { t                               ",
"                      O y g ..O.O.O.+.+.O.O.O.O.O.O.O.O.O.O.O.O.+.+.| :                             ",
"                    ; g ..O.O.O.O.O.O.O.O.O.O.O.O.O.O.O.O.O.O.O.O.O.O.d                             ",
"                  t { O.O.O.O.O.O.O.O.O.O.O.O.O.O.O.O.O.O.O.#.O.O.O.$.o.X                           ",
"                ; { O.O.O.O.O.O.+.O.O.O.O.O.O.O.O.O.O.O.+.+.O.$.x.R.!.E.o                           ",
"              X d O.O.O.O.O.O.O.O.O.O.O.+.O.+.O.O.O.O.O.+.+.#.V.~.~.~.Q.o                           ",
"              - { O.O.O.O.O.O.O.O.O.O.O.O.O.O.O.O.O.+.+.+.+.B.!.~.~.~.!.o                           ",
"              > O.O.O.O.O.O.O.O.O.O.O.O.O.O.O.O.O.+.+.+.O.<.W.~.~.~.~.~.#                           ",
"              p O.O.O.O.O.O.O.O.+.+.O.O.+.O.+.+.+.+.@.@.#.<.R.R.T.R.R.T.f f y : =                   ",
"            X s O.O.O.O.O.O.O.O.+.@.@.#.%.&.*.=.=.=.3.3.3.3.=.2.2.3.2.3.3.3.3.%.{ u O               ",
"              y O.O.O.O.O.+.&.=.=.3.3.3.3.3.3.3.3.3.3.3.3.3.3.3.3.3.4.3.3.3.3.3.3.=.t               ",
"              : O.@.&.=.3.3.3.3.3.3.3.3.3.3.3.3.3.3.3.3.3.3.3.3.3.3.3.3.3.3.3.3.3.=.t               ",
"              t %.3.3.3.3.3.3.3.3.3.3.3.3.3.3.3.5.5.6.8.7.7.9.0.0.q.w.-.+... . .[ p X               ",
"              ; | *.*.*.*.*.$.$.$.X.X.X.z.M.M.M.N.N.N.C.C.Z.A.J.J.U.I.z                             ",
"                1 x c c c c x x k h h M S.Y.Y.Y.Y.I.Y.Y.Y.Y.Y.Y.Y.Y.Y.n                             ",
"                , q q q q q j b m m v i.L.Y.Y.Y.I.k.b u.I.Y.Y.Y.Y.Y.Y.n                             ",
"                < q q w q q u.D.Y.Y.v.b.Y.Y.Y.Y.I.M q l L.Y.Y.Y.Y.Y.Y.n                             ",
"                , q q q q ( F.Y.Y.Y.Y.Y.Y.Y.Y.Y.I.l q 0 L.Y.Y.Y.Y.Y.Y.z                             ",
"                * 0 q q 0 b.Y.Y.Y.Y.Y.I.Y.Y.Y.Y.I.~ q b L.Y.Y.Y.I.Y.Y.c.p.6                         ",
"                * 9 q w 0 v.Y.Y.Y.Y.Y.Y.Y.Y.I.Y.Y.b.~ j.I.L.F.F.F.S.L.Y.L.t.                        ",
"                & 0 q q 0 ^ G.Y.Y.Y.Y.Y.Y.Y.Y.Y.Y.Y.Y.Y.S.i.N b v l ( P.P.p.                        ",
"                + 0 q q m i.L.Y.Y.Y.Y.Y.Y.Y.Y.Y.Y.Y.Y.D.^ q q 0 q w w / / h                         ",
"                , / i.c.L.I.Y.Y.Y.I.Y.Y.Y.Y.Y.Y.Y.Y.Y.u.w q q q q q q <                             ",
"                4 c.Y.Y.Y.Y.Y.Y.Y.Y.Y.Y.I.Y.Y.Y.Y.Y.Y.a.m l 0 q q q q <                             ",
"                  / K.Y.Y.Y.Y.Y.Y.Y.Y.Y.Y.Y.I.P.Y.Y.I.P.b.c.j.j.a.y.a .                             ",
"                  . ) ] ] ] ] ] d.l.l.l.l.l.l.d.g.s.l.l.l.l.l.l.l.0.O.-                             ",
"                  % J K K P K Q >.3.5.q.m.m.e.1.! Q >.5.2.5.2.2.5.3.3.y                             ",
"                  7 J K K K K T -.3.l.J.Y.Y.Y.U.g.P E r.:.2.2.5.2.3.3.g                             ",
"                  C K I K K K Y -.7.K.Y.Y.Y.Y.Y.H.U K J Y ) ;.:.2.2.2.}                             ",
"                  Z J K K K K E ,.e.Y.Y.Y.Y.Y.Y.I.U K K I J L W ! ! ! G .                           ",
"                  Z K K K K K I R z.Y.Y.Y.Y.Y.Y.h.U K K K K K K P K I Z .                           ",
"              . @ A J K K K K K K f.I.Y.Y.Y.Y.H.` I K I K K K K K K I F # o                         ",
"              # 2 e J K K K K K K _ P.Y.Y.Y.Y.h.U K K K K K I K K K I e 2 2 X                       ",
"              $ 2 4 H K I K K K K I ] H.P.H.n._ K K K K K K K K K K J 8 2 2 o                       ",
"              $ 2 2 F J I I I K I K P _ g.' U I I K K I K K I I K K F 4 2 2 o                       ",
"              o 2 2 3 r D D S S V B B B B B B B B B B V B A S D S r 5 2 2 #                         ",
"                X $ 2 2 2 2 2 2 @                         $ 2 2 2 2 2 2 #                           ",
"                    # 2 2 2 2 2 o                         # 2 2 2 2 2 o                             ",
"                      o # $ $ o                           X # $ $ o                                 ",
"                                                                                                    ",
"                                                                                                    ",
"                                                                                                    ",
"                                                                                                    ",
"                                                                                                    "
};
