/* XPM */
static char *_642232459348[] = {
/* columns rows colors chars-per-pixel */
"50 50 146 2 ",
"   c #000000",
".  c #0C0603",
"X  c #0F0804",
"o  c #130B06",
"O  c #1A0F09",
"+  c #1D120B",
"@  c #21150E",
"#  c #271910",
"$  c #2C1D14",
"%  c #322217",
"&  c #352419",
"*  c #39261B",
"=  c #3D2A1E",
"-  c gray15",
";  c #282726",
":  c #2C2927",
">  c #352D27",
",  c #3A2E28",
"<  c #3F3129",
"1  c #402B1F",
"2  c #442F22",
"3  c #482F23",
"4  c #572D2B",
"5  c #5F2B29",
"6  c #4C3326",
"7  c #423229",
"8  c #4C3629",
"9  c #4E382B",
"0  c #503527",
"q  c #523628",
"w  c #553B2B",
"e  c #593E2D",
"r  c #3E753D",
"t  c #4F452F",
"y  c #4E482F",
"u  c #54432E",
"i  c #5B412F",
"p  c #4E4D31",
"a  c #5E4331",
"s  c #475634",
"d  c #4A5333",
"f  c #455C36",
"g  c #4A5B36",
"h  c #624734",
"j  c #654C37",
"k  c #694E39",
"l  c #6C503B",
"z  c #70543E",
"x  c #416539",
"c  c #436A3A",
"v  c #397B41",
"b  c #665542",
"n  c #715740",
"m  c #755B43",
"M  c #7F654A",
"N  c #6E7D50",
"B  c #872C2A",
"V  c #882C2A",
"C  c #813A2C",
"Z  c #8F392C",
"A  c #BF2E29",
"S  c #AD322C",
"D  c #C42F29",
"F  c #C53029",
"G  c #CB312B",
"H  c #D5332D",
"J  c #DD352E",
"K  c #D9382F",
"L  c #C83D34",
"P  c #D13F31",
"I  c #D93A31",
"U  c #E1352E",
"Y  c #B8653C",
"T  c #E24639",
"R  c #816349",
"E  c #866B4F",
"W  c #9F7E45",
"Q  c #8B6E52",
"!  c #8D7354",
"~  c #917657",
"^  c #9A7E5D",
"/  c #A27542",
"(  c #B37642",
")  c #BB794B",
"_  c #E65E4A",
"`  c #D3674B",
"'  c #E5644E",
"]  c #E96F56",
"[  c #EB7B5F",
"{  c #2D8C45",
"}  c #348543",
"|  c #2F9349",
" . c #239949",
".. c #2B9B4C",
"X. c #3D9C4E",
"o. c #26A44F",
"O. c #28A14E",
"+. c #25A750",
"@. c #33B156",
"#. c #31B658",
"$. c #3ABE5C",
"%. c #418445",
"&. c #509F50",
"*. c #629A4F",
"=. c #778856",
"-. c #6EA150",
";. c #59BA61",
":. c #25C65F",
">. c #2EC45E",
",. c #55C164",
"<. c #57CA6C",
"1. c #998145",
"2. c #89914B",
"3. c #9C805F",
"4. c #A08461",
"5. c #B2956E",
"6. c #B79A72",
"7. c #BA9C73",
"8. c #92BF74",
"9. c #BFA176",
"0. c #DE8762",
"q. c #D69C75",
"w. c #EC8969",
"e. c #C0A377",
"r. c #C7A77C",
"t. c #CBAE7F",
"y. c #84CE79",
"u. c #CEAC80",
"i. c #CDB081",
"p. c #D6B586",
"a. c #D8B987",
"s. c #DCBA8A",
"d. c #E0BE8E",
"f. c #D8C388",
"g. c #C9D390",
"h. c #E6C491",
"j. c #EAC691",
"k. c #EECA97",
"l. c #EFCC98",
"z. c #F9C392",
"x. c #FAC896",
"c. c #F2CD99",
"v. c #FBCD99",
"b. c #F4D19C",
"n. c #FCD39D",
"m. c #FEDAA2",
/* pixels */
"                                                                                                    ",
"                                                                                                    ",
"                                                                                                    ",
"                                . . . o X X X X X X X X X X X X . X                                 ",
"                        X + # & = 2 2 6 6 6 6 6 6 0 3 3 6 6 6 3 2 1 * # @ X                         ",
"                      # 2 6 q u d s g c c c c c c c c r c c c g f d t q 6 2 #                       ",
"                    $ 6 w f r | ......O.....+.......O.O.O...O.......| v f u 0 $                     ",
"                  + q p } O.o.o.o.o.o.o.+.+.+.O.+.+.o.o.+.+.o.o.o.o.+.o.O.} d 0 O                   ",
"                  * w } +.o.o.o.o.+.o.o.o.o.o.o.+.+.o.+.o.o.o.o.o.o.o.o.o.+.} u *                   ",
"                  1 u o.+.o.o.+.o.o.o.+.o.o.+.o.O.+.o.o.o.o.+.o.+.o.+.o.o.+.o.u 2                   ",
"                  2 u o.o.o.o.o.o.+.o.o.+.o.o.+.+.+.O.+.o.o.o.o.o.o.o.o.o.+.o.u 2                   ",
"                  2 u o.+.o.o.+.o.o.o.+.o.o.o.o.+.O.+.O.+.o.o.o.o.o.o.o.o.o.o.u 2                   ",
"                  2 u +.o.+.o.o.o.o.o.o.o.o.o.+.+.o.o.o.o.o.+.o.o.o.o.o.o.o.+.u 2                   ",
"                  2 u +.o.o.o.o.+.o.o.+.o.o.o.o.o.o.o.o.o.o.o.o.o.o.o.o.o.o.+.u 2                   ",
"                  2 u +.o.o.o.o.o.o.o.o.o.o.| x g s x { o.o.+.o.o.o.o.o.+.o.o.u 2                   ",
"                  2 u o.o.O.O.O.o.O.O.O.O.{ y w w w w y | O.O.O.o.o.o.O.O.O.O.u 2                   ",
"                  2 u  . . . . . . . . . .s w w w w w w s  . . . . . . . . . .u 1                   ",
"                  2 u  . . . . . . . . . .s u u u u u u y  . . . . . . . . . .u 2                   ",
"                  2 u {  . . . . . . . . . . . . . . . . . . . . . . . . . .{ u 2                   ",
"                  & w d r r r r r r r r r r r c r r c r r r r r r r r r r r d w *                   ",
"                @ 6 w e w w w w w w w w w w w w w w w w w q w w w w w w w w w w 6 #                 ",
"              O 6 l 4.^ q w w w w w w w w w w w w w w u w w w w w w w w w q 3.4.n 6 +               ",
"              1 j 5.i.6.q w w e w w w w w w w w w w w w w w w w w w w w w q 6.i.5.j 1               ",
"            . 8 E t.i.6.q w w w w w w w w w w w w w w w w w w w w w w w w q 6.i.t.E q               ",
"              w ! i.i.9.i w w w w w w w w w w w w w w w e w w w w w w w w e 7.i.p.~ w               ",
"              6 m 9.i.e.M n j u w w w w w w w w w w w w w w w w w w w j n M e.i.9.m 6               ",
"              & e ! 9.a.k.h.u.6.^ Q n h e q 4 6 0 q 0 q 0 e h l E ^ 5.u.h.l.a.e.! w %               ",
"              . = q n ~ s.m.m.m.n.c.d.s.s.a.p.p.p.p.p.p.p.s.s.d.k.b.m.m.m.d.~ n w * .               ",
"                . % 6 a r.m.m.m.m.m.m.m.m.m.m.m.m.m.m.m.m.n.m.m.m.m.m.m.m.p.k 6 # .                 ",
"                    # e 7.m.m.m.m.m.m.m.m.m.m.m.m.m.m.m.m.m.m.m.m.m.m.m.m.7.w *                     ",
"                . & 8 d =.h.m.m.m.m.m.m.m.n.m.m.m.m.m.m.m.m.m.m.m.m.m.m.j.=.d q *                   ",
"                $ q g #.&.` [ [ [ [ 0.8.y.y.y.y.y.y.y.y.y.y.y.0.[ [ [ [ ` *.#.g q $                 ",
"              o 2 y @.>.2.K J J J J H W $.>.>.>.>.>.>.>.:.>.1.I J U I U U / >.@.y 2 o               ",
"              + 0 %.>.,.) J J J J J U H Y -.>.:.:.:.>.>.-.Y K J J J J J U Y ;.>.%.q O               ",
"              + w X.<.f.' J J J J J J J P P Y Y ( ( Y Y P J J J J J U J J T f.<.X.w @               ",
"              O 4 X.g.x._ J J J J J J J K J J J I U I I J J J J J J J J J T z.g.X.0 O               ",
"              O 6 N b.x._ J J G D D D D H U J J U U J J U H F F F F G J U T z.c.N 6 O               ",
"              o 2 R c.x._ J J G A A D A H J J J J J J J U H A A A A G J J T z.b.R 2 o               ",
"              . = k k.v.] J U H D A D D J J U J J J J U J J F D A D G J J _ x.l.j 1 .               ",
"                & w p.v.w.J J J H G G H J J J U K H K H J J H G G H J J J w.n.p.q *                 ",
"                @ 6 z p.q.L J U J U U U G S Z k C C k Z S G U J U U J J L q.p.z 6 @                 ",
"                  $ q l b q B V B B B V 5 : 8 6 1 1 4 9 : 5 V B B B B B 5 b l q %                   ",
"                  . @ w 7 - - - - - - ; ; ; 9 2 o o 2 8 : ; ; ; ; ; - - ; 7 w @                     ",
"                    . q 8 > : - - - - ; : < w *   . * w , : ; ; - - ; : > w 6 .                     ",
"                      % 8 w 8 7 < < < 7 6 w 2 O     + 2 e 8 7 7 < < < 6 q 8 #                       ",
"                        @ * 6 w w e e q 2 $ o         o # 2 6 w w w w 6 = @ .                       ",
"                            . o o o o o .                 . X o o o o X                             ",
"                                                                                                    ",
"                                                                                                    ",
"                                                                                                    "
};
