/* XPM */
static char *_642232606555[] = {
/* columns rows colors chars-per-pixel */
"50 50 116 2 ",
"   c black",
".  c #110407",
"X  c #35171C",
"o  c #391C1F",
"O  c #431730",
"+  c #431830",
"@  c #441830",
"#  c #471B30",
"$  c #481D31",
"%  c #482227",
"&  c #482428",
"*  c #50282D",
"=  c #522A2E",
"-  c #4C2231",
";  c #4F2332",
":  c #4F2432",
">  c #502432",
",  c #512532",
"<  c #532732",
"1  c #532B32",
"2  c #542B32",
"3  c #562C30",
"4  c #572C33",
"5  c #582C33",
"6  c #5B2F33",
"7  c #5A2B35",
"8  c #5A2E34",
"9  c #5C2E34",
"0  c #5D2F34",
"q  c #5D3034",
"w  c #5F3035",
"e  c #612F35",
"r  c #623135",
"t  c #633135",
"y  c #613037",
"u  c #623137",
"i  c #653735",
"p  c #653436",
"a  c #693736",
"s  c #6A3936",
"d  c #6D3C37",
"f  c #6D3D37",
"g  c #633138",
"h  c #703F37",
"j  c #71343B",
"k  c #73373B",
"l  c #74363C",
"z  c #77383D",
"x  c #793B3C",
"c  c #783C3C",
"v  c #7B3D3D",
"b  c #7C3F3D",
"n  c #704037",
"m  c #88493F",
"M  c #88513B",
"N  c #8C543C",
"B  c #873D43",
"V  c #8C4243",
"C  c #8F4643",
"Z  c #8F4743",
"A  c #914743",
"S  c #944944",
"D  c #964B45",
"F  c #9A4B47",
"G  c #A65B47",
"H  c #A05048",
"J  c #A25348",
"K  c #A35448",
"L  c #A45548",
"P  c #AA5A49",
"I  c #AB5B4A",
"U  c #B05F4A",
"Y  c #A66743",
"T  c #A96A43",
"R  c #AF6F45",
"E  c #B0604A",
"W  c #B3624A",
"Q  c #B7654B",
"!  c #B7674B",
"~  c #B8674B",
"^  c #B9684B",
"/  c #BA6A4B",
"(  c #BB6A4C",
")  c #BC6B4C",
"_  c #BD6C4C",
"`  c #BE6D4C",
"'  c #B27245",
"]  c #B47345",
"[  c #B57346",
"{  c #B97746",
"}  c #BD704B",
"|  c #C06F4C",
" . c #C1704C",
".. c #C4724E",
"X. c #C67A4C",
"o. c #D3884D",
"O. c #D98C4E",
"+. c #D28050",
"@. c #D78451",
"#. c #D88451",
"$. c #D88551",
"%. c #DB8851",
"&. c #DC8951",
"*. c #DD8D50",
"=. c #E49551",
"-. c #E89752",
";. c #E79851",
":. c #EB9A52",
">. c #EE9C53",
",. c #EF9B55",
"<. c #F19B55",
"1. c #F19C55",
"2. c #F49D56",
"3. c #F7A056",
"4. c #F9A357",
"5. c #FDA758",
/* pixels */
"    X * g g q q 0 8 8 8 0 8 8 8 0 0 8 8 q 8 8 8 0 8 8 8 0 0 7 6 8 0 8 8 8 0 8 8 0 0 7 0 g g & X     ",
"  . o * g g q 8 8 8 0 8 0 8 0 0 8 8 7 0 8 8 0 8 0 8 0 0 8 8 0 8 8 0 8 0 8 8 0 0 8 8 8 8 g g 1 o .   ",
"X o & * 0 8 , , , , , , ; , ; , , , , ; , , , , > > > , , , ; > , , , , , , , , , ; > , 8 0 * % o X ",
"* * 3 q 8 , $ O @ @ @ @ O @ @ @ @ @ @ @ @ @ @ @ @ @ @ @ @ @ @ @ @ @ @ @ + @ O @ @ O @ $ , 8 0 6 * * ",
"u g q 8 0 p d n h f h h f n n f h h f n n f h h n n d h h h d n h h f n f n n f d n n d p q 6 0 g g ",
"g g 7 , p M Y [ [ ' ' ' ' ' ' ' ' ' ' ' ' ' ' ' ' ' ' ' ' ' ' ' ' ' ' ' ' ' ' ] ' { [ R N i , 8 p g ",
"8 0 , $ d Y o.:.-.=.=.=.=.=.=.=.=.=.=.=.=.=.=.=.=.=.=.=.=.=.=.=.=.=.=.=.=.=.=.=.=.:.>.O.T d $ , 0 0 ",
"8 8 : @ d [ -.5.4.1.<.<.1.1.<.<.<.<.<.<.1.1.<.<.<.1.<.<.<.<.<.<.<.<.<.1.1.1.1.1.<.2.2.*.R d @ , 8 8 ",
"0 0 > O n [ :.4.;.&.$.$.&.$.&.&.%.%.%.%.%.%.%.%.%.%.%.%.%.%.%.$.%.%.%.%.$.%.&.&.$.@.+.} N a > < 0 0 ",
"8 8 > @ d ' =.1.&...` |  . . . . . . . . . . . . . . . . . . . . . . . . . . . .| ! I D m u 2 2 8 8 ",
"8 8 ; @ n ' =.,.$.` W ~ ^ ^ ^ ^ ^ ^ ^ ^ ^ ^ ^ ^ ^ ^ ^ ^ ^ ^ ^ ^ ^ ^ ^ ^ ^ ^ ^ ` ~ I F B j e = 0 0 8 ",
"8 0 , @ d ' =.<.$.` Q ^ ) ) ) ) ) ) ) ) ) ) ) ) ) ) ) ) ) ) ) ` ) ^ ` ` ` ) ` ` ^ I H V l e 2 5 8 7 ",
"0 8 , # n ' =.1.$. .^ ) ` ` ` ` ` ` ` ` ` ` ` ` ` ` ` ` ` ` ` ` ` ` ` ` ` ` `  .` W J C x u 2 2 8 0 ",
"0 8 , @ n ' =.1.$. .^ ) ` ` ` ` ` ` ` ` ` ` ` ` ` ` ` ` ` ` ` ` ` ` ` ` ` ` ` ` ` U K C x u 2 6 8 8 ",
"8 8 ; @ d ' =.1.&. .^ ) ` ` ` ` ` ` ` ` ` ` ` ` ` ` ` ` ` ` ` ` ` ` ` ` ` `  . .` E K C x u 2 1 0 8 ",
"8 0 ; @ n ' =.,.&. .^ ) ` ` ` ` ` ` ` ` ` ` ` ` ` ` ` ` ` ` ` ` ` ` ` ` ` ` ` ` ` E K C x u 2 3 7 8 ",
"8 8 : # d ' =.<.$. .^ ) ` ` ` ` ` ` ` ` ` ` ` ` ` ` ` ` ` ` ` ` ` ` ` ` ` ` `  .` E K Z c u 3 q 0 8 ",
"8 8 : # n ' =.<.%. .^ ) ` ` ` ` ` ` ` ` ` ` ` ` ` ` ` ` ` ` ` ` ` ` ` ` ` ` ` | ^ W K Z z g 1 = 8 6 ",
"8 q , @ n ' =.<.%. .^ ) ` ` ` ` ` ` ` ` ` ` ` ` ` ` ` ` ` ` ` ` ` ` ` ` ` ` |  .) E K Z x g 2 4 8 0 ",
"8 8 , @ d ' =.<.$. .^ ) ` ` ` ` ` ` ` ` ` ` ` ` ` ` ` ` ` ` ` ` ` ` ` ` ` ` `  .` W K Z x g 2 4 6 7 ",
"q 0 : @ n ' =.<.%. .^ ) ` ` ` ` ` ` ` ` ` ` ` ` ` ` ` ` ` ` ` ` ` ` ` ` ` ` ` | ) E K Z c u 2 4 8 8 ",
"8 8 , @ n ' =.1.%. .^ ) ` ` ` ` ` ` ` ` ` ` ` ` ` ` ` ` ` ` ` ` ` ` ` ` ` ` `  .` E K Z c r 2 3 0 8 ",
"8 8 : @ d ' =.<.$. .^ ) ` ` ` ` ` ` ` ` ` ` ` ` ` ` ` ` ` ` ` ` ` ` ` ` ` ` `  .) E K Z x r = 8 6 7 ",
"8 q , @ h ' =.1.%. .^ ) ` ` ` ` ` ` ` ` ` ` ` ` ` ` ` ` ` ` ` ` ` ` ` ` ` ` `  .^ W K Z x r 3 3 8 0 ",
"8 8 , + n ' =.1.$. .^ ) ` ` ` ` ` ` ` ` ` ` ` ` ` ` ` ` ` ` ` ` ` ` ` ` ` ` `  .` I K C x u 2 5 0 8 ",
"8 q , @ n ' =.1.%. .^ ` ` ` ` ` ` ` ` ` ` ` ` ` ` ` ` ` ` ` ` ` ` ` ` ` ` ` ` | ` W K C x u 2 5 0 8 ",
"8 8 , @ d ' =.<.%. .^ ) ` ` ` ` ` ` ` ` ` ` ` ` ` ` ` ` ` ` ` ` ` ` ` ` ` ` |  .` W J C x r 2 2 7 0 ",
"q 8 > @ n ' =.<.$. .^ ) ` ` ` ` ` ` ` ` ` ` ` ` ` ` ` ` ` ` ` ` ` ` ` ` ` ` `  .` I J A x r 2 5 6 8 ",
"8 8 : # n ' =.1.$. .^ ) ` ` ` ` ` ` ` ` ` ` ` ` ` ` ` ` ` ` ` ` ` ` ` ` ` ` ` | ` I K A x u 2 2 0 8 ",
"8 8 : # d ' =.1.%. .^ ` ` ` ` ` ` ` ` ` ` ` ` ` ` ` ` ` ` ` ` ` ` ` ` ` ` ` ` | ) W K Z x u 2 6 7 8 ",
"q 8 : @ d ' =.1.%. .^ ) ` ` ` ` ` ` ` ` ` ` ` ` ` ` ` ` ` ` ` ` ` ` ` ` ` ` }  .` E K Z x u 1 6 6 8 ",
"0 8 , @ n ' =.1.$. .^ ) ` ` ` ` ` ` ` ` ` ` ` ` ` ` ` ` ` ` ` ` ` ` ` ` ` ` `  .) W K Z x e 1 2 8 0 ",
"8 8 : @ n ' =.1.$. .^ ) ` ` ` ` ` | ) ) ` | ) ` | | ) ` ) ` | | ) ) ` | ` ` | | ) W K Z c u 3 = 0 7 ",
"8 0 , @ n ' =.1.%. .^ ) ` ` ` ` ) | ` | ` ) | ` ) ` ) | | ` ) ` ` | ` ) ` ` ` | ` I K A c u 3 q 8 8 ",
"8 8 : @ d ] =.<.%. .^ ) ` ` ` ` ) ` | ` | | ) ) ` ) ` | | ) ` ) | ` | ) ` ` | | ) I K A x u 1 1 8 0 ",
"8 q , @ d ' =.1.$. .^ ` ` ` ` ` | ` ) ) ) ` ` | | | ` ) ` ) | | ) ) | ` ` ` ` | ) W K S x g 2 4 6 7 ",
"8 q : @ n ' =.1.$. .^ ) ` ` ` ` ) ` | | | ` ` ) ) ` | ) ` | ) ` ` | ` | ) ` | | ` I K C x u 1 6 8 0 ",
"8 8 , @ n ' =.1.%. .^ ) ` ` ` ` | ` ) ` ) ) | ` ) | ` ) ` ) | ` ` ) ) ` ) | | | ` W K C x u 1 1 8 0 ",
"q 0 > + n [ ;.1.&...^ ` | ` ` | | ) | ` | | | | | | ` | | | | ) | | ` | | | |  .` E J A x r 1 5 6 8 ",
"8 8 ; O n [ :.3.&...) ` | | | | | | | | | | } } | | | | | | | | | | | | | | | ..` W K A x e 2 5 7 0 ",
"0 8 : + d R =.<.$.| ! ^ ` ` ^ ` ` ) ` ` ` ^ ` ` ` ) ` ) ) ` ^ ) ` ) ` ) ` ` ) | ^ W J C x u = 6 8 8 ",
"8 0 , ; s I X.X...W I W W E E E E E I W W E E E E E E W E E W W E E E W W I W W E I K S c u 2 3 0 8 ",
"8 0 3 1 p m G I I K J K K K K L K K K J K K K K K K K K K K J J K K K K J K J K K K K D b u 2 4 0 8 ",
"0 8 q = q k B A A C A C Z Z Z Z C C A A C Z Z Z C C Z Z C C C A C C C C C A C C A A S A x g 2 8 8 8 ",
"g g 0 8 0 e l x x x x x x x x x x x x x x x x x c x x x x x x x c x x x x x x x x b b x a 0 8 0 g g ",
"g 0 0 0 6 0 e e u u g g g u r u u g u u u u g g u r r r g e u u r r r r u u u r e u u g q 0 0 0 g g ",
"* * 2 8 0 8 2 2 1 1 2 2 1 1 = 3 2 2 2 2 1 1 1 1 1 4 = 3 2 2 1 1 1 4 = 3 2 2 2 2 2 2 2 2 q 0 8 2 2 * ",
"X o % 2 e 6 6 2 6 1 4 4 4 8 3 3 2 8 2 3 q = 4 4 4 4 3 3 5 5 2 6 4 4 3 3 5 5 5 2 2 6 2 6 6 g * % o X ",
"  . o 2 u y 0 0 0 7 8 8 8 0 8 8 0 7 8 0 7 0 8 8 0 8 8 6 8 0 6 8 8 0 8 0 8 8 8 0 8 0 8 0 e g * o .   ",
"    X * u p 0 8 8 8 8 0 6 7 0 8 8 6 8 0 6 8 7 0 8 6 0 7 8 8 7 0 8 8 8 0 8 0 8 8 7 0 8 0 g w * X     "
};
